<?xml version="1.0" standalone="no"?>
<!DOCTYPE svg PUBLIC "-//W3C//DTD SVG 20010904//EN"
 "http://www.w3.org/TR/2001/REC-SVG-20010904/DTD/svg10.dtd">
<svg version="1.0" xmlns="http://www.w3.org/2000/svg"
 width="991.000000pt" height="991.000000pt" viewBox="0 0 991.000000 991.000000"
 preserveAspectRatio="xMidYMid meet">
<metadata>
Created by potrace 1.11, written by Peter Selinger 2001-2013
</metadata>
<g transform="translate(0.000000,991.000000) scale(0.100000,-0.100000)"
fill="#000000" stroke="none">
<path d="M4747 9904 c-1 -1 -54 -5 -117 -8 -63 -4 -131 -9 -150 -11 -19 -2
-62 -6 -94 -10 -73 -7 -93 -10 -281 -41 -166 -28 -416 -86 -570 -134 -55 -17
-107 -32 -115 -34 -182 -46 -730 -288 -912 -403 -21 -12 -40 -23 -43 -23 -11
0 -294 -185 -401 -261 -241 -173 -380 -293 -624 -538 -445 -447 -771 -924
-1032 -1511 -125 -281 -294 -831 -322 -1050 -2 -19 -7 -46 -10 -60 -8 -34 -15
-76 -21 -130 -3 -25 -8 -54 -10 -65 -2 -11 -7 -47 -10 -80 -4 -33 -8 -71 -10
-83 -27 -165 -27 -845 0 -1002 2 -14 7 -52 10 -85 4 -33 8 -69 10 -80 1 -11 6
-44 10 -74 3 -30 9 -63 11 -75 2 -12 9 -48 14 -81 78 -439 232 -901 439 -1315
337 -671 768 -1198 1390 -1700 80 -65 270 -198 390 -274 448 -284 939 -494
1449 -621 97 -24 191 -46 207 -49 17 -3 66 -12 110 -20 44 -8 100 -17 125 -21
25 -3 56 -8 70 -10 162 -23 222 -29 423 -40 203 -11 562 -6 693 10 16 2 61 6
99 10 39 3 97 10 130 15 33 5 83 12 110 15 28 4 57 8 65 10 8 2 31 7 50 10 19
3 55 10 80 15 25 5 56 12 70 14 14 2 43 9 65 14 22 6 51 13 65 16 14 2 76 18
139 36 839 229 1595 669 2201 1280 167 168 187 189 299 324 191 227 387 513
531 772 38 68 190 371 190 378 0 3 11 29 24 58 165 361 311 894 366 1333 6 50
13 106 15 125 26 203 27 868 1 995 -2 11 -7 52 -10 90 -4 39 -8 81 -11 95 -2
14 -6 43 -10 65 -82 564 -290 1174 -571 1672 -238 423 -479 739 -828 1088
-206 206 -314 301 -516 454 -591 448 -1319 773 -2027 907 -13 2 -35 6 -50 9
-59 11 -291 45 -348 50 -33 4 -71 8 -85 10 -83 13 -661 29 -673 19z m467 -135
c50 -63 400 -545 478 -659 10 -14 34 -50 55 -80 93 -134 300 -440 410 -605
293 -443 458 -736 626 -1111 111 -250 258 -626 269 -688 3 -20 4 -20 -89 -30
-83 -9 -218 -49 -311 -91 -205 -95 -430 -298 -550 -496 l-22 -36 58 -31 58
-31 51 77 c105 158 283 313 450 392 110 52 257 91 356 94 l50 1 36 -130 c20
-71 37 -133 38 -138 1 -4 7 -33 14 -65 22 -101 29 -93 -101 -118 -344 -67
-574 -224 -605 -414 -3 -19 -8 -48 -12 -65 -6 -32 -6 -35 -17 -160 -4 -44 -9
-91 -11 -105 -2 -14 -7 -61 -10 -105 -3 -44 -8 -101 -11 -127 -5 -47 -5 -48
23 -49 15 0 45 -2 66 -5 30 -4 37 -1 39 13 0 10 2 29 3 43 1 14 5 54 9 90 3
36 8 94 11 130 3 36 7 81 10 100 2 19 7 60 9 90 18 197 61 258 244 347 127 61
401 128 403 99 0 -6 2 -20 4 -31 12 -63 25 -146 30 -190 4 -27 8 -57 10 -65 2
-8 7 -46 10 -85 3 -38 8 -83 10 -100 21 -176 21 -681 0 -868 -2 -18 -6 -63
-10 -102 -4 -38 -9 -83 -11 -100 -2 -16 -6 -52 -9 -80 -3 -27 -10 -72 -15
-100 -5 -27 -12 -68 -15 -90 -10 -76 -38 -210 -47 -227 -5 -10 -67 -56 -138
-103 -71 -48 -161 -115 -199 -150 -38 -35 -78 -68 -89 -74 -35 -18 -90 -19
-190 -1 -149 28 -161 29 -254 36 -102 7 -166 -5 -253 -49 -43 -22 -75 -30
-115 -31 -53 -1 -55 0 -58 27 -5 46 26 182 74 322 24 72 55 170 68 218 30 107
44 130 104 168 56 35 111 52 173 51 l46 0 10 64 9 64 -30 2 c-56 3 -110 -3
-162 -17 -142 -40 -233 -131 -269 -270 -10 -38 -42 -142 -71 -230 -29 -88 -55
-171 -58 -185 -3 -14 -8 -36 -11 -50 -4 -14 -9 -61 -11 -105 -8 -128 32 -182
144 -192 72 -7 129 6 220 49 55 26 80 32 141 33 40 1 94 -2 120 -6 74 -12 113
-19 166 -29 181 -35 260 -13 391 113 55 52 61 57 146 110 l56 37 -24 -93 c-36
-134 -69 -243 -125 -407 -42 -123 -59 -160 -118 -245 -37 -55 -96 -148 -130
-206 -75 -129 -114 -176 -188 -225 -120 -80 -285 -125 -453 -126 -145 0 -231
16 -318 58 -102 49 -123 84 -159 254 -4 19 -7 87 -7 150 0 90 5 128 22 175 11
33 20 61 19 61 -1 1 -28 14 -60 28 -41 18 -59 22 -62 13 -46 -126 -50 -152
-50 -302 1 -192 39 -326 116 -410 95 -103 254 -156 474 -159 68 0 183 9 236
19 98 19 320 116 341 148 4 7 8 9 8 5 0 -12 -140 -262 -215 -384 -84 -135
-212 -323 -322 -472 -128 -173 -202 -264 -453 -556 -28 -33 -90 -103 -219
-246 -100 -111 -420 -433 -535 -539 l-80 -73 -145 6 c-80 4 -157 8 -171 10
-14 2 -54 7 -90 10 -391 36 -877 153 -1239 298 -42 17 -87 34 -101 40 -22 8
-11 16 125 87 203 105 240 128 385 239 353 272 675 583 983 952 61 73 216 284
296 403 166 248 331 555 446 827 96 230 225 639 260 830 5 24 8 43 20 100 13
67 35 207 40 254 3 21 7 56 10 76 6 39 9 71 22 235 10 126 10 704 1 850 -9
126 -16 205 -23 255 -2 19 -7 58 -10 85 -3 28 -7 61 -9 75 -3 14 -7 41 -10 60
-14 91 -20 126 -52 285 -154 774 -499 1509 -1018 2170 -39 50 -75 95 -81 101
-5 7 -50 59 -100 117 -111 130 -471 489 -620 617 -129 112 -281 235 -382 309
-40 30 -70 57 -67 62 18 30 555 174 789 212 17 3 73 12 125 21 52 8 127 18
165 21 39 4 81 8 94 10 13 2 81 7 150 11 69 3 127 7 129 8 4 5 432 -1 436 -5z
m281 -23 c39 -4 77 -9 85 -11 8 -2 38 -6 65 -10 28 -3 61 -7 75 -10 14 -3 40
-7 57 -10 206 -34 638 -145 758 -195 29 -12 59 -23 70 -25 41 -9 303 -124 460
-201 211 -103 264 -132 410 -223 55 -35 112 -70 127 -79 26 -16 139 -233 353
-677 449 -930 611 -1366 730 -1965 1 -8 6 -35 10 -60 4 -25 9 -54 11 -65 2
-11 6 -31 8 -45 3 -14 8 -45 12 -70 4 -25 8 -49 9 -55 7 -62 18 -153 20 -166
2 -9 6 -52 10 -95 3 -43 8 -97 10 -119 18 -166 23 -598 11 -840 -11 -222 -24
-428 -31 -475 -2 -14 -6 -52 -10 -85 -3 -33 -8 -71 -10 -85 -3 -23 -6 -46 -21
-160 -38 -297 -147 -755 -266 -1120 -156 -479 -404 -1032 -638 -1420 -117
-194 -241 -388 -330 -515 -62 -88 -114 -165 -117 -171 -8 -21 -299 -174 -481
-253 -109 -48 -336 -135 -427 -164 -77 -25 -283 -85 -316 -92 -8 -2 -47 -11
-85 -20 -109 -25 -146 -34 -184 -40 -19 -3 -71 -12 -115 -20 -44 -8 -102 -17
-130 -20 -27 -3 -59 -8 -70 -10 -11 -2 -54 -7 -95 -10 -41 -4 -86 -8 -100 -11
-14 -2 -88 -6 -165 -10 l-140 -6 175 174 c200 200 284 288 390 408 41 47 80
90 86 95 25 23 268 310 368 433 315 391 557 763 761 1172 77 153 183 392 216
484 28 78 271 356 419 478 30 25 102 83 160 127 187 146 335 294 453 456 20
28 40 55 44 60 9 11 63 91 134 195 156 228 249 445 295 688 25 128 24 412 -1
552 -2 14 -11 66 -19 115 -44 253 -119 410 -273 571 -238 248 -575 414 -913
449 -108 11 -145 17 -151 23 -4 4 -17 39 -29 77 -34 105 -145 393 -207 535
-227 525 -401 833 -812 1440 -91 135 -188 279 -216 320 -27 41 -54 80 -58 85
-4 6 -63 89 -130 185 -67 96 -172 243 -233 325 -134 184 -129 175 -107 171 10
-2 50 -7 88 -10z m-2230 -387 c475 -343 939 -798 1293 -1266 57 -75 272 -389
272 -397 0 -2 25 -46 56 -97 109 -181 265 -501 359 -739 77 -194 191 -595 230
-809 3 -15 7 -35 9 -46 4 -23 36 -209 41 -245 2 -14 8 -68 14 -120 6 -52 13
-115 16 -140 20 -172 27 -756 12 -973 -7 -102 -23 -260 -32 -317 -2 -14 -9
-61 -15 -105 -74 -508 -278 -1085 -554 -1565 -321 -558 -775 -1084 -1296
-1504 -52 -42 -102 -82 -110 -89 -63 -50 -170 -123 -250 -168 -109 -62 -370
-192 -385 -192 -22 0 -445 222 -474 250 -7 5 -8 38 -16 330 -6 246 -12 298
-39 364 -6 13 25 43 126 125 306 249 641 612 859 929 327 474 565 1046 655
1570 8 49 17 101 19 115 3 14 7 50 11 80 3 30 7 66 9 80 27 157 27 671 0 862
-71 526 -198 940 -447 1466 -171 361 -314 630 -436 817 -62 95 -212 303 -243
335 -8 8 -36 42 -64 75 -27 33 -106 117 -174 188 l-124 127 12 58 c73 334 235
910 264 939 13 14 275 132 293 132 7 1 56 -31 109 -70z m-596 -219 c-11 -36
-22 -72 -24 -80 -3 -8 -22 -80 -45 -160 -35 -127 -94 -356 -106 -415 -12 -62
-16 -75 -24 -75 -5 0 -66 46 -137 103 -70 56 -174 133 -230 171 -57 39 -103
73 -103 76 0 10 178 141 303 223 153 100 376 231 384 224 1 -2 -7 -32 -18 -67z
m5275 -407 c199 -159 450 -396 596 -562 36 -41 70 -79 75 -85 32 -34 182 -226
247 -316 392 -543 675 -1186 807 -1835 25 -121 58 -321 65 -390 3 -27 8 -68
10 -90 16 -143 20 -251 20 -490 1 -276 -5 -394 -29 -580 -2 -22 -7 -62 -10
-90 -4 -27 -13 -88 -22 -135 -8 -47 -17 -96 -19 -110 -13 -81 -58 -268 -99
-415 -76 -268 -176 -528 -309 -800 -244 -499 -564 -939 -965 -1329 -125 -122
-127 -123 -201 -186 -36 -30 -67 -57 -70 -60 -47 -51 -411 -317 -395 -289 5 8
30 46 55 84 428 641 784 1427 982 2165 25 96 115 490 122 538 3 20 10 62 15
92 6 30 13 71 15 90 3 19 8 51 10 70 3 19 8 58 11 85 4 28 8 57 10 65 2 8 7
49 10 90 4 41 9 83 11 93 1 9 6 63 10 120 3 56 7 118 9 137 22 275 23 868 1
1075 -2 17 -6 66 -10 110 -4 44 -9 91 -11 105 -2 14 -7 50 -10 80 -16 141 -56
376 -90 532 -130 586 -321 1071 -835 2115 -47 95 -84 173 -81 173 2 0 36 -26
75 -57z m-5931 -147 c68 -46 132 -90 143 -99 197 -160 261 -213 272 -224 11
-11 11 -23 1 -70 -7 -32 -14 -64 -15 -72 -1 -7 -7 -34 -13 -60 -6 -25 -13 -57
-15 -71 -2 -14 -13 -63 -24 -110 -92 -390 -101 -633 -36 -1040 2 -14 21 -92
43 -175 43 -165 46 -230 16 -347 -15 -61 -103 -258 -114 -258 -3 0 -17 28 -30
63 -27 72 -135 296 -182 377 -34 61 -195 304 -213 323 -6 7 -28 35 -49 62
-175 230 -495 524 -745 685 -56 36 -101 68 -102 71 -1 23 265 367 409 529 150
167 497 499 523 500 5 0 64 -38 131 -84z m657 -561 c184 -190 371 -441 515
-690 135 -233 383 -744 487 -1005 98 -246 190 -557 233 -790 9 -52 18 -102 20
-110 5 -25 25 -198 34 -295 9 -88 6 -511 -3 -590 -3 -22 -8 -69 -11 -105 -4
-36 -8 -72 -10 -80 -1 -8 -6 -37 -9 -65 -19 -137 -76 -395 -112 -506 -8 -25
-16 -54 -18 -65 -2 -10 -22 -68 -44 -129 -263 -733 -728 -1371 -1377 -1888
l-70 -56 -35 32 c-19 18 -39 37 -45 43 -5 6 -35 30 -65 54 -79 63 -90 78 -78
110 5 15 29 49 53 76 86 96 125 203 120 331 -5 109 -37 163 -131 223 -79 50
-127 112 -121 155 2 17 25 102 51 190 67 226 79 292 74 399 -4 94 -30 173 -77
232 l-19 25 52 102 c29 56 68 136 86 177 18 41 38 89 45 105 15 34 75 203 99
280 38 123 73 289 100 475 26 176 26 705 1 783 -2 7 -6 30 -9 52 -11 87 -18
125 -48 248 l-30 128 75 152 c108 217 131 297 131 447 0 88 -2 98 -43 250 -34
127 -47 192 -56 272 -3 29 -9 87 -14 128 -9 83 -7 320 3 390 13 88 26 165 30
185 23 101 39 171 67 298 l32 148 25 -23 c14 -13 55 -54 92 -93z m-1672 -577
c57 -38 111 -76 120 -83 9 -8 46 -37 82 -65 153 -120 349 -316 485 -485 49
-61 235 -336 274 -404 73 -130 162 -331 206 -464 l19 -57 -26 -53 c-52 -106
-225 -399 -396 -672 -287 -457 -299 -476 -350 -565 -27 -47 -58 -101 -69 -120
-192 -333 -214 -378 -215 -449 -1 -119 158 -262 397 -356 154 -61 188 -78 267
-129 l76 -49 -56 -91 c-185 -300 -418 -575 -672 -796 -41 -36 -77 -68 -80 -71
-11 -13 -184 -139 -190 -139 -10 0 -123 194 -205 352 -164 317 -294 658 -380
995 -34 133 -87 390 -100 486 -4 27 -8 58 -10 69 -2 11 -7 45 -10 76 -3 31 -8
71 -10 87 -27 225 -27 739 0 990 9 76 17 137 31 225 8 52 17 111 20 130 3 19
9 53 14 75 5 22 12 56 15 75 9 56 92 367 124 465 72 224 167 458 275 675 123
247 234 432 251 422 5 -3 56 -37 113 -74z m6412 -994 c257 -42 511 -168 713
-354 180 -166 267 -357 303 -665 4 -27 10 -72 14 -100 11 -69 5 -306 -9 -385
-45 -243 -115 -407 -286 -665 -202 -303 -349 -476 -530 -619 -49 -39 -128
-102 -175 -139 -47 -37 -122 -104 -167 -148 l-82 -80 20 68 c12 37 41 149 66
248 l45 180 52 50 c249 240 462 595 576 962 17 56 33 114 36 130 3 15 9 44 14
63 15 63 40 233 43 302 9 172 -50 372 -148 504 -106 142 -278 231 -479 250
-39 3 -71 7 -72 8 0 0 -21 87 -47 192 -26 105 -49 198 -52 206 -7 18 13 17
165 -8z m108 -550 c147 -42 247 -121 310 -242 72 -138 97 -265 80 -412 -43
-388 -193 -768 -431 -1087 -71 -95 -107 -135 -107 -117 0 5 7 45 14 89 8 44
17 105 21 135 3 30 7 71 10 90 8 69 15 136 21 215 3 44 8 100 10 125 4 58 5
564 0 610 -2 19 -7 76 -10 125 -4 50 -9 101 -11 115 -2 14 -7 50 -10 80 -4 30
-8 64 -10 75 -2 11 -6 40 -9 65 -4 25 -11 69 -16 99 -6 30 -10 56 -10 58 0 8
92 -7 148 -23z m-5244 -409 c24 -161 30 -239 30 -425 1 -225 -7 -329 -40 -525
-27 -165 -87 -374 -159 -560 -60 -153 -163 -365 -178 -365 -5 0 -27 13 -51 29
-69 48 -127 78 -227 116 -171 67 -280 130 -352 201 -43 44 -47 75 -17 135 66
129 316 552 500 844 219 348 319 514 406 667 l49 88 12 -53 c7 -28 19 -97 27
-152z m-293 -2142 c24 -68 26 -144 6 -233 -22 -98 -74 -281 -97 -342 -52 -138
3 -265 158 -365 66 -43 85 -81 77 -156 -11 -98 -30 -138 -110 -229 -51 -57
-80 -138 -69 -195 7 -42 54 -93 176 -193 37 -30 67 -59 67 -65 1 -12 -83 -68
-262 -177 -140 -85 -135 -84 -197 -27 -277 252 -543 554 -741 842 l-48 69 94
73 c144 109 206 164 375 334 204 204 371 413 497 620 26 44 51 81 55 81 3 0
12 -17 19 -37z m313 -1928 c8 -51 18 -495 10 -495 -9 0 -190 129 -306 219
l-98 76 81 50 c44 27 129 82 187 121 59 40 110 69 114 65 4 -3 9 -19 12 -36z"/>
<path d="M6989 5840 l-46 -30 64 -126 c34 -69 67 -140 72 -158 66 -219 85
-348 86 -556 0 -127 -10 -207 -40 -319 -57 -212 -163 -417 -297 -572 -26 -31
-48 -61 -48 -67 0 -6 21 -29 46 -51 l47 -41 61 78 c198 251 311 504 351 787
13 85 12 318 0 410 -36 269 -93 441 -213 648 -20 34 -26 34 -83 -3z"/>
</g>
</svg>
