<svg id="Layer_1" data-name="Layer 1" xmlns="http://www.w3.org/2000/svg" xmlns:xlink="http://www.w3.org/1999/xlink" viewBox="0 0 1920 1080"><defs><style>.cls-1,.cls-34,.cls-5{fill:none;}.cls-2{fill:#f8d360;}.cls-3{fill:#8f8f8f;}.cls-4{fill:#c2c2c2;}.cls-34,.cls-5{stroke:#666;stroke-miterlimit:10;}.cls-6{fill:#2a2a2a;}.cls-7{fill:#737373;}.cls-8{fill:#808281;}.cls-9{fill:#353535;}.cls-10{fill:#a6a9a6;}.cls-11{fill:#3f3f3f;}.cls-12{fill:#d4d4d4;}.cls-13{fill:#696969;}.cls-14{fill:#999b9a;}.cls-15{fill:#4e4e4e;}.cls-16{fill:#868686;}.cls-17{fill:#4a4a4a;}.cls-18{clip-path:url(#clip-path);}.cls-19{fill:#3c3c3d;}.cls-20{fill:#b8b8b8;}.cls-21{fill:#c5c6c5;}.cls-22{fill:#bdbdbd;}.cls-23{fill:#727272;}.cls-24{fill:#c2c3c2;}.cls-25{fill:#adadad;}.cls-26{fill:#bababa;}.cls-27{fill:#d2d2d2;}.cls-28{fill:#aeaeae;}.cls-29{fill:#c6c6c6;}.cls-30{fill:#afafaf;}.cls-31{fill:#404040;}.cls-32{fill:#d1d1d1;}.cls-33{fill:#666;}.cls-34{stroke-width:6px;}</style><clipPath id="clip-path"><polygon class="cls-1" points="1384 386.93 1848.69 301.12 1848.69 488.12 1384 500.09 1384 386.93"/></clipPath></defs><rect class="cls-2" x="-11.94" y="-58.97" width="1979.94" height="1183.97"/><polygon class="cls-3" points="841.87 865.81 850.44 845.83 1050.27 843.92 1059.2 865.81 841.87 865.81"/><polygon class="cls-4" points="851.19 845.82 863.76 809.67 1039.81 807.76 1050.27 843.92 851.19 845.82"/><path class="cls-5" d="M1018,755.1a67.43,67.43,0,0,0-10,15.76"/><path class="cls-5" d="M1036.24,720.14c-3.28,18.57-14.55,33.19-16,32.69s6.38-16,7.67-34.56"/><rect class="cls-6" x="883.54" y="567.01" width="8.01" height="163.76"/><rect class="cls-6" x="1009.11" y="567.01" width="8.01" height="166.18"/><rect class="cls-6" x="887.55" y="569.88" width="125.57" height="8.01"/><rect class="cls-6" x="887.55" y="605.01" width="125.57" height="8.01"/><rect class="cls-6" x="887.55" y="639.53" width="125.57" height="8.01"/><rect class="cls-6" x="887.55" y="677.7" width="125.57" height="8.01"/><polygon class="cls-6" points="884.42 828.22 876.41 828.22 876.41 701.83 885.27 680.16 892.68 683.19 884.42 703.4 884.42 828.22"/><polygon class="cls-6" points="1026.21 829.65 1018.2 829.65 1018.2 704.83 1009.93 684.62 1017.34 681.59 1026.21 703.25 1026.21 829.65"/><rect class="cls-6" x="1013.93" y="755.43" width="8.01" height="74.22"/><rect class="cls-6" x="880.69" y="755.43" width="8.01" height="72.26"/><polyline class="cls-7" points="886.64 755.42 1017.96 755.42 1017.97 742.88 884.7 742.88 884.7 755.42"/><path class="cls-6" d="M1021.16,758.63H886.64v-3.2h-5.15V739.68h139.68ZM887.9,752.22h126.86v-6.13H887.9Z"/><path class="cls-8" d="M885.17,742.58q.95-6.2,1.9-12.37l126.57.95q1.89,6.18,3.8,12.37Z"/><path class="cls-6" d="M1021.79,746.77l-140.35-1L884.33,727,1016,728ZM888.9,739.4l124.19.9-1.83-5.95-121.44-.92Z"/><path class="cls-6" d="M411.59,747.61c-1.36,0-2.12,10.77-5.71,34.26-3.3,21.61-4.19,22.53-6.66,40.92A290.92,290.92,0,0,0,396.37,859c-.05,3.15,0,5.78,0,7.61,3.49,1.85,5.85,4.75,5.71,7.61-.25,4.85-7.56,7-9.52,7.62-5.56,1.66-13.26,1.13-18.08-3.81a17.94,17.94,0,0,1-3.81-6.66,33.52,33.52,0,0,1-1.9-14.28c.39-8.48-1.31-7.65-2.85-24.74a282.63,282.63,0,0,1-1-30.45c.24-27.58-.69-53.72-.95-60-1.86-46-8.58-48.88-8.56-86.59,0-3.71.07-21.5.95-44.73.33-8.76.69-16,1-20.93-9.63-7.79-14-15.72-16.17-20.94-3-7.14-3.24-16.49-3.81-35.21-.35-11.64-.14-21,0-26.64.22-8.9.61-16.39.95-21.89a154.77,154.77,0,0,1,18.08-9.52c6.64-2.94,10.13-3.89,15.23-7.61s5.35-5.49,9.51-8.56c3.5-2.58,9.14-5.62,18.08-6.66a165.06,165.06,0,0,0,58,27.59c1.87,5.93,4.53,14.45,7.61,24.74,7.81,26.07,8.32,30,8.57,33.31,1.13,15.11-2.39,27.13-4.76,35.21a121.69,121.69,0,0,1-11.42,26.64c-.64,8.57-1,17.79-.95,27.6,0,8.39.39,16.33.95,23.79l-5.71,2.85c-.34,6.46-.93,16.4-1.9,28.55-1.6,20-3,30.69-3.81,39-.89,9.15-1.42,19.18,1.9,82.79.68,13,1.62,30.16,2.86,50.43,18.3,2.66,19.94,5.47,20,6.66.11,2.78-8,6-15.22,6.66-7.52.71-8.82-1.85-19-2.85-12-1.18-19.24,1.45-20.93-1.9-.88-1.74.81-2.93,1-7.62.13-4.21-1.12-6.85-1.9-9.51-1.78-6-.74-10.64,0-17.13,2.07-18.18.8-42.64,0-58.05C414,763,413.21,747.66,411.59,747.61Z"/><path class="cls-9" d="M374.48,439.29a25.66,25.66,0,0,1-9.52-3.8c-1.95-1.3-6.73-4.46-6.66-7.62.09-3.94,7.8-7.85,19-9.51a23.13,23.13,0,0,1,0-10.47c1.92-8.13,9-17.36,19-18.08,10.49-.75,21.22,8.06,22.84,20.94,11.17-2,19.32-1,20.93,2.85.25.59,1,2.75-2.85,8.56a46.6,46.6,0,0,1-19,16.18C403.78,444.84,390.93,442.41,374.48,439.29Z"/><path class="cls-10" d="M388.75,470.7a54.87,54.87,0,0,0,0-13.33c-.87-7.16-1.42-11.64-4.75-15.22-4.22-4.54-8.94-3.38-10.47-7.61-1-2.84-.1-6.62,1.9-7.62,2.34-1.16,5.14,2,6.66.95,1.71-1.15-2.86-7-.95-9.51.93-1.24,2.84-1,5.71-.95,2.25.06,10.2.3,16.18-1,6.89-1.44,9.06-4.43,12.37-2.85,1.45.69,2.26,2.06,3.81,4.76,2.46,4.28,5.05,8.8,4.75,14.27-.17,3.26-1.19,3.34-3.8,10.47a111,111,0,0,0-3.81,13.32,87.43,87.43,0,0,0-1.9,18.08c-11.61,5.83-21.62,6.19-24.74,1.91C389.06,475.51,388.28,473.83,388.75,470.7Z"/><path class="cls-10" d="M430.63,596.31c-1.85-.66-2.13-.36-9.52-1-8.55-.69-8.25-1.1-10.47-1-7.72.53-14.84,5.79-14.27,7.62.31,1,3.23,1.62,14.27,0-1.46,1.83-3.7,4.52-6.66,7.61-4,4.18-5.93,5.55-5.71,7.61.14,1.33,1,1.66,5.71,5.71s4.73,4.55,6.66,5.71a21.63,21.63,0,0,0,8.57,2.86,19,19,0,0,0,0,9.51c.68,2.63,1.69,6.49,4.75,7.61,3.43,1.26,7.19-1.75,8.57-2.85,2.79-2.23,4-5,5.71-8.56,1.27-2.76,1.9-4.14,1.9-5.71,0-5.09-5.33-8.68-6.66-9.52a17.89,17.89,0,0,0,5.71-7.61,13.81,13.81,0,0,0,.95-8.57C438.5,599.24,431.47,596.61,430.63,596.31Z"/><path class="cls-11" d="M414.45,534.45c-1.59.08-2.7-6.44-7.61-19a204.15,204.15,0,0,0-8.57-19l3.81-23.79h10.46q3.34,11.41,6.67,22.84C418,527.48,416.06,534.37,414.45,534.45Z"/><path class="cls-12" d="M401.13,504a59.37,59.37,0,0,1,3.8-32.35,41.52,41.52,0,0,1-7.61-4.76c-6.9-5.44-9.61-11.2-11.42-10.47-1.24.5-1.07,3.67-.95,5.71a27.73,27.73,0,0,0,2.85,10.47c2.49,5.46-5.06-10.3,5.71,14.27C395.74,492,398.29,497.71,401.13,504Z"/><path class="cls-12" d="M419.21,499.24q-2.41-5.52-4.76-11.42-3.1-7.8-5.71-15.22a12.46,12.46,0,0,0,3.8-2.86c3.14-3.5,2.95-7.58,3.81-7.61.56,0,1.88,1.66,2.86,11.42A132.75,132.75,0,0,1,419.21,499.24Z"/><polygon class="cls-13" points="184.16 417.41 187.02 566.81 243.88 566.81 239.35 420.26 184.16 417.41"/><polygon class="cls-14" points="248.87 483.07 270.98 479.29 243.88 389.76 222.22 394.57 248.87 483.07"/><polygon class="cls-15" points="208.9 454.52 249.77 454.52 261.24 476.4 208.9 479.29 208.9 454.52"/><polygon class="cls-16" points="199.39 391.71 226.98 484.97 252.13 479.29 227.78 391.71 199.39 391.71"/><polyline class="cls-15" points="199.39 391.71 222.22 386.84 246.6 387.81 228.21 393.24"/><path class="cls-17" d="M235.55,366c-2.79-7.15-3.32-9.09-5.71-11.42-3.15-3.06-7.87-5.19-9.52-3.81s.77,5.22-.95,6.67c-1.56,1.31-5.32-.38-7.61-1.91-5.82-3.89-5.52-9-8.57-9.51-3.45-.56-8.48,5.29-9.51,11.42s2.26,11.32,6.66,18.08c3.27,5,5.62,8.64,10.47,11.42A23.12,23.12,0,0,0,227,389.81c1.14-.24,11.54-2.59,13.33-9.52C240.85,378.16,240.06,377.63,235.55,366Zm-13.32,13.32c-2.49.72-6.26-4.22-7.62-8.56-.32-1-1.69-5.4,0-6.66,1.92-1.43,7.69,1.17,9.52,5.71C225.66,373.61,224.43,378.7,222.23,379.34Z"/><polygon class="cls-6" points="1384 386.93 1848.69 301.12 1848.69 488.12 1384 500.09 1384 386.93"/><g class="cls-18"><path class="cls-19" d="M1410.8,500.26a45.2,45.2,0,0,1,4.4-15.41,41,41,0,0,1,9.9-13.2c3.61-3.14,6.81-4.66,13.21-7.7a85,85,0,0,1,17.6-6.6,75,75,0,0,1,18.7-2.2,78.86,78.86,0,0,1,16.51,2.2c19.14,5.09,45.35,32.64,40.7,46.21-3.82,11.18-30.54,18.47-122.12,6.6"/><path class="cls-20" d="M1466.91,406.74c-1.58-1.21-7.4-5.65-14.3-4.4-10.51,1.89-14.45,14.55-15.4,17.6-3,9.75-.23,18.19,1.1,22,1.54,4.43,5.09,8.81,12.1,17.6,6.31,7.92,8.1,8.85,9.9,8.8,3.69-.11,6.18-5,9.9-12.1a53.1,53.1,0,0,0,5.5-14.3c1-4.6,2.63-12.1,0-20.91C1474.6,417.3,1472.78,411.19,1466.91,406.74Z"/><path class="cls-10" d="M1453.71,407.84c-1.87.06-1.91,1-7.7,4.4-6.06,3.52-9.48,5.51-11,4.4-2-1.49-.83-8.69,3.31-13.2,1.24-1.35,4.15-4,15.4-5.5s23.2-3.1,27.5,3.3c1.42,2.1,1.32,4.7,1.1,9.9-.34,8.55-2.72,21.79-6.6,22-1.9.11-2.49-3-7.7-11C1462.6,413.85,1458.47,407.69,1453.71,407.84Z"/><path class="cls-21" d="M1437.21,502.46c-3.31-3.6-1.33-10.37,1.1-18.71,1.86-6.41,2.81-6.24,4.4-12.1,2.84-10.55.3-13.07,3.3-16.5,2.31-2.65,4.24-1.62,18.7-4.4,9-1.73,11.49-2.76,13.2-1.1,3.06,2.94-.12,10.8-1.1,13.2-4.12,10.18-9.25,10-15.4,19.8-6.84,10.94-4.5,17.57-11,20.91C1446.13,505.75,1440,505.5,1437.21,502.46Z"/><path class="cls-19" d="M1488.92,503.56c0-.1-.06-.27-.13-.59a39.56,39.56,0,0,1,1.23-19.22c2.07-6,5.43-9.54,9.9-14.3,10.46-11.13,14.6-8.61,20.9-17.6,4.15-5.92,5.9-12.07,9.9-12.1,1.82,0,2.4,1.24,5.51,2.2a19.08,19.08,0,0,0,9.9,0c8.55-1.57,21.53,9.87,25.3,13.2,18.46,16.27,30.63,41,34.11,48.41C1504.54,512.8,1490,507.57,1488.92,503.56Z"/><path class="cls-22" d="M1492.22,397.94c-6.29,2.31-8.82,2.69-11,5.5-.59.75-2.91,3.95-2.2,13.2.78,10,3.86,11.06,7.71,25.31,2.24,8.31,2.12,11.4,5.5,14.3,2.77,2.37,3.85,1.14,11,4.4,6.76,3.08,7.6,5,13.2,6.6,3.57,1,6,1.72,8.8,1.1,8.46-1.9,12-14.44,13.21-18.7a46.64,46.64,0,0,0,0-24.21,53.91,53.91,0,0,0-8.81-18.7c-5.83-8.41-11.07-16-18.7-16.5C1506.24,389.9,1506.64,392.63,1492.22,397.94Z"/><path class="cls-23" d="M1496.62,402.34c-5.57,1.76-6.84,5.45-12.11,5.5-4,0-8.63-2.09-8.8-4.4-.14-2,3-3.19,14.31-8.8,13.34-6.61,14.8-7.76,18.7-7.71,6.28.1,10.91,3.21,14.3,5.51,2.7,1.81,10.1,7,13.21,16.5,2.63,8.11,1.71,18-1.1,18.7-1.1.29-2.2-.88-7.71-7.7-9.79-12.13-9.87-12.82-12.1-14.3C1510.89,402.68,1503.39,400.19,1496.62,402.34Z"/><path class="cls-24" d="M1529.62,448.55c-4.2,6.77-6.3,10.16-9.9,12.1-3.92,2.11-6.24,1.06-12.1,4.4-2.47,1.41-3.71,2.12-4.4,3.3-3.29,5.64,4.4,14.64,8.8,19.8,1,1.2,2,2.28,3.3,2.21,2.51-.15,3.72-5.12,5.5-9.91,2-5.29,4.25-9,8.8-16.5,7.16-11.75,12.43-14.92,11-19.8-.66-2.25-2.59-4.43-4.4-4.4C1534,439.77,1533.08,443,1529.62,448.55Z"/><path class="cls-19" d="M1548.33,511.26c-4.29-11.23,10.11-32.8,11-34.11a68.18,68.18,0,0,1,13.2-14.3c4.62-3.86,13.06-10.92,23.11-13.2,15.83-3.59,30,6,40.71,13.2,6.33,4.27,38.24,25.82,34.1,41.81C1663.53,531.38,1557.68,535.74,1548.33,511.26Z"/><path class="cls-25" d="M1627.54,395.74a33.18,33.18,0,0,0-15.4-11c-6.1-2-11.09-1.51-15.4-1.1-6.77.66-14,1.36-17.61,6.61-1.39,2.06-1.68,4.7-2.2,9.9a81.51,81.51,0,0,0,0,15.4c.93,10.8,1.39,16.2,3.3,20.9,3.12,7.65,5.64,6.64,11,16.51,5.68,10.45,4.86,15.3,8.8,16.5,4.76,1.46,11.88-3.82,14.3-9.9,1.8-4.51-.22-6.36,1.1-11,2.19-7.68,9.21-7.92,14.3-14.31C1637.44,424.59,1636,406.83,1627.54,395.74Z"/><path class="cls-26" d="M1590.14,389.13a16.2,16.2,0,0,0-6.61,5.51c-5,6.42-3.91,13.08-5.5,13.2s-4-6.45-4.4-13.2c-.21-4.11-.6-11.54,4.4-17.61,4.72-5.72,11.45-6.85,16.51-7.7,8.53-1.43,15.24.34,22,2.2,14.48,4,21.84,5.51,24.21,11,4.17,9.69-6.34,24.84-12.11,24.21-2.47-.27-2.58-3.29-7.7-7.7-3.77-3.25-7.22-4.64-12.1-6.6C1600.44,389.05,1595.35,387,1590.14,389.13Z"/><path class="cls-27" d="M1592.34,457.35c-2.69-.32-5.15,3.34-6.6,5.5a21.8,21.8,0,0,0-3.31,14.3c.32,3.43.71,7.58,3.31,8.8s4.76-2.48,12.1-6.6c7.09-4,8.15-2.46,12.1-5.5,7.42-5.71,9.53-16.46,7.7-17.6-2.37-1.48-11.28,13.25-17.6,11C1595.79,465.74,1596.16,457.8,1592.34,457.35Z"/><path class="cls-19" d="M1620.94,498.06c-.34-4,5.09-14.65,6.6-17.61,1.76-3.43,3.51-6.26,4.4-7.7a110.89,110.89,0,0,1,7.71-11c4.76-5.67,14.21-12.93,26.4-14.3,9.35-1.06,16.5,1.78,23.11,4.4a69.65,69.65,0,0,1,20.9,13.2c9.42,8.57,28.45,30.48,23.1,42.91C1722.73,532.21,1622.28,514,1620.94,498.06Z"/><path class="cls-28" d="M1658.35,370.43c-5.7-.83-13.17-1.92-19.8,2.2-6.47,4-8.55,10.75-11,18.71-3,9.54-2.6,17.39-2.2,26.4.39,8.65,1.6,12.56,2.2,14.3a35.83,35.83,0,0,0,7.71,13.21c4.53,4.82,6.11,3.52,9.9,7.7,6.51,7.19,4.6,14.09,8.8,15.4,1.69.53,5.55-2.21,13.2-7.7s11.61-8.38,12.1-11c.62-3.26-1.5-3.82-3.3-11a44.13,44.13,0,0,1-1.1-14.3c.37-3.78,1.08-4.77,3.3-12.1,3.35-11,5-16.55,4.4-20.9a25,25,0,0,0-7.7-14.31C1669.39,372,1663.25,371.15,1658.35,370.43Z"/><path class="cls-16" d="M1651.75,373.73c-3.12-.32-4,.38-8.8,0-3.27-.25-8.53-.67-8.81-2.2-.33-1.84,6.58-5.25,13.21-6.6a37.19,37.19,0,0,1,22,2.2c5.33,2.34,11.24,4.26,15.41,9.9,6.68,9.06,4.09,20.18,1.1,33-1.35,5.78-3.33,13.1-7.71,14.3-2,.55-4.29-.8-5.5-2.2-2.44-2.83-.93-6.54,0-15.4.81-7.67,1.21-11.5,0-15.4a25.07,25.07,0,0,0-8.8-12.11C1661.9,377.69,1657.69,374.35,1651.75,373.73Z"/><path class="cls-29" d="M1648.45,454.05c-1.26-.46-4,3.68-5.5,6.6a33.53,33.53,0,0,0-3.3,9.9l8.8-2.2q.54,5.5,1.1,11c5.38-5.35,10-9.38,13.2-12.1,4.17-3.51,7.91-7.52,12.1-11,3.61-3,5.72-4.51,5.5-6.6-.26-2.6-4-5.07-6.6-4.4-1.36.34-1.89,1.42-3.3,3.3a41.72,41.72,0,0,1-7.7,7.7c-4.67,3.77-6.71,6-8.8,5.5s-3.64-2.65-4.4-4.4S1649.09,454.28,1648.45,454.05Z"/><polygon class="cls-1" points="1384 386.93 1848.69 301.12 1848.69 488.12 1384 500.09 1384 386.93"/><path class="cls-30" d="M1734.27,357.23c7.52-5.41,16.28-4.37,25.3-3.3,11.33,1.34,19.62,2.33,26.41,8.8,9.09,8.67,9.54,21.53,9.9,31.91.18,5.1-1,12.57-3.3,27.5-1.91,12.25-3,16.18-4.4,19.81-2.92,7.71-5.44,14.38-12.11,18.7-3.1,2-8.7,2.38-19.8,3.3-11.93,1-13.88,0-14.3-1.1-.71-1.81,3.08-3.18,4.4-7.7,1.68-5.75-2.06-11.69-4.4-15.4-3.78-6-6.61-7.11-9.91-11-5.1-6-6-14.65-7.7-31.9-1.95-19.42.09-25.08,1.1-27.51C1726.78,366.18,1729,361,1734.27,357.23Z"/><path class="cls-31" d="M1737.57,363.83a11.18,11.18,0,0,1-6.61,0c-2.11-.74-5.06-2.67-5.5-5.5-.69-4.54,5.57-8.22,6.6-8.8,3.62-2,6.54-1.87,12.11-2.2,9.81-.6,8.16-1.6,17.6-2.2,10.34-.66,15.5-1,20.9,1.1,2.26.87,9.87,3.81,13.21,11,1.84,4,.38,4.93,1.1,14.3.94,12.31,3.87,16.06,1.1,22-.4.84-2.57,5.5-5.5,5.5-3.47,0-6.13-6.51-8.8-13.21-4.56-11.42-3-14.13-6.61-17.6-3.25-3.16-8-3.57-17.6-4.4C1748.65,362.89,1743.18,362.41,1737.57,363.83Z"/><path class="cls-32" d="M1742,443.05c3.92-.4,6.76,12.52,12.1,12.1,1.28-.1,1.83-.9,4.4-3.3,1.38-1.29,4.59-3.79,11-8.8,7.45-5.82,6.54-4.27,12.1-8.81,3.79-3.08,4.58-4.09,6.61-4.4,4.32-.64,8.14,2.87,11,5.5,2.7,2.5,7.89,7.27,8.8,13.21s-2.77,11.41-14.3,23.1c-18.4,18.67-27.6,28-40.71,31.91-2.06.61-22.35,6.47-27.51-1.1-2.14-3.16-.33-9.44,3.3-22,2.22-7.65,2.8-7.91,5.51-16.5C1738.83,449.43,1739.31,443.31,1742,443.05Z"/><path class="cls-19" d="M1698,498.06c-2.29-5.73,4-13.51,9.9-20.91,4.8-6,9.81-9.77,14.3-13.2a114.8,114.8,0,0,1,15.41-9.9,10.74,10.74,0,0,1,3.3,6.6c.22,3.65-2,5.53-4.4,9.9-1.56,2.8-2,7.05-3.31,15.4-1.8,12.05-.89,12.47-2.2,14.31C1725.07,508.56,1701.54,507,1698,498.06Z"/><path class="cls-19" d="M1756.27,500.26c-1-5.44,2.55-12.64,5.5-18.71a49.34,49.34,0,0,1,8.8-13.2c5-5.21,6.28-4,14.31-11,6.39-5.57,9.61-8.45,11-13.2,1.31-4.5.32-7.95,2.2-8.81s4.76,1.85,7.7,4.41c0,0,.77.66,16.5,12.1,12.78,9.28,17,5.06,24.21,12.1,6.22,6.05,10.22,16.11,8.8,25.31-2.72,17.56-24.2,25.48-29.71,27.5C1796.05,527.63,1758.85,515,1756.27,500.26Z"/></g><path class="cls-33" d="M1382.15,502V385.39l1.52-.28,466.87-86.22v191l-1.8,0Zm3.71-113.52V498.19l461-11.87v-183Z"/><path class="cls-5" d="M880.26,726.19a72.84,72.84,0,0,0,37.4-13.6c31.6-23.27,30.24-64.5,30-68.57"/><path class="cls-5" d="M1027.9,718.27c.69-9.94-.49-20.75-6-30.61a48.53,48.53,0,0,0-11.33-13.6"/><path class="cls-5" d="M1014,643.46c1.81,5.36,4.65,13.47,8.5,23.23,8.24,20.87,11,23.82,13,31.17a51.06,51.06,0,0,1,.71,22.28"/><path class="cls-5" d="M1008,770.86c-4.38,9.85-5.24,19.47-1.9,26.74a27.59,27.59,0,0,0,7.93,10.2c5.92,4.26,8.93,1.79,17,5.66a36.66,36.66,0,0,1,14.73,12.47c3,4.58,2.74,6.89,5.67,9.07,4.28,3.19,10.31,2.34,14.74,1.13"/><path class="cls-3" d="M1066.14,846.33c0-.2-.08-.4-.11-.6v-.06a28.71,28.71,0,0,1,4.65-20.87c.47-.67,8.47-11.66,19.27-11.34,11.42.35,23.23,13.3,23.8,31.74h-47.6"/><path class="cls-34" d="M1089.94,845.2V813.46"/></svg>