<svg id="Layer_1" data-name="Layer 1" xmlns="http://www.w3.org/2000/svg" viewBox="0 0 410.31 551"><defs><style>.cls-1{fill:#010101;}.cls-2{fill:#cdcce7;}.cls-3{fill:#28292f;}</style></defs><polygon class="cls-1" points="410.31 551 -0.43 551 -0.69 0 410.31 0 410.31 551"/><path class="cls-2" d="M156.9,214.23c-6-.31-15.35-.79-26.77-1.29-28.19-1.23-42.29-1.84-43.65-1.73-10.24.88-19.17,2.73-30.5-1.45-1.92-.71-9.6-3.54-9.34-6.39.17-1.84,3.66-3.79,24.69-6.7,8.77-1.21,20.32-2.55,34.07-3.45-9.35-1.3-14.55-8.43-13.47-13.55,1-4.75,7.24-6.95,7.81-7.15-5.45-1.34-8.45-6.9-7-11.54a9.27,9.27,0,0,1,10.08-6c-3.75-2.29-8.13-5.56-7.62-8.54,1.07-6.11,22.11-7.13,27.36-7.39a128.24,128.24,0,0,1,42.28,5.21Q160.89,179.24,156.9,214.23Z"/><path class="cls-2" d="M155,216.58a484.87,484.87,0,0,1,61.43,2.14c30.3,3,45.69,4.66,58,14.17,25.8,20,25.41,54.9,25.37,56.32-1,37.12-31.56,57.7-35.52,60.26-4.52,2.94-18.41,11.23-71,11.95a584.64,584.64,0,0,1-73.51-4.09c-28-3.16-68.69-6.72-120.19-7.55l.05,100.5c16.32,1,40,2.32,68.89,3,13.44.33,24.65.49,28.9.45,20.59-.18,68.23-.87,122-14,70.74-17.23,111.32-27.12,137.43-65.06C390.41,325.76,375.23,266,373,257.6s-14.15-49.45-52.66-79.29c-26.17-20.27-52-25.58-90.71-33.54a396.35,396.35,0,0,0-80.2-8.12"/><path class="cls-3" d="M149.39,109Q152.17,149,155,189"/><polygon class="cls-1" points="155.62 188.9 154.28 216.62 148.71 136.7 150.06 108.98 155.62 188.9"/><path class="cls-2" d="M-.59,218c25.07-1.2,43.87-6.65,44.49-13.25.63-6.75-17.7-16-44.51-21.67Z"/></svg>