<svg id="Слой_1" data-name="Слой 1" xmlns="http://www.w3.org/2000/svg" xmlns:xlink="http://www.w3.org/1999/xlink" viewBox="0 0 1920 1080"><defs><style>.cls-1{fill:none;}.cls-2{clip-path:url(#clip-path);}.cls-3{fill:#fff;}.cls-4{fill:#35462c;}.cls-5{fill:#fee288;}.cls-6{fill:#fa4741;}.cls-7{fill:#e9e2d9;}</style><clipPath id="clip-path"><rect class="cls-1" x="0.5" y="-0.5" width="1920" height="1080"/></clipPath></defs><title>Монтажная область 19</title><g class="cls-2"><g id="back1"><rect class="cls-3" x="-15" y="-7.41" width="1950" height="1092.81"/><polygon class="cls-4" points="145.63 40.52 1189.77 1013.48 47.3 1013.48 145.63 40.52"/><polygon class="cls-5" points="1804.07 927.25 1848.21 182.65 1307.45 113.06 1108.81 363.58 1500.58 941.17 1804.07 927.25"/><path class="cls-6" d="M582.42,275.37c8.68-10.64,123.27,37.37,134.51,24.36,13.85-16-145.69-106.06-134.51-118.3,11.79-12.91,196.83,78.7,218,59.15C821.91,220.72,655.79,103.24,670.54,91c18.13-15.08,292.18,142.66,292.21,142.66h0S800.43,418,800.41,418h0S569.61,291.07,582.42,275.37Z"/><path class="cls-5" d="M735.48,859.93c38,42.9,71,58.93,78.85,62.63,17.06,8,73.56,33.71,148.42,24.35,4-.5,79.24-10.76,129.87-59.15a172.11,172.11,0,0,0,37.1-52.19c9.76-20.8,12.32-37.58,13.92-48.71,20.48-142.36,6.65-187.27,0-205.29a132.44,132.44,0,0,0-18.55-34.8c-21.16-28.36-49.82-44.08-64.94-52.19a299.39,299.39,0,0,0-120.59-34.79C833.86,452.26,757.8,503,744.76,512,661.55,569.5,658,648.4,656.63,679,652.7,766.56,707.77,828.67,735.48,859.93Z"/><path class="cls-7" d="M1187,676c-29.7,0-57.54-3.52-84.9-7h0c-45.74-5.8-108.37-13.74-170.92-49.67-9.84-5.65-39.78-22.86-68.46-51.44C824.38,529.69,803.41,485.47,802,440c-1.35-44.71,15.51-87.21,50.11-126.32,26.22-29.65,56.1-49.87,72.15-60.73,28.87-19.53,105.56-71.4,215.57-68.72,121.42,3,198.39,70.45,231.25,99.26,27.17,23.82,83.71,73.39,90.8,152.26,5.2,57.75-19.05,102.63-34,124.25-15.92,23.06-62.81,79.4-154.33,104.53A322.1,322.1,0,0,1,1187,676Zm-76-77.43h0c47.41,6,92.19,11.69,143.83-2.49,69-18.95,103.2-59.74,114.69-76.4,9.47-13.72,24.88-42,21.69-77.56-4.55-50.57-45.1-86.13-66.89-105.23-29.37-25.74-90.49-79.32-186.19-81.67-87.35-2.14-148.09,39-174,56.54-14.39,9.75-38.49,26-58.77,49-22.54,25.49-33.11,50.72-32.32,77.14.83,27.41,14.22,54.24,39.81,79.74,22,22,45.88,35.67,53.71,40.16,50.22,28.85,102.48,35.48,144.48,40.8Z"/></g></g></svg>