<svg id="Layer_1" data-name="Layer 1" xmlns="http://www.w3.org/2000/svg" xmlns:xlink="http://www.w3.org/1999/xlink" viewBox="0 0 2560 1600"><defs><style>.cls-1{fill:none;}.cls-2{clip-path:url(#clip-path);}.cls-3{fill:#2f7eba;}.cls-4{fill:#eae6db;}.cls-5{fill:#fa592f;}</style><clipPath id="clip-path"><rect class="cls-1" width="2560" height="1600"/></clipPath></defs><g class="cls-2"><rect class="cls-3" x="-32" width="2638" height="1621"/><path class="cls-4" d="M-18,208.69a1171.3,1171.3,0,0,0,170,11.53c56.71-.25,72.11-4.4,146-6.52,97.68-2.79,107.76,3.4,187,1.51,100.16-2.4,99.4-12.66,210-18.56a1924.82,1924.82,0,0,1,228,1.51c128.2,8.75,138.84,23.77,224,20.56,86.23-3.25,89.2-19.17,167-18.56,84.82.68,97.48,19.73,190,23.57,67.78,2.82,67.27-7.14,173-12,119.29-5.52,127.85,6.79,248,2,97-3.86,108.1-12.55,194-13.54,81.92-.94,83.14,9.56,177,10,70.72.36,96.13-4.52,166-1.5,48.22,2.08,87.06,6.6,112,10v.85c-24.94,3.43-63.78,8-112,10-69.87,3-95.28-1.86-166-1.5-93.86.47-95.08,11-177,10-85.9-1-97-9.68-194-13.55-120.15-4.78-128.71,7.53-248,2-105.73-4.89-105.22-14.85-173-12-92.52,3.85-105.18,22.9-190,23.58-77.8.61-80.77-15.31-167-18.56-85.16-3.21-95.8,11.81-224,20.56a1927.11,1927.11,0,0,1-228,1.51c-110.6-5.9-109.84-16.17-210-18.56-79.24-1.89-89.32,4.3-187,1.5-73.89-2.11-89.29-6.26-146-6.52A1172.46,1172.46,0,0,0-18,229.6"/><path class="cls-4" d="M-25,430.28A1069.49,1069.49,0,0,1,162,419.9c85.49,2.76,101.43,13.6,183,14.83,84.52,1.26,84.31-10.13,214-17.06,58.79-3.14,127-6.55,214,0,87.23,6.58,82.3,14.81,146,17.06,98,3.45,127.32-15.42,228-20,33.82-1.55,88.21,3.17,197,12.6,201.47,17.47,239.54,29.14,313,12.61,58.9-13.26,57.07-25.85,112-32.62,77.72-9.59,97,13.69,204,17.79,106.46,4.08,119.28-17.76,177,0,48.86,15,62.24,37.62,115,43,38.31,3.9,66.75-4.4,92-10.38,49-11.62,122.08-23,224-20V436.4c-101.92,3-175-8.4-224-20-25.25-6-53.69-14.29-92-10.38-52.76,5.37-66.14,28-115,43-57.72,17.75-70.54-4.09-177,0-107,4.1-126.28,27.38-204,17.79-54.93-6.77-53.1-19.37-112-32.62-73.46-16.53-111.53-4.87-313,12.6-108.79,9.44-163.18,14.15-197,12.61-100.68-4.6-130-23.47-228-20-63.7,2.24-58.77,10.48-146,17.05-87,6.56-155.21,3.14-214,0-129.69-6.93-129.48-18.32-214-17.05-81.57,1.22-97.51,12.07-183,14.83A1071.47,1071.47,0,0,1-25,443.82"/><path class="cls-4" d="M-2,709.3a711,711,0,0,0,109,4.17c50.06-2,71.31-8.2,119-11.92,51.81-4,74.85-.44,143,1.79,74.81,2.44,128.59.76,210-1.79,146.12-4.57,151.75-13,238-10.13,85.94,2.91,88.47,11.64,167,14.3,110.13,3.74,130.24-12.66,248-18.47,168.23-8.29,176.41,22.75,323,10.13,116.6-10,115.6-30,217-30.38,48.36-.17,105.9,4.65,221,14.3,60.31,5.05,62.06,6,92,7.74,83.42,4.9,144.85,2.07,197,0,64.24-2.55,156.79-5.62,279-7.74v18.4c-122.21-2.12-214.76-5.2-279-7.75-52.15-2.07-113.58-4.9-197,0-29.94,1.76-31.69,2.69-92,7.75-115.1,9.64-172.64,14.46-221,14.3-101.4-.35-100.4-20.35-217-30.39C1408.41,671,1400.23,702,1232,693.74c-117.76-5.81-137.87-22.2-248-18.47-78.53,2.67-81.06,11.39-167,14.3-86.25,2.92-91.88-5.56-238-10.13-81.41-2.55-135.19-4.23-210-1.79-68.15,2.23-91.19,5.84-143,1.79-47.69-3.72-68.94-10-119-11.91A708.46,708.46,0,0,0-2,671.7"/><path class="cls-4" d="M2591,934.27c-79.82,1.05-143.39,6.33-187,11-102.39,11-142.89,23.86-207,14.15-49.49-7.5-47.8-18.57-105-26.72-38.19-5.44-67.26-4.54-153,0-113.22,6-124.49,15.49-180,10.48s-58.88-15.33-106-15.72c-55.82-.46-78.17,13.81-132,23-59.73,10.26-81.89,1.22-207-3.67-79.23-3.09-56.88,1.06-255,0-126.24-.67-189.35-1-228-3.66-111.28-7.65-135.87-18.62-204-12-74.71,7.2-78.59,23.61-149,29.86-78.41,7-123.92-8.94-204-19.38-64.64-8.43-161.45-14.57-292,0v7.08c130.55,14.57,227.36,8.43,292,0,80.08-10.44,125.59-26.34,204-19.38,70.41,6.25,74.29,22.66,149,29.86,68.13,6.57,92.72-4.4,204-12,38.65-2.65,101.76-3,228-3.67,198.12-1.05,175.77,3.1,255,0,125.11-4.88,147.27-13.92,207-3.66,53.83,9.24,76.18,23.51,132,23.05,47.12-.39,50.55-10.71,106-15.72s66.78,4.48,180,10.48c85.74,4.54,114.81,5.44,153,0,57.2-8.15,55.51-19.22,105-26.72,64.11-9.71,104.61,3.16,207,14.15,43.61,4.67,107.18,10,187,11"/><path class="cls-4" d="M2597,1201c-128.22,7.18-232.93,8.55-306,8.41-132.46-.24-156.09-5.4-268-1.6-82.93,2.82-120.74,7.38-221,8.41-55.94.57-86.47-.41-153-1.6-164.69-3-247-4.43-319-2.4-214.33,6-213.13,34.92-340,22.82-70.2-6.69-125.71-20.85-241-22.82-17.48-.3-59.56.59-143,2.4-178.06,3.85-176,5-214,4.4-100.33-1.53-114.68-9.45-221-13.61-83.58-3.28-155.76-1.56-211,1.2v-2.28c55.24,2.76,127.42,4.48,211,1.2,106.32-4.16,120.67-12.08,221-13.61,38-.58,35.94.55,214,4.4,83.44,1.81,125.52,2.7,143,2.4,115.29-2,170.8-16.13,241-22.82,126.87-12.1,125.67,16.81,340,22.82,72,2,154.31.55,319-2.4,66.53-1.19,97.06-2.17,153-1.6,100.26,1,138.07,5.59,221,8.41,111.91,3.8,135.54-1.36,268-1.6,73.07-.14,177.78,1.23,306,8.41"/><path class="cls-4" d="M-58,1460.9c34,1.08,88.75,2.1,156,0,135.1-4.22,160.21-16.05,248-11.48,93.62,4.87,97.55,20,177,18.47,81.19-1.57,83.37-17.5,166-20.47,89.7-3.23,103.1,15,208,13.48,66.24-1,63.53-8.24,139-11.48,80.78-3.47,96.09,4.36,228,10,116.48,5,174.72,7.45,238-1.49,76.78-10.85,80.21-24.05,152-31,51.71-5,73.2-.38,194,8.49,19.8,1.45,146.35,10.62,289,15.47,48.93,1.67,105.24,3.58,177,3.5,76.6-.09,179.7-2.47,302-12v8c-122.3-9.51-225.4-11.89-302-12-71.76-.08-128.07,1.83-177,3.5-142.65,4.85-269.2,14-289,15.47-120.8,8.87-142.29,13.47-194,8.49-71.79-6.91-75.22-20.11-152-31-63.28-8.94-121.52-6.46-238-1.49-131.91,5.62-147.22,13.45-228,10-75.47-3.24-72.76-10.53-139-11.48-104.9-1.5-118.3,16.71-208,13.48-82.63-3-84.81-18.9-166-20.47-79.45-1.53-83.38,13.6-177,18.47-87.79,4.57-112.9-7.26-248-11.48-67.25-2.1-122-1.08-156,0"/><circle class="cls-5" cx="368" cy="356" r="197"/></g></svg>