<svg id="Слой_1" data-name="Слой 1" xmlns="http://www.w3.org/2000/svg" xmlns:xlink="http://www.w3.org/1999/xlink" viewBox="0 0 1920 1080"><defs><style>.cls-1{fill:none;}.cls-2{clip-path:url(#clip-path);}.cls-3{fill:#dbd8c8;}.cls-4{fill:#328b41;}.cls-5{fill:#d3b747;}.cls-6{fill:#db5634;}</style><clipPath id="clip-path"><rect class="cls-1" x="0.5" y="-0.5" width="1920" height="1080"/></clipPath></defs><title>Монтажная область 18</title><g class="cls-2"><g id="back2"><rect class="cls-3" y="4" width="1920" height="1076"/><polygon class="cls-4" points="1131.28 1196.31 1416.37 -42.53 1893.24 211.45 1131.28 1196.31"/><polygon class="cls-5" points="42.47 173.91 1417.56 45 294.57 746.87 42.47 173.91"/><polygon class="cls-6" points="526.62 1289.61 413.87 315.01 936.01 990.31 526.62 1289.61"/><path d="M1073.86,1236.32l1.53-6.66L1360.92-11.09l480.17,255.75-1.08,1.4ZM1363-6.6,1079.85,1223.68l756.69-978Z"/><path d="M356.92,766.25l-.7-1.58L103.28,189.8l2.07-.19L1486.75,60.1ZM107.7,192.4,358.27,761.87,1474.42,64.27Z"/><path d="M573.94,1252l-.29-2.56L460.28,269.51,986.66,950.29l-1.24.91ZM464.5,279.87l111.83,966.69L982.4,949.69Z"/></g></g></svg>