<svg id="Слой_1" data-name="Слой 1" xmlns="http://www.w3.org/2000/svg" xmlns:xlink="http://www.w3.org/1999/xlink" viewBox="0 0 1920 1080"><defs><style>.cls-1{fill:none;}.cls-2{clip-path:url(#clip-path);}.cls-3{fill:#16737e;}.cls-4{fill:#bfc9c5;}.cls-5{fill:#88959b;}.cls-6{fill:#063a3a;}.cls-7{fill:#010100;}</style><clipPath id="clip-path"><rect class="cls-1" x="0.5" y="-0.5" width="1920" height="1080"/></clipPath></defs><title>Монтажная область 16</title><g class="cls-2"><g id="back4"><rect class="cls-3" x="-23.22" y="-9.15" width="1967.08" height="1102.38"/><path class="cls-4" d="M1152-183q-106.1,676.5-212.18,1353H-17.64L-60.83-188.24Z"/><polygon class="cls-5" points="245.87 626.21 245.87 399.83 562.62 221.48 620.21 -73.49 -42.09 -73.49 -42.09 907.46 245.87 626.21"/><path class="cls-6" d="M1134.19,875c-74.11,38.14-77,79.41-151.17,109.76-42.37,17.33-77.85,18.77-122.39,20.58-71,2.89-151.4,6.15-201.57-41.16-37.63-35.49-18.59-62.06-57.59-96-45.84-39.94-119.6-44.57-172.77-27.44-59.28,19.1-58.87,54.27-115.18,96,0,0-59.78,44.35-381.55,61.74h0s-31.71,105.26-28.79,130.34c19.89,171.17,2070.07,200.94,2087.69,0,3.79-43.32-83.59-134.63-180-150.92-19-3.21-26.93-1.57-72,0-136.32,4.74-204.49,7.11-252-6.86-113.56-33.42-108.29-119.59-208.77-130.34C1214.16,833.89,1157.52,863,1134.19,875Z"/><path class="cls-7" d="M1543.14,693.89c2.59-90.57,24.13-102.24,13.62-158.26-3.92-20.85-11.77-41.63-27.48-83.17-8.37-22.15-35-88-26.2-66h0s2.62,50.64,2.4,87.07c-.3,51-6,51.27-9.55,117.37-2.62,49.26-3.78,74.5,3.67,104.22,10,39.8,31.54,79,40.69,76.62C1547.44,769.82,1541.71,743.92,1543.14,693.89Z"/><path d="M1645.63,566.81c-27.43,38.35-45.68,76.86-54.61,97.38-28.4,65.27-47,142.82-47,142.93h0c44.12-49.36,60.92-67.68,60.92-67.68,52.08-56.83,60.85-62.43,76.3-87.64,13.65-22.28,19.43-38.51,25.78-53.79,44.84-107.83,115.71-162.18,107.94-170.49C1806.43,418.42,1712.18,473.75,1645.63,566.81Z"/></g></g></svg>