<svg id="Layer_1" data-name="Layer 1" xmlns="http://www.w3.org/2000/svg" xmlns:xlink="http://www.w3.org/1999/xlink" viewBox="0 0 1920 1080"><defs><style>.cls-1{fill:none;}.cls-2{fill:#fa6cc4;}.cls-14,.cls-3{fill:#000200;}.cls-4,.cls-9{fill:#f8fbf8;}.cls-5{fill:#5d605d;}.cls-6{fill:#5f6360;}.cls-7{fill:#0a4812;}.cls-8{fill:#030302;}.cls-9{stroke:#000;stroke-miterlimit:10;stroke-width:4px;}.cls-10{fill:#050806;}.cls-11{fill:#060606;}.cls-12{fill:#050503;}.cls-13{fill:#f3f2f1;}.cls-14{opacity:0.3;}.cls-15{fill:#0d5ad2;}.cls-16{fill:#08414c;}.cls-17{fill:#ad2c24;}.cls-18{fill:#b8176f;}.cls-19{fill:#656d21;}.cls-20{fill:#aa22be;}.cls-21{clip-path:url(#clip-path);}.cls-22{clip-path:url(#clip-path-2);}</style><clipPath id="clip-path"><rect class="cls-1" x="934" y="884.5" width="98" height="70"/></clipPath><clipPath id="clip-path-2"><rect class="cls-1" x="935" y="114.5" width="96" height="62"/></clipPath></defs><rect class="cls-2" x="-1" y="-2" width="1920" height="1080"/><rect class="cls-3" x="119" y="88.5" width="1704" height="901"/><polygon class="cls-4" points="1832 76.5 1815 88.5 119.5 88.5 107 76.5 1832 76.5"/><polygon class="cls-5" points="1832 76.5 1832 1003.5 1815 989.5 1815 88.5 1832 76.5"/><polygon class="cls-3" points="1832 1003.5 107 1003.5 107 76.5 119.5 88.5 119.5 989.5 1815 989.5 1832 1003.5"/><rect class="cls-1" x="119.5" y="88.5" width="1695.5" height="901"/><rect class="cls-1" x="119.5" y="88.5" width="1695.5" height="901"/><rect class="cls-6" x="125.25" y="98.5" width="1684" height="886"/><line class="cls-1" x1="119.5" y1="989.5" x2="107" y2="1003.5"/><polygon class="cls-7" points="156 220.5 156 124.16 252.65 124.16 293.89 172.33 933 173.5 933 124.16 1031.43 124.16 1031.43 172.33 1638 174.5 1688.05 124.16 1784.4 124.16 1784.4 220.5 1736 267.5 1737 810.5 1784.4 858.66 1784.4 952.43 1692.39 952.43 1642 905.5 1032 905.5 1031.28 952.43 933.51 952.43 934 904.5 300 904.5 249.45 952.43 156 952.43 156 858.25 204 807.5 203 267.5 156 220.5"/><path class="cls-8" d="M202,133.5a31.58,31.58,0,0,1,15,4c5.48,2.85,8.7,6.34,12,10,5.55,6.15,10.54,11.67,12,20,1.37,7.82-1.07,14.06-3,19-1.76,4.51-6.39,16.36-19,23-2.82,1.49-11.43,6-22,4-13.45-2.57-20.58-13.95-25-21s-10-16-8-27c1.91-10.51,9.6-16.78,16-22C185.24,139.22,192.15,133.6,202,133.5Z"/><path class="cls-9" d="M203.65,220.53c-11.83,0-23-6.1-33.22-18.15C166.69,198,156.77,186.3,158,170c1.07-13.94,9.77-25.94,25.88-35.68,5.37-3.24,11.48-6.91,20.14-6.86h0c16.05.12,26.81,13.17,32.59,20.18S248.46,162,249,173.22c.7,14.68-8.57,24.85-13.55,30.32-5.17,5.67-14.79,16.23-30.16,17C204.74,220.52,204.19,220.53,203.65,220.53Zm.18-81c-5.23,0-9.17,2.38-13.73,5.14S171.12,156.11,170,171c-.87,11.34,6.46,20,9.59,23.66s12.31,14.48,25.15,13.89c10.41-.5,17.57-8.36,21.84-13,4.08-4.48,10.91-12,10.45-21.68-.34-7.19-4.45-12.16-9.64-18.46s-13-15.74-23.41-15.82Z"/><path class="cls-4" d="M181,183.5a84.72,84.72,0,0,1,33-32"/><path class="cls-4" d="M183.59,185l-5.18-3a87.77,87.77,0,0,1,34.16-33.13l2.86,5.28A81.67,81.67,0,0,0,183.59,185Z"/><path class="cls-4" d="M195,196.5a106.24,106.24,0,0,0,32-33"/><path class="cls-4" d="M196.65,199l-3.3-5a103.45,103.45,0,0,0,31.1-32.07l5.1,3.14A109,109,0,0,1,196.65,199Z"/><path class="cls-4" d="M193,150.5a89.64,89.64,0,0,1,34,33"/><path class="cls-4" d="M224.42,185a86.63,86.63,0,0,0-32.87-31.89l2.9-5.26A92.64,92.64,0,0,1,229.58,182Z"/><path class="cls-4" d="M213,197.5a166.21,166.21,0,0,1-31-31"/><path class="cls-4" d="M211.18,199.88a168.08,168.08,0,0,1-31.56-31.56l4.76-3.64a164.36,164.36,0,0,0,30.44,30.44Z"/><path class="cls-8" d="M202,865.5a31.58,31.58,0,0,1,15,4c5.48,2.85,8.7,6.34,12,10,5.55,6.15,10.54,11.67,12,20,1.37,7.82-1.07,14.06-3,19-1.76,4.51-6.39,16.36-19,23-2.82,1.49-11.43,6-22,4-13.45-2.57-20.58-14-25-21s-10-16-8-27c1.91-10.51,9.6-16.78,16-22C185.24,871.22,192.15,865.6,202,865.5Z"/><path class="cls-9" d="M203.65,952.53c-11.83,0-23-6.1-33.22-18.15C166.69,930,156.77,918.3,158,902c1.07-13.94,9.77-25.94,25.88-35.68,5.37-3.24,11.48-6.91,20.14-6.86h0c16.05.12,26.81,13.17,32.59,20.18S248.46,894,249,905.22c.7,14.68-8.57,24.85-13.55,30.32-5.17,5.67-14.79,16.23-30.16,17C204.74,952.52,204.19,952.53,203.65,952.53Zm.18-81c-5.23,0-9.17,2.38-13.73,5.14S171.12,888.11,170,903c-.87,11.34,6.46,20,9.59,23.66s12.31,14.48,25.15,13.89c10.41-.5,17.57-8.36,21.84-13,4.08-4.48,10.91-12,10.45-21.68-.34-7.19-4.45-12.16-9.64-18.46s-13-15.74-23.41-15.82Z"/><path class="cls-4" d="M181,915.5a84.72,84.72,0,0,1,33-32"/><path class="cls-4" d="M183.59,917l-5.18-3a87.77,87.77,0,0,1,34.16-33.13l2.86,5.28A81.67,81.67,0,0,0,183.59,917Z"/><path class="cls-4" d="M195,928.5a106.24,106.24,0,0,0,32-33"/><path class="cls-4" d="M196.65,931l-3.3-5a103.45,103.45,0,0,0,31.1-32.07l5.1,3.14A109,109,0,0,1,196.65,931Z"/><path class="cls-4" d="M193,882.5a89.64,89.64,0,0,1,34,33"/><path class="cls-4" d="M224.42,917a86.63,86.63,0,0,0-32.87-31.89l2.9-5.26A92.64,92.64,0,0,1,229.58,914Z"/><path class="cls-4" d="M213,929.5a166.21,166.21,0,0,1-31-31"/><path class="cls-4" d="M211.18,931.88a168.08,168.08,0,0,1-31.56-31.56l4.76-3.64a164.36,164.36,0,0,0,30.44,30.44Z"/><path class="cls-8" d="M1737,858.5a31.58,31.58,0,0,1,15,4c5.48,2.85,8.7,6.34,12,10,5.55,6.15,10.54,11.67,12,20,1.37,7.82-1.07,14.06-3,19-1.76,4.51-6.39,16.36-19,23-2.82,1.49-11.43,6-22,4-13.45-2.57-20.58-14-25-21s-10-16-8-27c1.91-10.51,9.6-16.78,16-22C1720.24,864.22,1727.15,858.6,1737,858.5Z"/><path class="cls-9" d="M1738.65,945.53c-11.83,0-23-6.1-33.22-18.15C1701.69,923,1691.77,911.3,1693,895c1.07-13.94,9.77-25.94,25.88-35.68,5.37-3.24,11.48-6.91,20.14-6.86h0c16,.12,26.81,13.17,32.59,20.18S1783.46,887,1784,898.22c.7,14.68-8.57,24.85-13.55,30.32-5.17,5.67-14.79,16.23-30.16,17C1739.74,945.52,1739.19,945.53,1738.65,945.53Zm.18-81c-5.23,0-9.17,2.38-13.73,5.14s-19,11.47-20.12,26.32c-.87,11.34,6.46,20,9.59,23.66s12.31,14.48,25.15,13.89c10.41-.5,17.57-8.36,21.84-13,4.08-4.48,10.91-12,10.45-21.68-.34-7.19-4.45-12.16-9.64-18.46s-13-15.74-23.41-15.82Z"/><path class="cls-4" d="M1716,908.5a84.72,84.72,0,0,1,33-32"/><path class="cls-4" d="M1718.59,910l-5.18-3a87.77,87.77,0,0,1,34.16-33.13l2.86,5.28A81.67,81.67,0,0,0,1718.59,910Z"/><path class="cls-4" d="M1730,921.5a106.24,106.24,0,0,0,32-33"/><path class="cls-4" d="M1731.65,924l-3.3-5a103.45,103.45,0,0,0,31.1-32.07l5.1,3.14a109,109,0,0,1-32.9,33.93Z"/><path class="cls-4" d="M1728,875.5a89.64,89.64,0,0,1,34,33"/><path class="cls-4" d="M1759.42,910a86.63,86.63,0,0,0-32.87-31.89l2.9-5.26A92.64,92.64,0,0,1,1764.58,907Z"/><path class="cls-4" d="M1748,922.5a166.21,166.21,0,0,1-31-31"/><path class="cls-4" d="M1746.18,924.88a168.08,168.08,0,0,1-31.56-31.56l4.76-3.64a164.36,164.36,0,0,0,30.44,30.44Z"/><path class="cls-8" d="M1736,130.5a31.58,31.58,0,0,1,15,4c5.48,2.85,8.7,6.34,12,10,5.55,6.15,10.54,11.67,12,20,1.37,7.82-1.07,14.06-3,19-1.76,4.51-6.39,16.36-19,23-2.82,1.49-11.43,6-22,4-13.45-2.57-20.58-13.95-25-21s-10-16-8-27c1.91-10.51,9.6-16.78,16-22C1719.24,136.22,1726.15,130.6,1736,130.5Z"/><path class="cls-9" d="M1737.65,217.53c-11.83,0-23-6.1-33.22-18.15C1700.69,195,1690.77,183.3,1692,167c1.07-13.94,9.77-25.94,25.88-35.68,5.37-3.24,11.48-6.91,20.14-6.86h0c16,.12,26.81,13.17,32.59,20.18S1782.46,159,1783,170.22c.7,14.68-8.57,24.85-13.55,30.32-5.17,5.67-14.79,16.23-30.16,17C1738.74,217.52,1738.19,217.53,1737.65,217.53Zm.18-81c-5.23,0-9.17,2.38-13.73,5.14s-19,11.47-20.12,26.32c-.87,11.34,6.46,20,9.59,23.66s12.31,14.48,25.15,13.89c10.41-.5,17.57-8.36,21.84-13,4.08-4.48,10.91-12,10.45-21.68-.34-7.19-4.45-12.16-9.64-18.46s-13-15.74-23.41-15.82Z"/><path class="cls-4" d="M1715,180.5a84.72,84.72,0,0,1,33-32"/><path class="cls-4" d="M1717.59,182l-5.18-3a87.77,87.77,0,0,1,34.16-33.13l2.86,5.28A81.67,81.67,0,0,0,1717.59,182Z"/><path class="cls-4" d="M1729,193.5a106.24,106.24,0,0,0,32-33"/><path class="cls-4" d="M1730.65,196l-3.3-5a103.45,103.45,0,0,0,31.1-32.07l5.1,3.14a109,109,0,0,1-32.9,33.93Z"/><path class="cls-4" d="M1727,147.5a89.64,89.64,0,0,1,34,33"/><path class="cls-4" d="M1758.42,182a86.63,86.63,0,0,0-32.87-31.89l2.9-5.26A92.64,92.64,0,0,1,1763.58,179Z"/><path class="cls-4" d="M1747,194.5a166.21,166.21,0,0,1-31-31"/><path class="cls-4" d="M1745.18,196.88a168.08,168.08,0,0,1-31.56-31.56l4.76-3.64a164.36,164.36,0,0,0,30.44,30.44Z"/><polygon class="cls-10" points="131 124.5 131 225.5 179 275.5 180 806.5 185.63 806.5 186 271.5 137 224.5 135.94 124.5 131 124.5"/><polygon class="cls-10" points="131 855.5 131 956.5 150 977.5 258.34 977.5 306 929.5 909 929.5 909 956.63 927.81 977.5 1036.8 977.5 1057 956.5 1050 954.5 1035 970.5 930 971.5 915 955.5 915 923.5 305 923.5 256 970.5 153 971.5 137 955.5 137.38 855.5 131 855.5"/><polygon class="cls-11" points="1049 923.5 1049 928.9 1631 929.5 1682 977.5 1788.84 977.5 1808 958.5 1808 947.86 1788 970.5 1683 970.5 1634.34 923.5 1049 923.5"/><polygon class="cls-3" points="1785 953.5 1785 856.68 1737 811.5 1737 269.5 1747.69 269.5 1748 805.5 1797 855.5 1797 953.5 1785 953.5"/><polygon class="cls-3" points="1797 221.73 1797 125.11 1783 112.5 1687.78 112.5 1688 123.5 1784 124.5 1784.4 221.73 1797 221.73"/><path class="cls-12" d="M1638,161.5H1044V125.19l-12-12.69H933v12h99v48h606Z"/><polygon class="cls-3" points="930 173.5 917 160.5 302 161.5 253 114.5 155.6 114.5 155.6 124.5 249.51 124.5 297.76 173.5 930 173.5"/><polygon class="cls-13" points="180 806.5 131 855.5 137.38 855.5 185.63 806.5 180 806.5"/><polygon class="cls-13" points="143.62 952.53 250.41 952.53 298.68 905.75 934 904.5 918.63 916.5 306.94 917.02 254 965.5 156 965.5 143.62 952.53"/><polygon class="cls-13" points="921 954.5 1042.01 954.5 1031.91 965.5 934 966.64 921 954.5"/><polygon class="cls-13" points="1037 905.5 1045.07 916.5 1635 918.5 1686 966.5 1784.4 966.5 1797 953.5 1688.95 953.5 1640.52 905 1037 905.5"/><polygon class="cls-13" points="1752 807.5 1798 855.5 1802 849.5 1759.59 807.5 1752 807.5"/><polygon class="cls-13" points="1784.4 221.73 1737 269.5 1747.69 269.5 1797 221.73 1784.4 221.73"/><polygon class="cls-13" points="1797 125.11 1797 114.15 1784.4 100.6 1687.78 100.6 1638 148.5 1050.77 149 1051 154.5 1638 155.25 1687.78 106.61 1784.4 106.78 1784.4 112.5 1797 125.11"/><polygon class="cls-13" points="1044 125.19 1044 113.5 1030.75 100.6 933.73 100.6 910.03 124.16 915.26 124.16 934.95 106.51 1031 106.5 1032 112.5 1044 125.19"/><polygon class="cls-13" points="910.03 149 301.53 147.87 252 100.5 155.6 100.5 135.94 124.5 140.71 124.5 156 106.39 252 106.5 303 156.5 910.03 155.25 910.03 149"/><polygon class="cls-13" points="144 223.5 156 223.5 203.47 269.6 188.29 269.6 144 223.5"/><path class="cls-14" d="M172,142.5c2.7-4.87,7.21-6.8,15-10,8.58-3.52,12.91-5.3,19-5,7.49.37,12.66,3.63,18,7,4.89,3.09,16.36,10.32,22,25,1.92,5,4.76,11.65,3,20-.47,2.24-2.15,10.19-9,15-8.07,5.66-18,3.23-23,2-8.55-2.1-15.48-8.09-29-20-14.67-12.92-17.59-18.32-18-24A18,18,0,0,1,172,142.5Z"/><path class="cls-14" d="M172,874.5c2.7-4.87,7.21-6.8,15-10,8.58-3.52,12.91-5.3,19-5,7.49.37,12.66,3.63,18,7,4.89,3.09,16.36,10.32,22,25,1.92,5,4.76,11.65,3,20-.47,2.24-2.15,10.19-9,15-8.07,5.66-18,3.23-23,2-8.55-2.1-15.48-8.09-29-20-14.67-12.92-17.59-18.32-18-24A18,18,0,0,1,172,874.5Z"/><path class="cls-14" d="M1709,141.5c2.7-4.87,7.21-6.8,15-10,8.58-3.52,12.91-5.3,19-5,7.49.37,12.66,3.63,18,7,4.89,3.09,16.36,10.32,22,25,1.92,5,4.76,11.65,3,20-.47,2.24-2.15,10.19-9,15-8.07,5.66-18,3.23-23,2-8.55-2.1-15.48-8.09-29-20-14.67-12.92-17.59-18.32-18-24A18,18,0,0,1,1709,141.5Z"/><path class="cls-14" d="M1707,867.5c2.7-4.87,7.21-6.8,15-10,8.58-3.52,12.91-5.3,19-5,7.49.37,12.66,3.63,18,7,4.89,3.09,16.36,10.32,22,25,1.92,5,4.76,11.65,3,20-.47,2.24-2.15,10.19-9,15-8.07,5.66-18,3.23-23,2-8.55-2.1-15.48-8.09-29-20-14.67-12.92-17.59-18.32-18-24A18,18,0,0,1,1707,867.5Z"/><rect class="cls-3" x="910.03" y="124.16" width="5.24" height="31.09"/><circle class="cls-15" cx="556.5" cy="506" r="32.5"/><circle class="cls-16" cx="403" cy="667.5" r="28"/><circle class="cls-17" cx="1604" cy="822.5" r="36"/><circle class="cls-18" cx="1666.5" cy="397" r="34.5"/><circle class="cls-19" cx="1315.5" cy="637" r="31.5"/><circle class="cls-20" cx="1077" cy="277.5" r="31"/><g class="cls-21"><path class="cls-8" d="M982,912.5a31.58,31.58,0,0,1,15,4c5.48,2.85,8.7,6.34,12,10,5.55,6.15,10.54,11.67,12,20,1.37,7.82-1.07,14.06-3,19-1.76,4.51-6.39,16.36-19,23-2.82,1.49-11.43,6-22,4-13.45-2.57-20.58-14-25-21s-10-16-8-27c1.91-10.51,9.6-16.78,16-22C965.24,918.22,972.15,912.6,982,912.5Z"/><path class="cls-9" d="M983.65,999.53c-11.83,0-23-6.1-33.22-18.15C946.69,977,936.77,965.3,938,949c1.07-13.94,9.77-25.94,25.88-35.68,5.37-3.24,11.48-6.91,20.14-6.86h0c16.05.12,26.81,13.17,32.59,20.18S1028.46,941,1029,952.22c.7,14.68-8.57,24.85-13.55,30.32-5.17,5.67-14.79,16.23-30.16,17C984.74,999.52,984.19,999.53,983.65,999.53Zm.18-81c-5.23,0-9.17,2.38-13.73,5.14S951.12,935.11,950,950c-.87,11.34,6.46,20,9.59,23.66s12.31,14.48,25.15,13.89c10.41-.5,17.57-8.36,21.84-13,4.08-4.48,10.91-12,10.45-21.68-.34-7.19-4.45-12.16-9.64-18.46s-13-15.74-23.41-15.82Z"/><path class="cls-4" d="M961,962.5a84.72,84.72,0,0,1,33-32"/><path class="cls-4" d="M963.59,964l-5.18-3a87.77,87.77,0,0,1,34.16-33.13l2.86,5.28A81.67,81.67,0,0,0,963.59,964Z"/><path class="cls-4" d="M975,975.5a106.24,106.24,0,0,0,32-33"/><path class="cls-4" d="M976.65,978l-3.3-5a103.45,103.45,0,0,0,31.1-32.07l5.1,3.14A109,109,0,0,1,976.65,978Z"/><path class="cls-4" d="M973,929.5a89.64,89.64,0,0,1,34,33"/><path class="cls-4" d="M1004.42,964a86.63,86.63,0,0,0-32.87-31.89l2.9-5.26A92.64,92.64,0,0,1,1009.58,961Z"/><path class="cls-4" d="M993,976.5a166.21,166.21,0,0,1-31-31"/><path class="cls-4" d="M991.18,978.88a168.08,168.08,0,0,1-31.56-31.56l4.76-3.64a164.36,164.36,0,0,0,30.44,30.44Z"/><path class="cls-14" d="M952,921.5c2.7-4.87,7.21-6.8,15-10,8.58-3.52,12.91-5.3,19-5,7.49.37,12.66,3.63,18,7,4.89,3.09,16.36,10.32,22,25,1.92,5,4.76,11.65,3,20-.47,2.24-2.15,10.19-9,15-8.07,5.66-18,3.23-23,2-8.55-2.1-15.48-8.09-29-20-14.67-12.92-17.59-18.32-18-24A18,18,0,0,1,952,921.5Z"/></g><g class="cls-22"><path class="cls-8" d="M982,83.5a31.58,31.58,0,0,1,15,4c5.48,2.85,8.7,6.34,12,10,5.55,6.15,10.54,11.67,12,20,1.37,7.82-1.07,14.06-3,19-1.76,4.51-6.39,16.36-19,23-2.82,1.49-11.43,6-22,4-13.45-2.57-20.58-13.95-25-21s-10-16-8-27c1.91-10.51,9.6-16.78,16-22C965.24,89.22,972.15,83.6,982,83.5Z"/><path class="cls-9" d="M983.65,170.53c-11.83,0-23-6.1-33.22-18.15C946.69,148,936.77,136.3,938,120c1.07-13.94,9.77-25.94,25.88-35.68,5.37-3.24,11.48-6.91,20.14-6.86h0c16.05.12,26.81,13.17,32.59,20.18S1028.46,112,1029,123.22c.7,14.68-8.57,24.85-13.55,30.32-5.17,5.67-14.79,16.23-30.16,17C984.74,170.52,984.19,170.53,983.65,170.53Zm.18-81c-5.23,0-9.17,2.38-13.73,5.14S951.12,106.11,950,121c-.87,11.34,6.46,20,9.59,23.66s12.31,14.48,25.15,13.89c10.41-.5,17.57-8.36,21.84-13,4.08-4.48,10.91-12,10.45-21.68-.34-7.19-4.45-12.16-9.64-18.46S994.4,89.58,984,89.5Z"/><path class="cls-4" d="M961,133.5a84.72,84.72,0,0,1,33-32"/><path class="cls-4" d="M963.59,135l-5.18-3a87.77,87.77,0,0,1,34.16-33.13l2.86,5.28A81.67,81.67,0,0,0,963.59,135Z"/><path class="cls-4" d="M975,146.5a106.24,106.24,0,0,0,32-33"/><path class="cls-4" d="M976.65,149l-3.3-5a103.45,103.45,0,0,0,31.1-32.07l5.1,3.14A109,109,0,0,1,976.65,149Z"/><path class="cls-4" d="M973,100.5a89.64,89.64,0,0,1,34,33"/><path class="cls-4" d="M1004.42,135a86.63,86.63,0,0,0-32.87-31.89l2.9-5.26A92.64,92.64,0,0,1,1009.58,132Z"/><path class="cls-4" d="M993,147.5a166.21,166.21,0,0,1-31-31"/><path class="cls-4" d="M991.18,149.88a169.89,169.89,0,0,1-19.35-17.3,171,171,0,0,1-12.21-14.26l4.76-3.64a164.36,164.36,0,0,0,30.44,30.44Z"/><path class="cls-14" d="M952,92.5c2.7-4.87,7.21-6.8,15-10,8.58-3.52,12.91-5.3,19-5,7.49.37,12.66,3.63,18,7,4.89,3.09,16.36,10.32,22,25,1.92,5,4.76,11.65,3,20-.47,2.24-2.15,10.19-9,15-8.07,5.66-18,3.23-23,2-8.55-2.1-15.48-8.09-29-20-14.67-12.92-17.59-18.32-18-24A18,18,0,0,1,952,92.5Z"/></g></svg>