<svg id="Слой_1" data-name="Слой 1" xmlns="http://www.w3.org/2000/svg" xmlns:xlink="http://www.w3.org/1999/xlink" viewBox="0 0 1920 1080"><defs><style>.cls-1{fill:none;}.cls-2{clip-path:url(#clip-path);}.cls-3{fill:#a8ceb0;}.cls-4{fill:#999;}.cls-5{fill:#7faf8d;}.cls-6{fill:#fbcba8;}.cls-7{fill:#291717;}.cls-8{clip-path:url(#clip-path-2);}.cls-9{fill:#e56156;}.cls-10{fill:#f9f9f9;}.cls-11{fill:#c1272d;}.cls-12{fill:#c3a186;}</style><clipPath id="clip-path"><rect class="cls-1" x="0.5" y="-0.5" width="1920" height="1080"/></clipPath><clipPath id="clip-path-2"><path class="cls-1" d="M960.11,456.54c-.84,1.8-13.74,2.9-39.52,5-7.3.6-11,.93-14.23,1.11-14.49.78-28.5.36-65.66.27-72.39-.18-71,1.31-106.07,0-39-1.46-58.51-2-59.11-3.68-4.25-11.83,91.05-91.18,188.21-69.09C920.7,403.12,964.22,447.75,960.11,456.54Z"/></clipPath></defs><title>Монтажная область 14</title><g class="cls-2"><rect class="cls-3" x="-40" y="-380" width="2000" height="2000"/><path class="cls-4" d="M492,156.93l-.16-5c179.06-5.49,384.79-8.44,512-7.35l0,5C876.65,148.49,671,151.44,492,156.93Z"/><path class="cls-5" d="M419,410.59c-3.23,1.35-6.45,2.72-6.45,2.72-2.64,1.13-5.74,2.46-9.17,4-1.62,1.61-9.86,10.06-7.91,19.21,1.74,8.14,10.54,12.08,19.21,15.81,14.45,6.22,25.71,6.42,41.51,7.88,13.38,1.24,26.53,4.65,40,5.51,33.48,2.15,49.71,14.23,86.78,24.8,37.89,10.8,67.11,11.35,122.6,12.39,35.24.67,35.31-1.65,88.15-2.75,69.73-1.46,78.93,2.38,129.49,1.38,64.55-1.29,99.39-1.91,146-13.78,4.1-1,3.6-1,27.75-10.2,14.47-5.53,55.3-22.32,81.08-30.63,44.37-14.29,47.2-8.29,67.92-20.29,16.2-9.37,45.87-31.22,41.46-47.63-4.5-16.73-42.44-20.49-58.22-22.05-36.33-3.6-56.59,6.29-84.68-2.65-3-1-11.47-3.84-23.82-7.06-12-3.11-21.85-5-28.22-6.17C706.51,377.64,424.88,408.14,419,410.59Z"/><path class="cls-6" d="M522.33,361c-1.5-15.87-3.94-43.66,1.38-78.52,4.55-29.81,9.27-60.72,31.68-89.53,18.31-23.55,39.5-34.17,62-45.46,21.71-10.89,63.08-31.65,117.08-27.55,40.39,3.07,68.6,18.58,107.45,39.95a407.11,407.11,0,0,1,73,51c29.34,26,46.19,49.91,79.9,97.8,0,0,46,65.34,48.21,100.55,0,.26,0,.83,1.38,22-5.82,1.57-14.42,3.92-24.8,6.89-21.89,6.27-33.5,10.1-41.32,12.4-23.76,7-43.09,8.89-64.74,11-22.29,2.19-31.28,1.5-79.9,1.38-72.38-.18-71,1.31-106.06,0-42.46-1.59-70.6-4.76-77.14-5.51-28.07-3.24-36.09-8-63.37-9.65-19.41-1.18-49.59-1.38-49.59-1.37h0S526.15,401.55,522.33,361Z"/><path class="cls-4" d="M583.85,402.2c-45.76-3.54-105.82-7-183.61-10.59l.23-5c77.84,3.59,137.95,7.05,183.76,10.59Z"/><path class="cls-7" d="M424.7,372c7.32-16,15-23.32,23.41-34.44,8-10.56,15.1-26,28.93-56.47,27.68-61,21.76-58.26,33.06-75.76,12.56-19.45,26.28-31.8,53.72-56.48,25.75-23.16,39.24-35.3,62-46.84a209.44,209.44,0,0,1,66.12-20.66,215.81,215.81,0,0,1,88.16,6.89c35.65,10.35,34.83,20,85.4,45.46,55.58,27.92,60.19,18,118.47,48.21,28.66,14.84,36.86,22.06,62,30.3,29.48,9.67,38.51,6.41,60.61,17.91,10.55,5.49,23.11,16.51,48.22,38.57,34.68,30.46,29,29.73,45.45,41.32,16.13,11.37,25.54,14.86,31.69,27.55,5.66,11.7-3.7,17.81,2.75,33.06,3.28,7.75,7.12,10.09,6,13.63-2.05,6.43-16.58,4.62-34.4,7.06-37.78,5.18-68.39,26.44-85.42,26.36a96.28,96.28,0,0,0-15.65,1.17c-14,2.17-10.34,4-40,11h0q-9.74,2.47-19.94,4.78-20.76,4.66-40.16,7.83a129.92,129.92,0,0,0-9.7-30c-10.95-23.44-16.22-30-25.58-48.52-21-41.46-11.49-59.33-36.57-99.59-4.6-7.4-8.74-13-11.31-16.34a285.59,285.59,0,0,0-51-51c-8.79-6.82-29.27-18.32-70.25-41.32-28.92-16.24-35.79-19.59-46.83-22-20.37-4.54-36.32-1.93-56.48,1.37-18.38,3-45.69,7.77-74.38,26.18-14.21,9.11-23.52,18.21-33.06,27.55-15.6,15.24-25.92,25.33-33.06,41.32-3,6.77-5.07,13.66-8.27,48.21-.94,10.13-2.12,26.63-4.13,59.23-1.07,17.28-1.42,24-1.44,29.72,0,0,0,2.65.06,4.72.42,17.92,36.37,62.4,47.39,75.76H536.27c-20.32.19-19.16,1.18-37.19,1.38-16.2.18-25.95.29-37.19-1.38-9.16-1.35-11.48-2.73-19.29-2.75-4.4,0-7.44.41-11-1.38s-5.9-4.9-8.26-9.64a68.91,68.91,0,0,1-6.89-26.17C416.27,401.68,416.76,389.41,424.7,372Z"/><path class="cls-1" d="M541.78,401a91.45,91.45,0,0,0,12.4,19.28c3.49,4.14,5.81,6.1,9.64,11a94,94,0,0,1,9.65,15.16"/><path class="cls-7" d="M542.39,321.11l-15-5.62c18-48,23.2-58.45,25.56-62.12l.06-.09c1.58-2.46,2.86-4.82,3.66-6.36a76.43,76.43,0,0,0,3.78-8.54c3.76-10.15,5-22.67,5-22.8,1.24-12.78,6.11-28.48,14.48-46.64l14.53,6.69c-7.62,16.53-12,30.49-13.08,41.5-.06.61-1.48,14.68-6,26.81a93.17,93.17,0,0,1-4.57,10.33c-.95,1.85-2.5,4.68-4.42,7.66C564.72,264.67,559.33,275.88,542.39,321.11Z"/><path class="cls-7" d="M590,183.25l-8.31-13.67c19.21-11.68,39-18.1,58.87-19.06a96.4,96.4,0,0,1,9.8,0,76.59,76.59,0,0,0,9.38,0c19.68-1.2,33.45-7.44,44.51-12.45,2.88-1.3,5.59-2.53,8.13-3.54,23.35-9.24,52.19-7.39,85.71,5.48L792.37,155c-29.66-11.39-54.58-13.26-74.08-5.54-2.19.86-4.61,2-7.42,3.23-11.61,5.26-27.52,12.47-50.14,13.85a92.67,92.67,0,0,1-11.08,0,76.64,76.64,0,0,0-8.3,0C624.2,167.33,606.93,173,590,183.25Z"/><path class="cls-7" d="M1030.62,433.65c-19.48-36.45-39.62-62.94-59.85-78.74l-1.36-1.05a133.05,133.05,0,0,1-23.33-22.24c-7.14-8.73-10.32-15-14.73-23.66-2.6-5.13-5.85-11.51-10.8-20.1C913.47,275.58,907.36,265,897.82,253c-4.38-5.47-9.94-11.77-33.61-33.54-8.84-8.13-22.67-20.67-38.39-34.28-17.94-15.53-36.44-31.26-55-46.74l10.25-12.28c18.62,15.54,37.2,31.33,55.21,46.92,15.87,13.74,29.83,26.4,38.75,34.6,24.51,22.53,30.47,29.33,35.27,35.33,10.3,12.88,16.7,24,24.1,36.82,5.17,9,8.52,15.54,11.21,20.84,4.24,8.35,6.81,13.39,12.85,20.79a118.25,118.25,0,0,0,20.72,19.69l1.43,1.11c22,17.18,43.57,45.38,64.11,83.8Z"/><g class="cls-8"><path class="cls-9" d="M793.69,463.6a23.2,23.2,0,0,1,6.77-11.3c4.29-3.75,7.54-3.28,13.56-6.78,6.65-3.86,6.08-6.4,12.43-11.29,7.09-5.47,14.23-7.24,21.46-9,4.5-1.12,10.53-1.88,22.6-3.39l9-1.13h0c-3.94,5.7-7,10.4-9,13.56-5.55,8.64-7.7,12.62-12.43,19.2-3.25,4.52-6.1,8-7.91,10.17"/><path class="cls-7" d="M815.79,467.75l-1.28-1.53c5.52-4.65,11.23-9.22,17-13.58,7-5.33,13-9.47,23.76-17,6-4.16,12-8.34,18.08-12.44l1.13,1.66c-6,4.09-12.11,8.27-18.07,12.42-10.77,7.49-16.7,11.62-23.69,16.92C827,458.57,821.29,463.12,815.79,467.75Z"/></g><path class="cls-10" d="M898.4,413.38c-2.63-2.09-6.83-.52-10.59.88-2.46.92-5.49,3-11.47,7.06-4.73,3.23-5.45,3.88-5.29,4.41.43,1.46,6.94.66,12.35,0,10.21-1.25,15.34-1.94,16.76-5.29A6.44,6.44,0,0,0,898.4,413.38Z"/><ellipse class="cls-11" cx="898.4" cy="416.91" rx="2.21" ry="4.85" transform="translate(-63.04 179.08) rotate(-11)"/><path class="cls-4" d="M583.08,684.47c-56.89-6.6-173.64-11.37-267.46-15.2l.21-5c93.89,3.84,210.75,8.61,267.82,15.23Z"/><path class="cls-5" d="M578.81,785.44c8.07.46,16.09,1.92,24.18,1.94,8.93,0,14-.75,15.47,1.93,1.77,3.23-3,9-6.77,13.54-4,4.8-9.37,11.31-19.34,16.44-12.68,6.52-16.84,2.61-27.08,9.67-5,3.45-4.12,4.47-12.57,11.6-7.83,6.62-12.13,8.74-17.4,12.57-14.84,10.78-12.14,16.74-23.21,25.15-16,12.11-24.26,1.79-43.52,14.5-9.8,6.47-10.3,10.89-24.17,19.34a96.42,96.42,0,0,1-20.31,9.67c-13.37,4.36-22.27,3.09-38.68,2.9-7.3-.08-22,.91-51.25,2.9-34.19,2.33-34,3.47-45.45,2.9-12.06-.59-10.44-1.77-46.42-7.73-28.29-4.69-42.43-7-51.25-6.77a226.19,226.19,0,0,1-29-1c-18.48-1.78-20.55-4.25-21.27-5.8-3.2-6.83,8.66-19.76,19.34-27.08a68.44,68.44,0,0,1,26.1-10.63c30.7-6.13,53.12-37.51,65.76-51.26C306.48,761,457.53,726.41,514,760.3,514,760.3,553.52,784,578.81,785.44Z"/><path class="cls-6" d="M487,626.85c5.72,1.43,10.29,4.21,14.5,6.77,8.77,5.33,14.21,11,19.34,16.44,30.27,32.05,26.33,31,35.78,38.68,5,4.09,10.37,7.84,15.47,15.47,3.1,4.64,3.39,6.64,7.74,16.44,7.73,17.44,8.94,15.88,12.57,26.11,3.74,10.54,4.2,17.07,4.84,26.11a21.9,21.9,0,0,1-1,9.67c-2.61,7.13-8.84,10.6-10.64,11.61a25.9,25.9,0,0,1-16.44,2.9c-6.52-1.09-10.8-4.56-13.54-6.77-1.4-1.14-2.27-1.91-10.63-11.61-3.55,1.33-6.55,2.27-8.71,2.9-3.45,1-6.17,1.65-11.6,2.91-5.11,1.18-7.67,1.77-7.88,1.75a1,1,0,0,0-.82.18c-1,1,2.12,5,4.83,9.67a49.06,49.06,0,0,1,5.8,13.54c1,4.4,2,8.44,0,12.57-2.5,5.24-8.06,7.18-9.67,7.73-3.81,1.33-4.65.25-12.57,1-5.63.51-5.33,1.07-12.57,1.94-5.89.7-10.51.86-13.54,1-6.83.23-10.25.34-11.09,0-.08,0-.35-.14-.51,0-.7.55,2.22,4.63,3.87,8.71.69,1.72,3.69,9.12,1,15.47-1.3,3-3.45,4.61-7.73,7.73a49,49,0,0,1-16.44,7.74c-3.43.91-5.14,1-14.51,1.93-9,.9-18.37,1.94-18.37,1.94s2.78,3.73,2.9,6.77c0,.59,0,3-3.87,6.77a31.19,31.19,0,0,1-14.5,7.73c-7,1.7-12.41,1.41-19.34,1-16.88-1.06-21-1.61-27.08-1.93-16.22-.86-17.34,1.41-31.91,1-12.17-.37-11.81-2-32.88-4.83-17.73-2.41-31.72-3.15-45.45-3.87-18.37-1-27.56-1.45-30.94-1-10.3,1.47-14.56-.31-20.31,0l-16.28,1.24h0c-.3,9.13-.7-18.55,1.77-27.35.52-1.81,3.88-9.43,11.61-24.17,8.28-15.8,4.34-18.15,11.6-32.88,7.64-15.49,11.19-11.25,21.28-29,6.16-10.84,12.55-22.1,16.44-37.71,1.4-5.66,2-10,5.8-14.51,3.18-3.79,6.55-5.28,19.34-11.6,8.68-4.3,13-6.44,13.54-6.77,14.44-9.18,11.25-18.34,23.21-25.15,1.76-1,9.55-2.92,25.14-6.76,6.19-1.53,9.06-2.14,13.54-3.87,7.82-3,11.19-5.86,16.44-8.71,7-3.78,10.6-4,26.1-7.73,6.32-1.53,14.85-3.92,31.92-8.7,20.34-5.7,30.51-8.55,39.64-11.61C469.63,627.77,476.71,624.3,487,626.85Z"/><path class="cls-12" d="M408.32,871.35c-3.11-4.85-6.36-9.71-9.64-14.46-1.38-2-2.87-4-4.76-6.62-2-2.74-4.52-6.15-7.8-10.77l-.89-1.26c-4.33-6.09-6.5-9.15-10.53-13a70.93,70.93,0,0,0-9.47-7.57c-7.54-5.06-13.74-7.18-20.91-9.65-2.46-.84-5-1.71-7.79-2.76a79.77,79.77,0,0,1-11.91-5.47c-3.45-1.87-8.18-4.42-18.17-9.08-9.48-4.42-19.22-8.64-28.94-12.54l1.12-2.78c9.77,3.92,19.56,8.16,29.09,12.6,10.07,4.7,14.84,7.27,18.33,9.16a76.09,76.09,0,0,0,11.54,5.3c2.74,1,5.26,1.9,7.7,2.74,7.37,2.53,13.74,4.71,21.61,10a72.63,72.63,0,0,1,9.88,7.9c4.24,4.08,6.6,7.41,10.89,13.46l.9,1.26c3.26,4.6,5.76,8,7.77,10.74s3.41,4.65,4.81,6.68c3.3,4.78,6.56,9.67,9.7,14.55Z"/><path class="cls-12" d="M463.38,829.66a174.17,174.17,0,0,1-13.66-33.17l-.19-.67a67.14,67.14,0,0,0-8.33-19.24,41.6,41.6,0,0,0-7.47-9.35c-5.06-4.48-9.63-5.43-16-6.74a104.27,104.27,0,0,1-10.56-2.63,35.25,35.25,0,0,1-11.53-5.69,92.12,92.12,0,0,0-15.73-8.88A140.4,140.4,0,0,0,366,737.67c-3.61-1.31-8.55-3.11-15.94-5.95-8.18-3.14-16.33-6.4-24.21-9.68l1.15-2.77c7.86,3.27,16,6.52,24.14,9.65,7.36,2.83,12.09,4.55,15.88,5.93a144.51,144.51,0,0,1,14.19,5.72,95.62,95.62,0,0,1,16.17,9.13A32.39,32.39,0,0,0,408.1,755a101.74,101.74,0,0,0,10.27,2.55c6.27,1.3,11.69,2.42,17.35,7.43a43.74,43.74,0,0,1,8,10,70.7,70.7,0,0,1,8.7,20l.19.66A170.82,170.82,0,0,0,466,828.26Z"/><path class="cls-12" d="M511.7,783.17a227.43,227.43,0,0,1-13.63-37l-.09-.31a115.37,115.37,0,0,0-9.46-24.52c-3.64-6.91-6.39-10.43-10.15-13-4.56-3.1-8.76-3.65-14.07-4.35l-1.73-.23c-7.63-1-16.13-3.3-33.06-7.78-10.83-2.86-20.18-5.33-31.22-10.74a126.56,126.56,0,0,1-16.64-9.78l1.72-2.47a122.36,122.36,0,0,0,16.24,9.56c10.78,5.27,19.55,7.59,30.67,10.53,16.81,4.45,25.25,6.68,32.7,7.7l1.71.23c5.49.73,10.22,1.35,15.36,4.85,4.16,2.84,7.28,6.78,11.12,14.08a118.6,118.6,0,0,1,9.71,25.14l.09.32a224.31,224.31,0,0,0,13.45,36.5Z"/><path class="cls-12" d="M542.64,773.51a140.58,140.58,0,0,0-11.48-20.1c-1.56-2.27-4.89-6.92-9.58-12.45a95.67,95.67,0,0,0-8.36-8.82,83.84,83.84,0,0,1-8.09-8.6c-7.23-8.69-10.53-12.66-11.74-14.7l-.49-.84c-1.31-2.26-2.44-4.21-4.7-5.35-2.47-1.25-5.66-1.23-9.47.08l-1-2.84c4.6-1.58,8.57-1.55,11.8.08,3,1.55,4.51,4.07,5.93,6.52l.48.83c1.09,1.83,4.77,6.26,11.47,14.31a81.35,81.35,0,0,0,7.84,8.33,97.19,97.19,0,0,1,8.59,9.06,159.73,159.73,0,0,1,9.76,12.69,143.75,143.75,0,0,1,11.73,20.53Z"/><path class="cls-12" d="M350.55,888.08a201.17,201.17,0,0,0-20.16-16.32c-6.84-4.83-11.79-8.32-19.07-11.45-1.6-.69-4.93-2.12-20.06-5.72-8.6-2-13.68-3.05-17.75-3.86a113.78,113.78,0,0,1-12.31-2.93A128.23,128.23,0,0,1,237.71,838l1.42-2.65a124.87,124.87,0,0,0,22.93,9.56,113.46,113.46,0,0,0,12,2.86c4.1.81,9.21,1.83,17.87,3.88,15.38,3.66,18.74,5.11,20.55,5.89,7.56,3.25,12.62,6.82,19.61,11.75a201.92,201.92,0,0,1,20.46,16.57Z"/><path class="cls-4" d="M1228.21,773.49c-40.92,0-87.28-.31-137.83-.94l.06-5c253.81,3.14,310.54-2.1,323.17-4.73-4.94-1.35-16.44-3.42-42.64-6.31s-60-5.87-95.75-9c-50.6-4.47-102.93-9.08-137.93-13.82l.67-5c34.89,4.73,87.16,9.34,137.7,13.8,37.64,3.32,73.19,6.46,99.84,9.48,14.33,1.63,24.83,3.07,32.09,4.43,10.66,2,14,3.62,13.91,6.7s-2.15,5.15-27.87,7c-16,1.16-39.52,2-69.85,2.6C1296.88,773.24,1264.71,773.49,1228.21,773.49Z"/><path class="cls-4" d="M1719.72,775c-77.08-6-101.91-10.86-102.22-19.95-.29-8.73,22-13.49,69.31-21.57l9.56-1.64.85,4.93-9.57,1.64c-15.75,2.69-32,5.47-44.67,8.5-19.31,4.63-20.42,7.66-20.48,8,.1.38,1.78,4.15,29.67,8.28,19.33,2.86,45.19,5,67.94,6.83Z"/><path class="cls-5" d="M1035.66,931.41c-10.28,2.59-15,6.5-24.52,14.31a25.29,25.29,0,0,0-4.08,6.13c-.5.92-4.11,7.81-4,12.18.25,9,16.58,17.29,30.41,20,16.77,3.27,35.26-.61,36.5-.87a77.53,77.53,0,0,1,20.69-1.16,22.54,22.54,0,0,1,3.22.5,24.73,24.73,0,0,1,11.71,6.74c9.23,8.78,53.51,11.26,77.16,6.54a105.54,105.54,0,0,1,23.5-2c11,.3,13.34,2.15,26.56,4.08,11.36,1.67,27.28,4,46,1,9.68-1.54,12.73-3.33,21.46-3.07,9.69.29,14.14,2.74,23.49,5.11,13,3.3,22.89,3.22,39.84,3.06,18.26-.16,27.39-.24,35.75-4.08,4.59-2.11,8.53-4.78,16.35-7.15a72,72,0,0,1,18.39-3.07c21.44-.94,66.77-8.63,75.59-10.21,42.73-7.68,41.61-18.17,88.87-26.56,22.36-4,20.52-1.25,45-5.11,53.14-8.39,86.32-13.35,97-34.73,12.66-25.24-16.1-52.9,2-78.66,6.3-9,15.93-14.35,14.3-22.47-1.31-6.56-9.23-11.29-19.41-17.37a90.37,90.37,0,0,0-14.3-7.15c-20.14-7.73-30.2-11.59-61.29-10.22-65.66,2.9-221.42-89-349.37-47C1194.55,769,1061.79,924.84,1035.66,931.41Z"/><path class="cls-4" d="M1022.76,926.29c-2-1.94-2.93-4-2.75-6,.7-7.78,15.94-16.07,123.71-18.62,79.71-1.89,200.54-.21,359.11,5l-.16,5c-158.48-5.2-279.21-6.87-358.83-5-39.75.94-70,2.78-90.08,5.48-27.55,3.71-28.73,8.1-28.77,8.58,0,.17,0,.8,1.25,2Z"/><path class="cls-6" d="M1137.81,769c-9.39,5.69-21.91,10-22.47,10.22a130.52,130.52,0,0,1-19.41,5.11c-12.75,2.22-19.41,3.06-19.41,3.06-4.08.52-7.41.86-11.23,3.06-1.94,1.12-5.44,3.14-7.16,7.15-2.08,4.88-.28,9.74,1,13.28s3.24,6.67,7.15,11.24A103.36,103.36,0,0,0,1082.12,837a515,515,0,0,0-27,46.37c-17.35,30.45-26,42.87-30.65,48-3.9,4.33-5.32,7.31-8.17,13.28-2,4.31-2.66,6.72-2,9.2.38,1.52,1.35,3.59,6.13,7.15a52.63,52.63,0,0,0,13.28,7.15c6.84,2.55,11.72,3.41,21.45,5.11,2,.34,11.64,2,18.39,0a11.73,11.73,0,0,0,4.08-2,13.43,13.43,0,0,0,4.09-6.12c1.89-4.77,5-6.7,9.19-11.24,7.36-7.92,15.5-20.91,26.56-35.76a433.85,433.85,0,0,1,31.67-37.79c11.56-12.23,27.57-27.57,27.58-27.58-29.83,41.71-38.82,56.18-38.82,56.18-17.33,27.93-15.45,30.29-22.47,41.88-.39.64-2.09,4.46-5.11,12.26-1.12,2.89-1.87,5-1,7.15.72,1.84,2.27,2.89,4.09,4.09a22.67,22.67,0,0,0,7.15,3.06,65.22,65.22,0,0,0,12.26,2c17.35.65,34.76-1,52.09,0a8.62,8.62,0,0,0,5.11-1c1.23-.74,2-1.74,4.09-5.1,1.65-2.67,2.48-4,3.06-5.11,1.68-3.21,4.18-6.91,9.2-14.3,8.51-12.57,24.51-30.65,24.51-30.65,13.74-15.52,25.74-28.83,35.76-39.84,7.48-11.24-14.69,22.68-22.48,33.71-11.16,15.82-20.61,32.88-32.69,48a16.13,16.13,0,0,0-3.06,6.12c-.38,1.51-1,4.07,0,6.13,1.35,2.74,5,3.29,9.19,4.09,12.44,2.37,8.56,2.86,17.37,4.09,6,.82,11.13.89,21.45,1,1.34,0,14.36.13,25.54-2.05a21.68,21.68,0,0,0,6.13-2c3.39-1.75,5.51-4,8.17-7.15a108,108,0,0,0,8.17-10.21c3.77-5.67,11.71-14.68,27.58-32.69,5.44-6.17,12.31-13.81,20.43-22.48-7,18-7.15,18.39-7.15,18.39-6,14-10.51,16.21-19.41,31.67a174,174,0,0,0-11.23,23.49,153.92,153.92,0,0,0,34.73,7.15c19.51,1.71,25.65-1.57,36.77-1a17.24,17.24,0,0,0,7.16-1,16.88,16.88,0,0,0,6.12-4.09c3.36-3.28,8.36-8.21,14.31-14.3,16.33-16.7,24.72-27.62,35.75-38.82,17.58-17.83,34.67-36.15,52.1-54.14l31.66-32.68c33,0,46.76.07,64.36,0,62.83-.28,89.67-1.86,117.48-14.31,18-8.07,22.68-14.53,22.47-19.41-.24-5.57-6.76-8.68-15.32-15.32-15.16-11.74-17.16-19.37-28.61-31.67-15.83-17-24.8-16.15-49-32.68-7.1-4.85-25.26-22.71-61.29-58.23-26.47-26.1-34.45-34.12-50.06-43.93-24.29-15.27-39.79-17.72-44.94-18.38-15.42-2-26.78.74-45,5.1-23.27,5.59-30.6,10.89-61.29,21.46-17.2,5.92-13.67,3.82-43.93,13.28-27.74,8.66-46.26,15.27-80.7,27.58-23.24,8.3-35,12.51-39.84,15.32-28.71,16.56-49.79,43-52.09,46C1155.63,751.81,1151,761,1137.81,769Z"/><path class="cls-12" d="M1084.26,836.51l-2.51-1.65c8.22-12.44,17.06-24.6,26.29-36.16.88-1.1.88-1.1,8.47-9.2l12.72-13.59,2.19,2.05-12.72,13.59c-7.44,7.94-7.52,8-8.32,9C1101.21,812.06,1092.42,824.15,1084.26,836.51Z"/><path class="cls-12" d="M1182.83,846.63l-2.19-2c5.73-6.11,11.57-12.3,17.38-18.4,9.12-9.57,18.4-19.2,27.59-28.61l2.15,2.09c-9.18,9.41-18.46,19-27.57,28.59C1194.39,834.35,1188.55,840.53,1182.83,846.63Z"/><path class="cls-12" d="M1271.8,878.19l-2.38-1.83a175.88,175.88,0,0,1,13.4-15.46,174,174,0,0,1,13.39-12.36l1.92,2.31a171.34,171.34,0,0,0-26.33,27.34Z"/><rect class="cls-12" x="1353.95" y="888.54" width="25.37" height="3" transform="translate(-194.36 1362.46) rotate(-49.91)"/><path class="cls-12" d="M1538.32,835.4l-2.18-2.06a371.78,371.78,0,0,0,27.47-32.56c4.21-5.61,8.32-11.43,12.21-17.29l2.5,1.66c-3.93,5.91-8.07,11.77-12.31,17.43A373,373,0,0,1,1538.32,835.4Z"/><path class="cls-4" d="M1078.88,947.79a104.87,104.87,0,0,1-18.3-1.54c-13.6-2.45-41.42-11.57-40.65-24.17.23-3.67,2.86-6.69,5.24-8.29,7.76-5.21,18,1,19.14,1.68l-4.27,6.76c-1.75-1.1-7.43-3.8-10.41-1.8a4,4,0,0,0-1.71,2.14c-.2,3.19,14.4,12.27,34.07,15.8a100.24,100.24,0,0,0,34.38,0c10.87-2,15.51-5.13,16.09-6.37-.13-.3-.76-1.48-3.64-3.41l4.46-6.65c1.91,1.29,7.72,5.19,7.16,10.82-.25,2.52-1.71,4.81-4.34,6.8C1109.19,944.73,1094.27,947.79,1078.88,947.79Z"/><path class="cls-6" d="M1117.38,918.13c-4.55,6.11-8.6,11.9-12.31,17.16l-51.84-48.66c-10.62,18.51-17.8,29.91-22.75,37"/><path class="cls-4" d="M1502.78,911.65l-.06-5c110.76-1.47,236.42-3.37,328.62-6.3,112-3.57,142.61-7.77,149.8-10.42-4.77-1.94-20.71-5.33-70.11-10.27-41.3-4.12-95.1-8.34-152-12.82-67.89-5.32-138.09-10.83-191.53-16.56-28.93-3.11-50.24-6-65.13-8.78-22.44-4.22-26.9-7.55-26.82-11.55.07-3.41,3.46-6.34,19.76-9.54,10.61-2.08,25.74-4.11,46.28-6.19,37.9-3.85,87.84-7.22,136.12-10.49,41.28-2.78,80.26-5.42,110.42-8.23,36.31-3.38,48-6,51.51-7.59-2.39-1.18-9.41-3.17-29.79-5.45-17.76-2-40.73-3.71-65-5.53-8.3-.62-16.71-1.25-25-1.9l.39-5c8.31.65,16.71,1.27,25,1.89,78.77,5.89,100.14,8.54,100.38,16,.13,4.13-3.58,7.42-52.79,12.17-30.71,3-71.51,5.71-114.71,8.63-46.75,3.16-95.08,6.43-132.45,10.12-51.86,5.13-62.72,9.32-64.81,11.19,1.17,1,6,3.69,26.35,7.26,15.34,2.69,36.65,5.46,65.16,8.47,52.82,5.56,121.09,10.92,187.12,16.1,59.14,4.64,115,9,156.89,13.31,22.5,2.29,39,4.36,50.39,6.31,17.61,3,20.91,5.34,20.85,8.57-.07,3.62-3.23,6.63-42.3,9.8-24.38,2-59.32,3.71-106.8,5.27C1745.64,908.18,1616.69,910.14,1502.78,911.65Z"/><path class="cls-4" d="M1697.22,736.8l-.85-4.93c9.36-1.62,33.1-5.73,38.42-8.78-3.65-1.9-19.53-6.09-87.54-9.67-49-2.58-116.39-4.34-189.77-5-86.23-.74-173.37.13-239.06,2.4-93,3.2-113.61,8-118.1,10.22,2.54,1.32,10.81,4,37.64,7.63l-.67,5c-39.79-5.39-42.92-9-42.79-12.75.13-3.63,4.41-6.25,25.94-8.92,14.65-1.81,35.89-3.4,63.11-4.72,50.19-2.43,120-3.87,196.52-4.06,88.87-.21,177.52,1.27,243.21,4.07,35.55,1.52,63.47,3.37,83,5.5,31.38,3.43,34.1,6.75,34.23,10.12C1740.7,728,1732.21,730.74,1697.22,736.8Z"/><path class="cls-4" d="M722.75,774.78c-84.35,0-156.24-.49-215.24-1.47-69.19-1.14-122.12-3-157.33-5.47-18.08-1.27-31.9-2.75-41.08-4.38-11.44-2-16-4.24-16.1-7.86-.16-4,3.47-8.28,48.95-16.35,28.45-5,65.94-10.33,105.63-15.94,40.75-5.75,82.88-11.7,115-17.43,17.27-3.09,30.17-5.83,39.42-8.4,12.18-3.37,14.83-5.62,15.39-6.32-.94-1-6.08-4.12-34.26-6.69l.45-5c35.41,3.22,38.65,7.54,38.9,11.34.32,4.63-3.75,9.94-56.09,19.44-32.58,5.91-76.07,12.06-118.12,18-38.11,5.39-74.11,10.47-102.1,15.33-36.49,6.33-45.59,10.09-47.76,11.78,2.39,1.53,12.92,5,58.66,7.93,36.38,2.35,89.77,4.08,158.69,5.15,131.48,2,324.81,1.73,574.62-.9l0,5C949.61,774,826.73,774.78,722.75,774.78Z"/><path class="cls-4" d="M315.62,669.27l-5.95-.25c-54.36-2.22-105.7-4.31-143.29-6.49-20.12-1.17-34.84-2.27-45-3.38-16.05-1.74-18.9-3.13-18.9-6.15s3.15-3.9,9.76-5c4.94-.79,12.34-1.58,22-2.36,17.89-1.43,43.83-2.85,79.31-4.34,66.32-2.78,156.71-5.41,252.4-8.19,124.3-3.6,252.83-7.33,354.73-12.06C876,618.53,917.25,616,947,613.22c39-3.58,49.22-6.77,51.89-8.26-2.84-1.66-13.76-5-54.4-9.46-31.77-3.5-72.61-6.83-115.86-10.35-47.89-3.9-97.41-7.94-134.63-12.3-59.54-7-64.5-12.16-64.48-16.86,0-6.82,13.36-15,172.08-25.74,98.72-6.69,224.76-12.38,336-17.4,110.55-5,215.82-9.74,247.5-13.69-41.07-3.85-205.92-5.38-365.92-6.86-141-1.3-300.74-2.78-422.72-5.9-66.37-1.7-115.43-3.71-150-6.13-19-1.33-33.52-2.81-43.29-4.39-12.74-2.06-17.51-4.17-17.62-7.81-.12-4,3.13-7.45,45.11-13.09,26.11-3.51,60.86-7,97.64-10.68,40.28-4,81.93-8.21,114.06-12.64,46.86-6.47,54.08-11.1,55.11-12.62-.72-1-5.13-4.31-31.72-8.37-18.92-2.89-46.46-5.74-81.85-8.47l.38-5c109,8.42,118.18,15.64,118.27,21.75.08,5.71-9.39,10.59-56.76,17.27-32.59,4.59-75.5,8.89-117,13-35.1,3.51-68.26,6.84-93.89,10.18-31.43,4.1-40.84,7-43.59,8.47,3.37,1.68,16,4.79,62.16,7.8,35.44,2.31,84.62,4.22,150.33,5.85,120.91,3,277.36,4.45,415.4,5.72,100.68.93,195.77,1.81,264.59,3.16,36.74.72,63.57,1.53,82,2.46,10,.5,17.57,1.05,22.64,1.64,7.08.82,10,1.61,10.1,4.4s-1.89,4.18-22.63,6.16c-12.46,1.19-30.66,2.46-55.62,3.9-46.87,2.7-112.74,5.68-182.48,8.83-109.12,4.92-232.81,10.5-330.7,17-53.36,3.56-93.3,7-122.09,10.52-41.3,5.05-49,9.12-50.33,10.6,1.71,1.9,11.65,6.35,63.26,12.26,36.71,4.2,84.7,8.11,131.1,11.89,152.6,12.43,175.61,16.69,175.49,24.88-.06,4-4,8-51.06,12.59-28.93,2.84-70.13,5.5-126,8.15-102.84,4.87-234.27,8.68-361.37,12.37-92.8,2.7-180.45,5.24-246.12,7.93-68,2.78-96.64,5.16-107.55,6.94,23.41,3.9,111.72,7.51,197.43,11l5.95.24Z"/><path class="cls-4" d="M400.24,391.61c-77.53-3.58-161.52-6.78-242.74-9.88C58.87,378-34.28,374.42-102.8,370.68c-36.67-2-63.48-3.91-82-5.81-30.38-3.14-32.73-5.66-32.72-8.87s2.18-5.59,30.23-9c16.71-2,40.56-4.13,72.9-6.42,59.68-4.21,137.07-8.26,211.92-12.18,90.2-4.72,190.81-10,221-14.14-7.4-.71-18.25-1.34-28.26-1.92-53.2-3.1-65.5-5.19-65.81-11.21-.35-7.11,18.84-10.75,89.91-20.45,22.39-3.06,45.55-6.22,63.32-9.41,23.43-4.19,29.12-7,30.49-8.22-2.25-1.87-13.62-5.9-66.73-10.28-38.27-3.15-87.2-5.68-134.51-8.14C64.15,237.23,48.57,234.72,48.5,228c0-3.07,2.85-5.08,18.71-7.55,10-1.56,24.43-3.16,44-4.89,36.37-3.2,85.73-6.37,133.47-9.43,46.24-3,94-6,130.28-9.15,41.68-3.58,56.58-6.28,61.65-8-13.39-4.1-76.34-7.1-119.08-9.13-89.63-4.26-93-5.47-93.07-9.9,0-2.79,3.29-3.64,7.28-4.4,3.46-.66,8.62-1.34,15.34-2,12.85-1.31,31.75-2.67,56.15-4.05,46.17-2.6,111.37-5.23,188.57-7.6l.16,5c-157,4.81-232.79,9.66-255.74,13,15.23,1.86,50.06,3.52,81.55,5,110,5.23,125.63,7.69,125.69,14.06,0,3.1-2.9,5.13-19,7.65-10.17,1.59-24.77,3.22-44.64,5-36.83,3.25-86.67,6.45-134.86,9.55-45.79,2.94-93.13,6-128.89,9C75.5,223.66,60.66,226.3,55.48,228c4.54,1.33,16.56,3.32,47.33,5.62,28.37,2.13,65.31,4,104.42,6.07,48.93,2.54,99.53,5.16,138.38,8.46,62.53,5.32,67.8,10.06,67.89,14.85.15,7.95-23.23,12.42-98.42,22.68-21.5,2.94-41.82,5.71-57.82,8.51-18.9,3.31-25,5.59-27,6.74,6.68,3.34,40,5.28,60.39,6.46,10.3.6,20,1.17,27.1,1.82,10.46,1,13.72,1.75,13.8,4.78s-3.82,3.75-7,4.35-7.94,1.28-14.32,2c-11.56,1.25-28.31,2.59-51.2,4.11-42.71,2.83-100.27,5.85-161.21,9-72.47,3.79-147.4,7.71-206.29,11.78-71.89,5-95.09,8.64-102,10.8,7.92,2.4,35.53,5.85,114.2,10,67.84,3.62,158.24,7.07,254,10.72,81.23,3.1,165.23,6.3,242.78,9.88Z"/><path class="cls-4" d="M904.37,415.47l-.73-4.88-1.29-.09c-2.29-.15-4.45-.3-6.06-.46-2.12-.22-4.77-.49-4.79-3s2.74-2.91,6.23-3.21c2.45-.21,5.81-.4,9.35-.61,2.73-.15,6.17-.35,9.46-.59-3-.42-6.32-.84-9.19-1.2-23.56-3-26.82-3.87-26.85-7.39,0-4.89,7-6.14,94.82-10.88,32.2-1.74,65.51-3.53,92.37-5.86,35.07-3,44.68-5.87,47.24-7.35-1.64-1-6.68-3-22.07-5.83-13-2.37-29.8-4.7-46-7-53.94-7.47-67.49-10.16-67.31-16.23.1-3.3,2.61-6.29,32.5-9.53,17.74-1.92,42.78-3.66,76.53-5.34,61.7-3.05,139.3-5.19,207.76-7.07,45.9-1.26,90.19-2.48,117.87-3.73l-9.41-.33c-25.57-.89-57.4-2-83.8-4.54-42.7-4.09-49-9.95-49.44-15.15-.68-7.33,14.5-11.4,41.39-18,13.17-3.22,35.15-8.59,36.59-12.18-.24-.44-2.73-3.7-25.84-7.28-14.74-2.28-35.82-4.38-62.65-6.23-49.43-3.42-108.91-5.45-156.71-7.09-21.82-.74-40.66-1.39-54.07-2-7.11-.34-12.28-.65-15.79-1-4.77-.42-7.91-.69-7.93-3.48,0-2.95,3.23-3.21,11.07-3.83,5.57-.44,13.93-.9,24.86-1.38,20.12-.88,49-1.81,88.44-2.87,73.15-2,172.18-4,268-6,137.06-2.85,288.34-6,353.06-8.76-36.58-1.24-100.33-2.42-170.44-3.71-114.2-2.1-256.34-4.72-369.86-9-62.43-2.35-108.86-4.91-141.95-7.81-54.39-4.78-59-9.33-59.13-13.59-.16-6.82,15.37-9.89,68.85-16.92,17.85-2.35,41.45-5.45,49.18-8-7.78-2.17-37.34-5.61-144.78-6.54l0-5c46.6.41,83,1.32,108.07,2.71,13.38.75,23.68,1.64,30.62,2.65,9.6,1.41,12.88,2.91,13,5.95.22,5.05-7.56,6.9-55.5,13.21-15.1,2-30.71,4-43,6.23-15,2.68-19.63,4.66-21.06,5.63,2.42,1.61,13.14,5.34,60.11,9.22,33.34,2.75,81.12,5.28,142,7.52,112.4,4.14,251.62,6.7,363.49,8.76,58.44,1.08,108.91,2,145.29,3,19.28.5,33.29,1,42.82,1.47,5.19.26,9,.52,11.62.78,3.34.35,6.23.64,6.23,3.32,0,2.94-3.21,3.19-11,3.79-5.5.44-13.77.89-24.56,1.36-19.89.86-48.5,1.79-87.46,2.83-72.36,1.93-170.59,4-265.59,6-139.93,2.91-294.54,6.12-358.63,8.95,12.49.51,27.85,1,44.17,1.59,48.76,1.67,109.44,3.75,159.41,7.28,27.23,1.92,48.42,4.11,63,6.49,24,3.94,27.49,7.93,27.64,11.66.28,6.92-14.42,10.85-40.41,17.21-9.3,2.27-18.92,4.62-26.15,7-10.79,3.53-11.43,5.63-11.45,5.72.1,1,2.73,6.53,44.94,10.57,26.25,2.52,58,3.63,83.5,4.52,11.35.4,21.16.74,28.14,1.14,10.42.59,13.43.89,13.43,3.94,0,2.9-2.62,3.39-13.87,4.21-7.08.52-17.43,1-31.64,1.59-26.69,1-62.78,2-104.56,3.18-66.39,1.83-141.64,3.89-202.45,6.81-33.2,1.6-58.24,3.25-76.55,5.07C995.65,338,988.1,340,985.5,341.1c7.09,3.49,38.55,7.85,62,11.1,56.79,7.87,73.27,11.17,73,17.9-.32,8.32-27.41,11.69-144.91,18-33.21,1.79-70.05,3.78-84.65,5.92,4.94.87,11.82,1.73,17,2.39,20.73,2.62,23.7,3.22,23.52,6.68-.14,2.68-2,3.55-14.33,4.44a2.61,2.61,0,0,1,1.33,2.31C918.63,412.73,916.13,413.73,904.37,415.47Z"/></g></svg>