<svg id="Слой_1" data-name="Слой 1" xmlns="http://www.w3.org/2000/svg" xmlns:xlink="http://www.w3.org/1999/xlink" viewBox="0 0 1920 1080"><defs><style>.cls-1{fill:none;}.cls-2{clip-path:url(#clip-path);}.cls-3{fill:#4a6299;}.cls-4{fill:#232f5f;}</style><clipPath id="clip-path"><rect class="cls-1" width="1920" height="1080"/></clipPath></defs><title>Монтажная область 13</title><g class="cls-2"><rect class="cls-3" x="-33.5" y="-30.5" width="2060.5" height="1148"/><polyline class="cls-4" points="1409.07 446.26 1409.87 428.52 1374.06 408.7 1292.14 393.1 1286.85 347.74 1292.17 262.02 1255.74 184.08 1215.88 154.48 1200.62 116.84 1178.21 61.12 1112.18 40.45 1081.03 58.29 1131.48 87.87 1148.6 128.48 1162.61 160.78 1129.6 155.49 1100.94 153.75 1042.39 124.78 964.51 149.21 919.03 161.13 890.68 193.5 920.89 214.51 1018.7 184.71 1117.44 216.9 1129.27 232.3 1103.41 235.01 1033.34 214.65 949.85 260.44 889.73 282.76 872.9 326.68 910.27 335.52 959.18 305.5 1001.54 305.44 1060.42 267.69 1144.52 300.19 1111.81 329.01 1090.3 375.6 1030.49 401.78 1019.89 442.13 1056.95 467.28 1109.29 439.33 1152.59 430.67 1192.78 363.29 1220.19 369.78 1238.88 389.32 1263.47 451.86 1310.5 479.37 1356.6 475.16 1343.81 538.93 1389.58 621.61"/><polygon class="cls-4" points="1389.15 621.85 1343.29 539.02 1355.98 475.71 1310.38 479.89 1263.07 452.2 1263.01 452.04 1238.45 389.6 1219.93 370.23 1193.02 363.86 1152.9 431.11 1109.46 439.81 1056.92 467.87 1019.32 442.34 1030.07 401.42 1089.93 375.21 1111.39 328.7 1111.47 328.63 1143.57 300.36 1060.48 268.25 1001.69 305.94 1001.55 305.94 959.33 306 910.36 336.06 872.23 327.04 889.34 282.38 949.67 259.97 1033.28 214.11 1033.48 214.17 1103.46 234.5 1128.33 231.9 1117.13 217.32 1018.7 185.24 920.8 215.06 889.94 193.59 918.76 160.69 918.91 160.65 964.39 148.72 1042.43 124.24 1101.07 153.26 1129.63 154.99 1161.79 160.15 1148.14 128.68 1131.08 88.22 1080.03 58.28 1112.12 39.91 1112.33 39.98 1178.58 60.71 1178.67 60.93 1201.09 116.65 1216.29 154.16 1256.14 183.75 1256.19 183.87 1292.67 261.93 1287.35 347.76 1292.59 392.68 1374.23 408.23 1374.3 408.26 1410.38 428.23 1409.57 446.28 1408.57 446.23 1409.36 428.81 1373.88 409.18 1291.68 393.52 1291.64 393.16 1286.36 347.79 1291.66 262.12 1255.34 184.4 1215.47 154.8 1215.41 154.67 1200.16 117.03 1177.83 61.52 1112.24 40.99 1082.02 58.3 1131.88 87.53 1149.06 128.28 1163.43 161.42 1129.52 155.99 1100.81 154.25 1042.35 125.31 964.66 149.68 919.31 161.58 891.43 193.41 920.98 213.96 1018.71 184.19 1018.86 184.24 1117.74 216.47 1117.83 216.59 1130.21 232.71 1103.37 235.52 1103.28 235.49 1033.4 215.18 950.09 260.88 890.11 283.15 873.57 326.32 910.19 334.99 959.04 305 959.18 305 1001.4 304.94 1060.37 267.13 1060.6 267.23 1145.47 300.02 1112.21 329.31 1090.68 375.98 1030.91 402.14 1020.47 441.91 1056.98 466.7 1109.12 438.85 1152.27 430.22 1192.54 362.72 1220.45 369.32 1239.34 389.14 1263.87 451.52 1310.61 478.86 1357.22 474.6 1344.34 538.85 1390.02 621.37 1389.15 621.85"/><polyline class="cls-4" points="334.68 573.34 307.22 577.91 306.28 547.42 272.22 519.38 265.02 475.99 288.7 420.78 273.48 370.34 221.83 300.75"/><polygon class="cls-4" points="306.74 578.5 305.79 547.67 271.75 519.64 264.5 475.92 264.56 475.79 288.17 420.75 273.02 370.56 221.43 301.04 222.24 300.45 273.93 370.11 273.95 370.19 289.23 420.81 265.54 476.05 272.68 519.11 306.77 547.18 307.7 577.32 334.6 572.85 334.76 573.83 306.74 578.5"/><polygon class="cls-4" points="136 952.04 75.86 956.46 44.3 910.36 59.93 858.69 87.53 846.14 147.8 776.45 265.41 750.97 208.08 706.76 188.5 630.31 236.28 574.17 238.82 517.15 271.95 474.72 239.03 453.98 218.66 421.8 211.11 386.57 199.26 421.12 217.02 508.23 155.24 599.08 146 648.17 110.2 673.96 68.29 641.25 76.5 558.55 77.22 512.19 52.96 423.45 69.7 338.02 50.96 288.87 43.22 247.34 30.54 185.12 45.91 125.05 40.19 79.16 65.7 68.86 79.23 88.92 82.42 122.37 64.45 167.89 71.6 190.52 85.15 141.11 114.44 113.7 139.37 84.5 161.04 89.22 151.4 125.72 124 144.57 102.32 209.32 121.13 191.09 128.94 165.26 156.22 142.2 176.79 111.22 215.32 104.18 220.39 129.06 186.68 152.59 164.22 192.14 134.73 213.25 123.27 260.4 144.03 235.72 165.25 225.74 187.91 192.5 213.74 192.71 227.08 206.46 194.02 250.99 161.79 322.83 113.3 355.87 110.3 398.19 134.04 470.12 123.88 559.28 158.45 493.59 150.25 437.35 148.38 376.44 175 332.38 210.74 304.5 203.71 286.07 226.23 248.63 280.51 263.58 361.31 510.25 329.21 586.29 289.63 629.2 301.54 666.21 367.79 720.28 388.09 750.37 372.07 789.44 333.67 800.68 295.53 820.32 203.37 833.41 180.33 854.05 216.84 851.37 283.94 863.28 313.81 854.77 371.03 825.3 403.7 837.63 413.13 864.31 379.41 887.84 347.39 896.5 382.01 902.38 406.42 925.85 389.82 946.01 357.21 935.78 336.13 949.96 359.94 954.52 388.12 960.87 399.9 993.69 372.3 1006.24 341.39 981.15 320.17 991.13 340.09 1008.61 372.69 1018.85 367.03 1044.52 332.66 1047.05 301.23 1005.15 258.15 1004.11 185.26 944.21 136 952.04"/><path class="cls-4" d="M332.43,1047.57,301,1005.65l-43-1-.13-.1-72.71-59.76L136,952.54,75.61,957,43.75,910.45l15.76-52.12,27.71-12.6L147.53,776l.16,0L264.25,750.7l-56.62-43.65,0-.16L188,630.19l.17-.2,47.66-56,2.55-57,.1-.13,32.79-42-32.56-20.5-.06-.1L218.19,422,211,388.43l-11.22,32.72,17.77,87.18-.12.18-61.71,90.76-9.27,49.19-.16.12-36.11,26-42.42-33.1,8.24-83,.72-46.25L52.45,423.47l0-.11,16.71-85.3-18.69-49-7.76-41.62L30,185.11l0-.11L45.4,125,39.64,78.84,65.89,68.25,79.72,88.74v.13l3.2,33.57-.05.11L65,167.91l6.59,20.85L84.7,140.84l.11-.09,29.29-27.42L139.18,84l22.48,4.89L151.84,126l-.15.11-27.27,18.76-21,62.64,17.24-16.71L128.51,165l27.33-23.1,20.65-31.1,39.22-7.17L221,129.29l-33.9,23.65L164.6,192.48l-29.43,21.07-10.91,44.9,19.46-23.13,21.2-10L187.64,192l26.32.21,13.78,14.21-33.29,44.83-32.26,71.91-.12.08-48.29,32.9-3,42,23.74,71.95v.11l-9.86,86.51,33.25-63.19-8.17-56.08-1.89-61.11.08-.13,26.67-44.13.07-.06,35.45-27.66-7-18.31.13-.21L226,248l54.9,15.13,80.94,247.1-32.26,76.36L290.2,629.32,302,665.92l66.19,54,20.49,30.37-16.21,39.54-38.63,11.31-38.12,19.65h-.09l-92,13.07-21.83,19.56,35.11-2.58h.06l67,11.88,29.77-8.47L371,824.75l.2.08,32.89,12.42,9.64,27.25-34.19,23.82-29.82,8.07,32.53,5.52,24.85,23.9L390,946.59l-.32-.1-32.38-10.16L337.41,949.7,360,954l28.46,6.42,12,33.5-28.3,12.88-30.91-25.09-20.24,9.52,19.26,16.91,32.94,10.34L367.43,1045Zm-74.1-44,43.16,1,31.41,41.87,33.72-2.48,5.48-24.86-32.26-10.13-.08-.07-20.49-18,22.19-10.44.25.2,30.67,24.9,26.89-12.24L387.75,961.3,359.83,955l-25-4.79,22.29-15,.23.07,32.29,10.14,16.09-19.55-24-23-36.72-6.23,34.14-9.24,33.33-23.26L403.3,838l-32.24-12.17-57,29.36L284,863.79l-.12,0-67-11.9-37.92,2.79,24.25-21.72.15,0,92.08-13.08,38.06-19.6L371.7,789l15.82-38.6-20.11-29.81-66.3-54.12-12-37.43.2-.21L328.78,586l32-75.78L280.12,264l-53.66-14.78-22.2,36.91,7.07,18.54-36,28.06-26.5,43.85,1.87,60.77L159,493.68l-35.89,68.19,10.46-91.7-23.75-71.92v-.1l3-42.56,48.57-33.09,32.22-71.8,32.82-44.2-12.9-13.3-25.36-.2-22.58,33.14-21.24,10-22.07,26.23,12-49.41.15-.11,29.4-21.05,22.46-39.54.09-.07,33.45-23.34-4.91-24.08-37.84,6.91-20.55,30.91-27.16,23-7.81,25.82-.09.09L101.2,211.1l22.38-66.85.14-.09L151,125.41l9.45-35.81-20.86-4.55-24.74,29L85.59,141.38l-14,50.91-7.72-24.42.06-.16,17.93-45.42-3.16-33.2L65.51,69.48l-24.78,10,5.68,45.6L31.05,185.13l12.66,62.11,7.74,41.54L70.21,338l0,.14L53.47,423.43l24.25,88.69v.08L77,558.56,68.81,641l41.4,32.3,35.33-25.45,9.23-49,.06-.09,61.66-90.67-17.74-87,0-.13,12.44-36.26,7.9,36.91,20.26,32,33.3,21-33.38,42.74-2.54,57-.11.13-47.61,55.94,19.47,76,58,44.76L148.07,776.9,87.83,846.55l-.1,0L60.34,859.05,44.85,910.28l31.26,45.66,59.83-4.4,49.47-7.86.17.14Z"/><polygon class="cls-4" points="1126.88 846.34 1098.93 880.54 1042.04 967.91 930.61 1007.25 761 976.96 681.65 1039.37 615.25 1035.89 576.31 1007.7 491.95 1029.43 450.76 998.74 440.9 960.18 468.72 928.35 446.37 855.85 461.2 799.57 440.72 736.67 463.43 711.71 502.75 732.79 498.64 811.04 511.49 792.69 515.73 757.25 535.57 741.64 548.18 773.21 534.21 812.9 551.55 799.54 562.53 771.59 583.25 784.56 571.4 829.12 588.75 815.76 601.72 795.04 618.33 841.09 557.19 873.55 567.18 909.74 555.71 947.18 600.88 947.17 650.06 961.63 722.3 898.84 802.54 910.18 844.97 871.99 874.17 859.25 849.94 777.14 882.24 705.13 965.6 657.18 1000.27 585.29 944.63 648.95 871.75 678.42 773.44 785.02 653.64 802.52 538.55 684.74 429.48 679.02 393.53 639.09 396.39 584.55 445.42 556.22 492.1 572.93 541.26 542.22 604.77 464.7 660.3 448.59 716.71 461.06 796.33 439.08 865.84 473.63 847.13 513.07 761.52 513.34 815.31 530.42 832.79 559.87 803.22 579.72 749.8 555.52 760.54 577.49 797.73 593.7 789.25 619.41 765.54 618.17 724.1 592.22 738.84 628.66 721.24 646.76 701.02 624.3 682.04 578.13 659.46 600.72 609.17 607.6 609.55 645.66 657.48 683.84 789.26 664.59 911.66 552.12 1000.75 485.46 1052.67 492.93 1092.12 556.82 1043.72 663.66 979.72 750.65 983.48 815.05 1034.39 796.32 1088.41 718.31 1134.7 696.96 1175.02 699.07 1126.88 846.34"/><path class="cls-4" d="M1290.25,701.41q22,28.17,43.94,56.33l39,30.75L1355.93,845l-29.62,17.58-33.26,41.31L1272.6,929.1l45.31,2.38,126-31.66,103.7,29.35-7.92-31.51L1500,878.84l-19-48.83-46.82-19.19,7.27-47.45,97.66,7.51,13.45,62.88,42.18,16.56,1.5-28.62L1547.71,745l7.52-52.22-6-67.28,27.11-15.32,27.88,61.25-3.12,59.62,24.73,30,9.8,41.17,14.68-51.85-31.14-44.68,13.54-75.82-30.14-63.76,43.92-62.27L1662.39,519l-3.75,71.55,33.53,44.81-2.88,54.86L1708,743.85l-2.25,42.93,26.35-46.45-18.22-63.13,14.93-56.62-27.88-61.25,45.17-86.12,2.87-54.86,27.49-22.47,30.51,56.6-1.75,33.39-22.58,65.78L1809,641.52l-19.31,94.66,10.57,72.3L1751.09,880l.9,74.19-30.36,77.33-70.79,27.38-79.84-28.1-134.2-40.52-149.25,18.49-123.26,24.63-70.3-27.6,3-57.24,98.27-49.86,48.32-54.86,42.05-26.5-2.52-43.18q-18-31.62-36-63.25Z"/><polygon class="cls-4" points="1369.15 396.66 1390.76 322.5 1424.28 267.67 1433.48 149.12 1525.29 99.66 1597.47 21 1658.16 21.31 1675.21 71.63 1630.44 116.15 1548.69 141.83 1524.8 176.41 1561.11 186.23 1617.79 161.03 1688.42 182.21 1768.38 142.01 1902.8 167.45 1889.89 199.81 1828.58 219.07 1766.78 213.27 1696.02 236.73 1609.58 227.91 1579.08 258.1 1632.3 261.06 1686.82 253.47 1737.63 261.49 1828.65 247.66 1869.64 291.99 1832.35 333.85 1770.11 331.57 1697.07 315.46 1633.35 339.79 1567.59 337.07 1586.8 369.79 1650.33 361.52 1744.86 348.12 1764.93 373.8 1735.54 409.49 1650.46 418.69 1591.8 445.43 1542.1 442.9 1463.74 411.84 1433.98 479.64 1427.13 666.35 1380.76 680.31 1213.93 613.38 1172.25 560.04 1334.08 551.33 1377.67 574.54 1385.2 498.66 1369.15 396.66"/><polyline class="cls-4" points="1088.52 718.44 1111.8 665.88 1150.08 625.84 1172.09 560.5 1279.31 585.67 1231.17 627.15 1293.55 705.72 1268.92 727.89 1248.23 712.14 1174.58 699.48"/><path class="cls-4" d="M226.5,248.5l117.55-64.08,50.49,36.63,32.33,68.79-21.56,88.61,23.46,64.95,2.49-81.08,34.06-73.72-5.1-117L523,85l145.55,2L774,21.09,809,42.56l17.32,47.53-58.15,68.54,6.49,118.68-81.12,68.07L647,421.07,601.13,437l-29.44-31.72,24.24-31.63,35.89-24.47-60,19.3L551,343.65l26.49-22.23,34.82-12.29L557,310.42l-9.45-14.63,21.78-21.1,37.6-9-43.27-31.4L596,232.54l47.91,13.4,9-33,24.24-31.63L633.38,156,546.12,206.7,502.89,350.17l-.67,130.33-19,41.29-74.93,14.92L363.56,469.9,350.3,393.58l-.76-61.42-43.33-48.28-29.48,38.84"/><polygon class="cls-4" points="408.11 537.27 363.07 469.99 349.81 393.67 349.04 332.35 306.24 284.67 277.13 323.02 276.33 322.42 306.18 283.1 350.03 331.96 350.8 393.57 364.04 469.71 408.56 536.15 482.92 521.35 501.72 480.39 502.39 350.1 502.41 350.03 545.69 206.37 633.38 155.47 677.93 181.21 653.4 213.2 644.27 246.55 595.95 233.04 565.08 234.73 608.09 265.94 569.56 275.14 548.17 295.86 557.25 309.92 615.44 308.56 577.75 321.86 551.71 343.71 572.01 367.9 634.96 347.65 596.28 374.02 572.35 405.25 601.27 436.42 646.67 420.66 693.13 345.05 693.19 344.99 774.12 277.09 767.63 158.46 825.72 89.99 808.56 42.89 774.04 21.68 668.7 87.53 668.56 87.53 523.27 85.54 460.73 171.73 465.83 288.7 431.76 362.43 429.19 446.03 404.79 378.48 426.34 289.89 394.14 221.38 344.02 185.01 226.74 248.94 226.26 248.06 344.09 183.83 394.93 220.72 427.39 289.78 427.35 289.95 405.83 378.42 428.35 440.76 430.77 362.2 430.81 362.11 464.82 288.5 459.71 171.42 459.82 171.28 522.76 84.53 523.02 84.53 668.42 86.53 774.03 20.5 809.38 42.22 809.44 42.39 826.86 90.19 826.67 90.41 768.65 158.8 775.14 277.53 693.9 345.71 647.34 421.49 600.99 437.58 571.04 405.31 595.65 373.24 628.68 350.72 571.68 369.06 550.3 343.58 577.33 320.95 609.19 309.7 556.72 310.93 546.88 295.72 569.06 274.23 605.74 265.47 562.21 233.89 596.06 232.04 596.14 232.06 643.57 245.32 652.49 212.75 676.44 181.5 633.38 156.62 546.54 207.03 503.38 350.25 502.72 480.61 483.62 522.23 408.11 537.27"/><polyline class="cls-4" points="393.5 639.5 361.5 657.5 388.5 750.5 293.5 706.5 309.5 639.5 407.88 577.91"/><polygon class="cls-4" points="389.29 751.41 292.92 706.78 309.06 639.18 309.24 639.08 407.62 577.49 408.15 578.33 309.94 639.82 294.08 706.22 387.71 749.59 360.91 657.26 393.25 639.06 393.75 639.94 362.09 657.74 389.29 751.41"/></g></svg>