<svg id="Слой_1" data-name="Слой 1" xmlns="http://www.w3.org/2000/svg" xmlns:xlink="http://www.w3.org/1999/xlink" viewBox="0 0 1920 1080"><defs><style>.cls-1{fill:none;}.cls-2{clip-path:url(#clip-path);}.cls-3{fill:#eae3d8;}.cls-4{fill:#eb3122;}.cls-5{fill:#22351d;}.cls-6{fill:#ed7c42;}.cls-7{fill:#201a3f;}</style><clipPath id="clip-path"><rect class="cls-1" x="0.5" y="-0.5" width="1920" height="1080"/></clipPath></defs><title>Монтажная область 15</title><g class="cls-2"><g id="back6"><rect class="cls-3" x="-20" y="-26" width="1960" height="1140"/><polygon class="cls-4" points="136.5 1027.64 83.11 607.85 319.55 376.54 697.08 552.16 1017.4 492.19 1414 929.12 1414 989.09 136.5 1027.64"/><path class="cls-4" d="M126.85,1038.94,71.51,603.81,317.29,363.35,698.52,540.7l322.9-60.45,4.13,4.55L1425,924.87v74.89ZM94.72,611.89l51.43,404.46L1403,978.42v-45L1013.39,504.14,695.63,563.62,321.8,389.72Z"/><path class="cls-5" d="M1492.66,779.37c-76,56.41-173.11,55.78-228.81,55.41-70.33-.46-105.5-.69-137.28-23.75-52.69-38.21-63.82-106.11-76.27-182-8.91-54.36-16-101.75,7.63-150.4,18.55-38.13,57-79.16,83.89-71.24,9,2.65,13.28,9.77,30.51,39.58,42.49,73.5,41.65,73.94,45.76,79.15,26.57,33.68,76,33.25,144.91,31.67,113.81-2.62,128.57-31,213.55-23.75,46.64,4,104.88,8.89,137.29,55.41,19.67,28.23,29.17,70.84,15.25,110.82-1.08,3.1-21.49,59.21-68.64,71.24-47.84,12.2-77.62-32.61-129.66-15.84C1514.1,761,1506.6,769,1492.66,779.37Z"/><path class="cls-6" d="M501.17,90.72c115.31-40.12,212.3-46.2,251.68-47.5C813.29,41.22,872,49.81,989.29,67c70.87,10.37,149.76,21.91,244,47.49,23.63,6.41,114.41,31.66,114.41,31.66h0V264.86h0c-190.3-77.32-221.18-87.07-221.18-87.07-124.41-39.3-227.53-45.89-266.94-47.5-56.18-2.29-148-5.35-259.31,23.75C441.91,195.45,295.24,288.6,295.24,288.61h0l-53.39-71.25h0S368.78,136.77,501.17,90.72Z"/><polygon class="cls-7" points="1424.02 621.06 1591.81 573.57 1454.52 557.74 1585.9 534.79 1469.78 431.09 1614.69 518.16 1614.69 478.58 1576.55 344.01 1652.82 494.41 1736.72 320.27 1683.33 502.33 1843.49 351.93 1698.58 533.99 1874 470.66 1708.75 582.73 1713.84 621.06 1660.45 676.47 1622.31 605.23 1424.02 621.06"/></g></g></svg>