<svg id="Layer_1" data-name="Layer 1" xmlns="http://www.w3.org/2000/svg" viewBox="0 0 1920 1080"><defs><style>.cls-1{fill:#333;}.cls-2{fill:#fff;}.cls-3{fill:#fdc954;}.cls-4{fill:#fa6469;}</style></defs><rect class="cls-1" x="-21.7" y="-4.98" width="1978.7" height="1088.98"/><path class="cls-2" d="M1039.34,214.88c-.57-7.7-1.57-23.38,4.34-41.21,3.64-11,9-27.26,24.35-38,20.19-14.16,44.34-9.31,60.29-6.11,10.56,2.11,24.35,5.07,36.21,16.62,7.92,7.71,11.48,15.84,13.63,20.88,8.53,20,6.33,38.21,4.13,56.38-2.93,24.15-10,40.72-16,54.78-8.29,19.49-12.66,29.36-23.68,35.83-12.21,7.16-25.24,6-31.37,5.45-18.55-1.67-30.93-11.17-35.75-15A76.79,76.79,0,0,1,1053.09,275c-3.22-7-5-15.39-8.68-32.08C1041.39,229.07,1039.88,222.13,1039.34,214.88Z"/><path class="cls-2" d="M1431.69,461.15c15.94-16.51,23.91-24.77,31-27.76,3.59-1.51,18.62-7.58,35.4-2.18,12.22,3.93,19.09,11.94,27.76,22.32,12.82,15.34,18.84,29.4,26.14,46.83,6.37,15.2,12.8,30.84,16.33,52.81,2,12.26,4.06,26,1.09,43.56-2.45,14.49-4.69,27.74-15.79,37-13.63,11.41-31.63,9.33-37,8.71-18-2.08-29.45-11.73-47.92-27.77-30.2-26.23-44.25-51.85-47.91-58.8-14.48-27.48-14-43-13.61-47.92a67.74,67.74,0,0,1,6-23.41C1415.66,479.31,1418.86,474.44,1431.69,461.15Z"/><path class="cls-2" d="M1100.42,785.79c14.15-7.41,27.66-5.78,34.85-4.91,5.3.65,25.69,3.12,40.83,19.06,7,7.36,10.75,19.17,18,42.47,7.29,23.52,10.94,35.29,12,51.73,1.22,19.25,2,32.06-6,45.19-11.34,18.55-31.75,23.71-37,25-6,1.52-21.66,5.47-38.12-2.18a53,53,0,0,1-21.23-18.51c-6.1-8.73-6.93-14.79-12.53-45.74-3.44-19-5.65-38.29-9.8-57.17-3.64-16.58-5.91-23-2.72-32.13C1083.57,794.61,1096.85,787.66,1100.42,785.79Z"/><path class="cls-2" d="M700.36,779.41c4.49,3.78,8.32,8.7,16,18.54,6.65,8.56,10,12.94,11.12,17.64,2.35,9.91-3,18.9-8.6,28.12-19.81,32.43-23.94,36.44-31.81,50-13.46,23.26-13.3,32.13-27.31,44.61-11.38,10.14-19.87,11.74-21.91,12.08-13.82,2.31-25.18-4.6-35.41-10.82-10.88-6.61-22.2-13.5-28.23-26.85-8-17.83-1.61-36,3.23-49.69,2.77-7.81,12.45-21.89,31.82-50.05,8.48-12.33,15.12-21.64,26.24-31.84,10-9.13,15.11-13.73,23.55-15.57C678.87,761.3,697,776.57,700.36,779.41Z"/><path class="cls-3" d="M900.47,720.39a109.93,109.93,0,0,1-43-8.36c-43-18.25-59.72-61.76-68.69-85.13-7.7-20-19-60.61-7.83-107,4.08-17,9.65-28.71,16.7-43.5,15.53-32.57,26.75-56.11,50.79-68.27,18.63-9.42,35.71-7.09,64-3.23l1.58.22c29,3.94,59,8,90.47,29.49,2.56,1.74,62.57,43.31,67.58,102.39.86,10.11.29,23.22,0,29.52-1.11,25.46-1.78,40.83-9.13,57.9-7.71,17.9-19,28.67-29,38.18-15.91,15.19-30.79,22.93-48,31.88-23.78,12.36-38.12,19.82-58.68,23.38A152,152,0,0,1,900.47,720.39ZM786,521.05l5,1.21c-10.47,43.73.16,82,7.42,100.93,9,23.48,24.11,62.78,63.08,79.31,27.1,11.5,54,6.86,64.07,5.11,19-3.28,32-10.05,55.66-22.36,16.53-8.59,30.8-16,45.65-30.18,9.69-9.26,19.71-18.83,26.59-34.79,6.6-15.33,7.2-29.16,8.29-54.26.26-6.09.81-18.75,0-28.2-1.89-22.29-12.65-44.67-32-66.54a186.58,186.58,0,0,0-31.1-28.17c-29.46-20.09-58.23-24-86-27.79L911,415.1c-27.21-3.71-42.2-5.75-57.95,2.21-20.89,10.57-31.48,32.77-46.12,63.5-6.79,14.24-12.16,25.48-16,41.45Z"/><path class="cls-2" d="M484.75,392.09c.89,8.27-2.91,15.48-10.5,29.89-4.88,9.25-10.22,19.38-19.47,27.39-11,9.55-21.9,11.1-47.82,15.66-45.69,8-48.85,11.06-60.77,11.33-19.41.44-33.75.56-45.66-9.67-1.45-1.24-13.08-11.53-14.45-27.7-1.26-14.81,6.84-25.5,21.25-44.5,13-17.13,25.12-27.63,36.11-37,20.72-17.74,31.36-26.62,45.15-27.45,10.41-.63,19.11,2.71,30.69,7.15,3.07,1.18,14.71,5.79,29.86,16.52C470.24,368.61,483.22,377.8,484.75,392.09Z"/><path class="cls-3" d="M1555.28,796.72l-5.43-.32a409.46,409.46,0,0,0-.54-56.79c-.47-5.78-1-10.94-1.6-16.41-.86-8.07-1.84-17.22-2.76-30.45-.78-11.12-1.33-22.33-1.64-33.32l5.44-.16c.31,10.92.86,22.06,1.63,33.1.92,13.14,1.89,22.23,2.74,30.25.59,5.51,1.14,10.71,1.61,16.55A414.19,414.19,0,0,1,1555.28,796.72Z"/><path class="cls-4" d="M269.57,503a5.67,5.67,0,0,1-4-1.85c-2.94-2.88-5.08-8.86-5.1-14.22,0-10.09,7.22-19.86,16.5-22.25,2.89-.74,10.15-2,15.07,2.77,4.06,3.9,3.94,9.48,3.87,12.48h0c-.23,10.43-4.81,15.26-8.61,17.47a17.78,17.78,0,0,1-12.44,1.81c-1,1.7-2.74,3.75-5.24,3.79Zm12.89-34.12a17.63,17.63,0,0,0-4.25.55c-7.09,1.82-12.84,9.67-12.82,17.48,0,5.57,2.87,10.61,4.15,11.16a6.84,6.84,0,0,0,1.85-2.74l.91-1.92,2,.62c1.78.55,6.36,1.56,10.52-.87,4-2.3,6-6.79,6.18-13.34h0c.06-2.56.14-6.43-2.36-8.83A8.78,8.78,0,0,0,282.46,468.88Z"/><path class="cls-4" d="M1552,674.47a28.08,28.08,0,0,1-6.59-.76,30.58,30.58,0,0,1-8.33-3.5c-5-3.11-7.86-7.37-8.23-12.31-.6-7.91,5.15-15.61,13.68-18.31l3.33-1.06-.14,3.5c-.07,1.72.1,4,1.36,5.15h0c1.32,1.19,3.57.81,7.12.06,3.81-.82,8.13-1.74,11.74.86,5.07,3.66,5.62,12.31,2.94,17.77C1565.74,672.36,1558.47,674.47,1552,674.47Zm-11-28.94c-4.7,2.58-7.67,7.26-7.31,12,.62,8.18,11.6,11.11,12.84,11.42,5.3,1.3,14.84,1,17.91-5.24,1.94-4,1.24-9.72-1.41-11.63-1.85-1.33-4.76-.71-7.85-.05-3.81.81-8.14,1.74-11.41-1.2h0A9.13,9.13,0,0,1,1541.08,645.53Z"/><path class="cls-4" d="M1143.7,1016.05c-16.07,0-27.31-1.44-30.82-9.29-3.3-7.41,2-17.75,8.9-23.08,2.06-1.6,5.26-3.51,11.81-4,7.47-.59,18,.8,31.13,4.13,42.35,10.71,47.63,16.77,47,21.73-.94,7.73-19,9.54-54.1,10.32C1152.69,1015.94,1148,1016,1143.7,1016.05Zm-6.53-31.64c-8.35,0-11.12,2.16-12.38,3.14h0c-6.61,5.14-9.22,13.2-7.43,17.21,3.12,7,20.29,6.61,40.18,6.17,9-.2,21.23-.47,31.53-1.51,16.7-1.69,17.78-4.4,17.82-4.52s-.44-3.12-17-8.82c-9.75-3.35-20.95-6.19-26.34-7.55C1151.25,985.43,1142.9,984.41,1137.17,984.41Z"/><path class="cls-4" d="M587.25,1003.54c-6.8-2.08-11.9-5-15.89-9.76a38.91,38.91,0,0,1-8.09-17.25c-1.27-6.68-.23-12,2.84-14.64,3.4-2.91,7.93-1.76,14.8,0l.84.21c15.62,3.93,21.86,4.87,25.59,5.43a36.19,36.19,0,0,1,9.33,2.4c18.46,7.06,38.27,21.82,42.38,31.58a7.48,7.48,0,0,1,.33,6c-2.59,6-13.41,4.68-39.56,1.52C605.89,1007.28,595.36,1006,587.25,1003.54Zm-6.69-36.72-.85-.21c-5.88-1.48-9-2.2-10.41-1-3.32,2.85-1.74,16,5.82,25,7.17,8.55,19.07,10.31,45.28,13.47,11.84,1.43,20.4,2.46,26.38,2.62,7.12.2,8-1,8.1-1.23s.23-.73-.35-2.11c-3.19-7.58-21.19-21.86-39.61-28.9a31,31,0,0,0-8.31-2.14C602.79,971.77,596.4,970.8,580.56,966.82Z"/><path class="cls-2" d="M1108.66,175.1c-17.41-.92-34.66-8-44.68-18.62h0c-7.07-7.52-10.2-16.22-11.88-20.89a73.14,73.14,0,0,1-.31-47.63c3.26-9.46,7-20.19,17.4-26.83,8.46-5.37,19-6.65,31.22-3.79a78.09,78.09,0,0,1,19,7.34c19.44,10.42,27.54,27.79,30.2,33.49,11.7,25.11,12.48,46.56,2.19,60.41-7.24,9.75-19.78,15.61-35.3,16.5A74,74,0,0,1,1108.66,175.1Zm-41.9-21.23c10.8,11.5,30.71,18.49,49.56,17.41,14.38-.83,25.9-6.15,32.46-15,5.45-7.34,12.37-24.45-2.59-56.52-2.53-5.43-10.22-21.93-28.54-31.75-8.52-4.56-30.1-14.06-46.41-3.69-9.32,5.92-12.64,15.55-15.84,24.86a69.25,69.25,0,0,0,.28,45.09c1.59,4.41,4.55,12.62,11.08,19.57Z"/></svg>