<svg id="Layer_1" data-name="Layer 1" xmlns="http://www.w3.org/2000/svg" viewBox="0 0 2560 1600"><defs><style>.cls-1{fill:#fde24e;}.cls-2{fill:#209350;}.cls-3{fill:#ef2c1c;}</style></defs><rect class="cls-1" x="-39.5" y="-22.5" width="2627" height="1641"/><path class="cls-2" d="M66.31,1440.21l115-181.36a4.43,4.43,0,0,1,7.46,0l75.52,117.38a4.43,4.43,0,0,0,7.45,0l75.1-117.33a4.42,4.42,0,0,1,7.46,0l114.56,181.33a4.43,4.43,0,0,1-3.74,6.79H70A4.42,4.42,0,0,1,66.31,1440.21Z"/><path class="cls-3" d="M81,198.54V670.33a31.55,31.55,0,0,0,31.54,31.55H321.27a31.54,31.54,0,0,1,31.54,31.54v402.45a31.54,31.54,0,0,0,31.54,31.54h934.34a31.55,31.55,0,0,1,31.55,31.54v199.13a31.54,31.54,0,0,0,31.54,31.54H2291a31.54,31.54,0,0,0,31.54-31.54V1198.56a31.54,31.54,0,0,1,30.82-31.53l101.87-2.33a31.54,31.54,0,0,0,30.82-31.53V198.54A31.54,31.54,0,0,0,2454.46,167H112.54A31.54,31.54,0,0,0,81,198.54Z"/></svg>