<svg id="Layer_1" data-name="Layer 1" xmlns="http://www.w3.org/2000/svg" xmlns:xlink="http://www.w3.org/1999/xlink" viewBox="0 0 1920 1080"><defs><style>.cls-1{fill:none;}.cls-2{fill:#fa6cc4;}.cls-12,.cls-3{fill:#000200;}.cls-4{fill:#5f6360;}.cls-5{fill:#2e3192;}.cls-6{fill:#030302;}.cls-7,.cls-8{fill:#f8fbf8;}.cls-7{stroke:#000;stroke-miterlimit:10;stroke-width:4px;}.cls-9{fill:#050806;}.cls-10{fill:#060606;}.cls-11{fill:#f3f2f1;}.cls-12{opacity:0.3;}.cls-13{fill:#b8176f;}.cls-14{fill:#ad2c24;}.cls-15{fill:#fcee21;}.cls-16{clip-path:url(#clip-path);}</style><clipPath id="clip-path"><rect class="cls-1" x="543.76" y="882.39" width="142.56" height="101.83" transform="translate(1230.08 1866.61) rotate(180)"/></clipPath></defs><rect class="cls-2" x="-16" y="-33" width="1968" height="1137"/><rect class="cls-3" x="-606.91" y="-275.55" width="2478.81" height="1310.69" transform="translate(1265 759.58) rotate(180)"/><polygon class="cls-3" points="-620 1055.5 1889.36 1055.5 1889.36 -293.01 1871.18 -275.55 1871.18 1035.13 -595.27 1035.13 -620 1055.5"/><rect class="cls-1" x="-595.27" y="-275.55" width="2466.45" height="1310.69"/><rect class="cls-1" x="-595.27" y="-275.55" width="2466.45" height="1310.69"/><rect class="cls-4" x="-586.91" y="-261.01" width="2449.72" height="1288.87" transform="translate(1275.91 766.86) rotate(180)"/><line class="cls-1" x1="1871.18" y1="1035.13" x2="1889.36" y2="1055.5"/><polygon class="cls-5" points="1818.08 -83.53 1818.08 -223.68 1677.49 -223.68 1617.49 -153.61 687.78 -151.9 687.78 -223.68 544.59 -223.68 544.59 -153.61 -337.79 -150.45 -410.59 -223.68 -550.76 -223.68 -550.76 -83.53 -480.35 -15.16 -481.8 774.74 -550.76 844.8 -550.76 981.21 -416.91 981.21 -343.61 912.94 543.76 912.94 544.8 981.21 687.03 981.21 686.32 911.49 1608.6 911.49 1682.14 981.21 1818.08 981.21 1818.08 844.21 1748.26 770.38 1749.71 -15.16 1818.08 -83.53"/><path class="cls-6" d="M1751.16,854.75c-10.23-.1-18.21,3.94-21.82,5.82-8,4.15-12.65,9.23-17.45,14.55-8.08,8.94-15.33,17-17.46,29.09-2,11.37,1.56,20.46,4.36,27.64,2.57,6.56,9.3,23.79,27.64,33.46,4.11,2.16,16.63,8.76,32,5.82,19.56-3.75,29.94-20.29,36.37-30.55s14.55-23.22,11.63-39.28c-2.77-15.29-14-24.41-23.27-32C1775.54,863.08,1765.5,854.89,1751.16,854.75Z"/><path class="cls-7" d="M1748.77,981.36c17.2,0,33.44-8.87,48.32-26.4,5.44-6.4,19.87-23.4,18.06-47.05-1.56-20.28-14.23-37.75-37.65-51.9-7.82-4.73-16.7-10.06-29.31-10h0c-23.34.18-39,19.16-47.4,29.36s-17.22,20.89-18,37.15c-1,21.35,12.48,36.16,19.73,44.11,7.51,8.25,21.5,23.6,43.86,24.66C1747.18,981.34,1748,981.36,1748.77,981.36Zm-.26-117.88c7.6,0,13.33,3.46,20,7.47,6.83,4.13,27.61,16.69,29.27,38.29,1.26,16.5-9.4,29-14,34.42-4.43,5.21-17.9,21.07-36.58,20.2-15.14-.71-25.56-12.15-31.78-19-5.93-6.51-15.86-17.4-15.19-31.53.49-10.46,6.46-17.7,14-26.86s18.87-22.9,34.06-23Z"/><path class="cls-8" d="M1781.71,927.49a123.07,123.07,0,0,0-48-46.55"/><path class="cls-8" d="M1777.94,929.68l7.55-4.39a127.56,127.56,0,0,0-49.71-48.19l-4.15,7.67a119,119,0,0,1,46.31,44.91Z"/><path class="cls-8" d="M1761.35,946.4a154.6,154.6,0,0,1-46.55-48"/><path class="cls-8" d="M1758.94,950l4.81-7.29a150,150,0,0,1-45.24-46.65l-7.43,4.58A159.05,159.05,0,0,0,1758.94,950Z"/><path class="cls-8" d="M1764.26,879.48a130.43,130.43,0,0,0-49.46,48"/><path class="cls-8" d="M1718.56,929.7a126.16,126.16,0,0,1,47.8-46.4l-4.21-7.64A134.84,134.84,0,0,0,1711,925.27Z"/><path class="cls-8" d="M1735.16,947.85a240.87,240.87,0,0,0,27.64-24.73,243.3,243.3,0,0,0,17.46-20.36"/><path class="cls-8" d="M1737.81,951.32a246.3,246.3,0,0,0,45.91-45.91l-6.93-5.31a236.82,236.82,0,0,1-17.14,20,239.76,239.76,0,0,1-27.14,24.29Z"/><polygon class="cls-9" points="1854.45 -223.18 1854.45 -76.26 1784.62 -3.52 1783.17 768.92 1774.98 768.92 1774.44 -9.34 1845.72 -77.71 1847.26 -223.18 1854.45 -223.18"/><polygon class="cls-9" points="1854.45 840.2 1854.45 987.13 1826.81 1017.68 1669.2 1017.68 1599.88 947.85 722.69 947.85 722.69 987.31 695.32 1017.68 536.78 1017.68 507.39 987.13 517.58 984.22 539.4 1007.5 692.14 1008.95 713.96 985.67 713.96 939.12 1601.33 939.12 1672.61 1007.5 1822.44 1008.95 1845.72 985.67 1845.17 840.2 1854.45 840.2"/><polygon class="cls-10" points="519.03 939.12 519.03 946.98 -327.61 947.85 -401.8 1017.68 -557.21 1017.68 -585.09 990.04 -585.09 974.56 -555.99 1007.5 -403.25 1007.5 -332.46 939.12 519.03 939.12"/><polygon class="cls-11" points="1783.17 768.92 1854.45 840.2 1845.17 840.2 1774.98 768.92 1783.17 768.92"/><polygon class="cls-11" points="1836.09 981.36 1680.74 981.36 1610.53 913.31 686.32 911.49 708.67 928.94 1598.5 929.7 1675.52 1000.22 1818.08 1000.22 1836.09 981.36"/><polygon class="cls-11" points="705.23 984.22 529.21 984.22 543.9 1000.22 686.32 1001.88 705.23 984.22"/><polygon class="cls-11" points="536.49 912.94 524.75 928.94 -333.42 931.85 -407.61 1001.68 -550.76 1001.68 -569.09 982.76 -411.91 982.76 -341.45 912.21 536.49 912.94"/><path class="cls-12" d="M1794.81,867.84c-3.93-7.08-10.49-9.89-21.83-14.54-12.47-5.13-18.77-7.71-27.63-7.28-10.9.54-18.42,5.29-26.19,10.19-7.12,4.49-23.79,15-32,36.36-2.79,7.26-6.93,16.95-4.37,29.1.69,3.26,3.13,14.82,13.1,21.82,11.73,8.24,26.17,4.7,33.45,2.91,12.44-3,22.52-11.78,42.19-29.1,21.34-18.79,25.59-26.65,26.18-34.91A26,26,0,0,0,1794.81,867.84Z"/><circle class="cls-13" cx="1235.47" cy="331.79" r="47.28"/><circle class="cls-14" cx="1458.77" cy="566.72" r="47.28"/><circle class="cls-15" cx="177.35" cy="614.35" r="45.82"/><circle class="cls-11" cx="478.3" cy="123.39" r="47.28"/><g class="cls-16"><path class="cls-6" d="M616.5,923.12c-10.23-.1-18.22,3.94-21.82,5.82-8,4.15-12.66,9.23-17.46,14.55-8.08,8.94-15.33,17-17.46,29.09-2,11.37,1.56,20.46,4.37,27.64,2.56,6.56,9.3,23.8,27.64,33.46,4.1,2.16,16.62,8.76,32,5.82,19.57-3.75,29.94-20.29,36.37-30.55s14.55-23.22,11.64-39.28c-2.78-15.29-14-24.41-23.28-32C640.87,931.45,630.83,923.26,616.5,923.12Z"/><path class="cls-7" d="M614.1,1049.73c17.2,0,33.44-8.87,48.33-26.4,5.43-6.4,19.86-23.4,18.05-47.05-1.56-20.28-14.22-37.74-37.65-51.9-7.82-4.72-16.7-10.06-29.31-10h0c-23.34.18-39,19.16-47.4,29.36s-17.22,20.89-18,37.15c-1,21.35,12.47,36.16,19.72,44.11,7.51,8.25,21.5,23.6,43.86,24.66C612.52,1049.71,613.31,1049.73,614.1,1049.73Zm-.26-117.88c7.6,0,13.33,3.46,20,7.47,6.83,4.13,27.62,16.69,29.27,38.29,1.27,16.5-9.4,29.06-14,34.42s-17.9,21.07-36.57,20.2c-15.15-.71-25.56-12.15-31.79-19-5.93-6.51-15.86-17.4-15.19-31.53.5-10.46,6.46-17.7,14-26.86s18.88-22.9,34.06-23Z"/><path class="cls-8" d="M647.05,995.86a123.19,123.19,0,0,0-48-46.55"/><path class="cls-8" d="M643.27,998.05l7.55-4.38a127.5,127.5,0,0,0-49.71-48.2L597,953.15a118.76,118.76,0,0,1,46.3,44.9Z"/><path class="cls-8" d="M626.68,1014.77a154.6,154.6,0,0,1-46.55-48"/><path class="cls-8" d="M624.28,1018.41l4.8-7.28a150.16,150.16,0,0,1-45.24-46.66l-7.43,4.58a158.95,158.95,0,0,0,47.87,49.36Z"/><path class="cls-8" d="M629.59,947.85a130.43,130.43,0,0,0-49.46,48"/><path class="cls-8" d="M583.89,998.07a126,126,0,0,1,47.8-46.39L627.48,944a134.84,134.84,0,0,0-51.11,49.61Z"/><path class="cls-8" d="M600.49,1016.22a242.2,242.2,0,0,0,45.1-45.09"/><path class="cls-8" d="M603.15,1019.69a246.3,246.3,0,0,0,45.91-45.91l-6.93-5.3a238.5,238.5,0,0,1-44.29,44.28Z"/><path class="cls-12" d="M660.14,936.21c-3.93-7.08-10.48-9.89-21.82-14.54-12.48-5.12-18.78-7.71-27.64-7.28-10.9.54-18.42,5.29-26.19,10.19-7.12,4.49-23.79,15-32,36.36-2.79,7.26-6.93,16.95-4.36,29.1.68,3.26,3.12,14.82,13.09,21.82,11.74,8.24,26.17,4.7,33.46,2.91,12.43-3,22.52-11.78,42.18-29.1,21.34-18.79,25.59-26.65,26.19-34.91A26.13,26.13,0,0,0,660.14,936.21Z"/></g><rect class="cls-3" x="251" y="1032" width="1629" height="17"/></svg>