<svg id="Слой_1" data-name="Слой 1" xmlns="http://www.w3.org/2000/svg" viewBox="0 0 1920 1080"><defs><style>.cls-1{fill:#92a8b4;}.cls-2{fill:#5e7f68;}.cls-3{fill:#010900;opacity:0.7;}.cls-4{fill:#d1523b;}</style></defs><title>Монтажная область 12</title><rect class="cls-1" y="-1" width="1920" height="1081"/><polygon class="cls-2" points="0 1080 0 433.02 1920 1054.6 1920 1080 0 1080"/><path class="cls-3" d="M1317.13,1057.6H1317a3.43,3.43,0,0,1-2.47-1.17c-1.48-1.63-4-4.36-1.16-69.42,1.32-30.72,3.24-61.29,3.61-67.1,14.87-232.84,31.73-496.65-194.93-589-51.9-21.13-103.13-30.33-152.29-27.35-95.29,5.79-165.93,56.82-208.42,98.61C712.93,449.84,675,511.83,662.43,564c-1.88,7.8-3.51,17-4.59,23.17l-.17,1c-.08.49-5.86,33.87-8.37,84.7.14,7,.25,13.88.32,20.35.3,24.87.2,45.54.11,55.64-.22,25-.22,25-1.74,26.06L646.5,776l-1.65-.84c-1.8-.92-1.8-.92-1.77-15-1.47-32.15-1-61.88.22-87.3-.74-37-2.42-75.32-5.94-97.69-11-69.93-19-120.45-76.82-172.83-24.73-22.4-55.82-42.79-92.41-60.6l2.62-5.39c37.1,18.06,68.67,38.77,93.82,61.55C624,451.62,632.07,503,643.28,574.17c1.86,11.79,3.2,27.91,4.16,45.52,2.2-20.36,4.27-32.31,4.32-32.61l.17-1c1.1-6.2,2.74-15.56,4.67-23.54C669.44,509.39,708,446.3,757.15,397.93c43.22-42.51,115.13-94.42,212.27-100.33,50.05-3,102.17,6.31,154.91,27.79,103,41.95,165.66,122.34,191.53,245.76,22.56,107.64,14.71,230.37,7.13,349.05-1.06,16.63-2,33.54-2.8,49.47,9.2-53.74,34.5-126.24,103.25-197.67q4.3-4.49,9.1-9.57c24-25.33,56.86-60,104.5-91.17,56.34-36.85,120.79-59.82,191.56-68.26,61.1-7.29,125.69-4.14,192,9.37l-1.2,5.88c-65.68-13.38-129.63-16.5-190.09-9.29-69.84,8.33-133.43,31-189,67.32-47,30.77-79.63,65.16-103.42,90.28q-4.82,5.09-9.14,9.6C1319.39,888.77,1320.68,1004,1321.1,1041.89c.12,10.55.09,13.1-1.57,14.72A3.42,3.42,0,0,1,1317.13,1057.6Z"/><circle class="cls-4" cx="344.64" cy="310.87" r="80"/><path class="cls-3" d="M646.08,774.08c140.11,80,235.66,120.1,295.68,141.61,18,6.43,67.08,24,73,20s-34.5-27.75-48-35.68C918.58,871.76,827.89,828.45,646.08,774.08Z"/><path class="cls-3" d="M1395.69,1080q-30.87-10-66.09-20.54,18.81,10.74,36.55,20.54Z"/></svg>