<svg id="Layer_1" data-name="Layer 1" xmlns="http://www.w3.org/2000/svg" viewBox="0 0 1920 1080"><defs><style>.cls-1{fill:#e7e2dc;}.cls-2{fill:#eb4b1e;}.cls-3{fill:#fff;}</style></defs><rect class="cls-1" x="-40.12" y="-460.35" width="2000" height="2000"/><path d="M1603.19,459.54c1.87.5,3.41.87,4.93,1.32,9,2.71,18.07,5.4,27.08,8.16,6.48,2,12.92,4.08,19.4,6.07,4.18,1.29,8.41,2.44,12.6,3.72,5.7,1.75,11.39,3.57,17.08,5.35,3.42,1.08,6.84,2.16,10.27,3.19l29.38,8.8a15.82,15.82,0,0,1,1.51.52c1.49.61,1.9,1.32,1.44,2.76-.57,1.77-1.29,3.48-1.89,5.24-.85,2.51-1.63,5.05-2.5,7.56-2.29,6.66-4.62,13.3-6.9,19.95q-5.31,15.45-10.58,30.91c-3.7,10.8-7.38,21.61-11.12,32.4-2.7,7.78-5.55,15.5-8.23,23.29-2.88,8.41-5.57,16.89-8.47,25.3-2.2,6.4-4.61,12.73-6.87,19.11-.62,1.75-1,3.59-1.59,5.35-2.13,6.14-4.33,12.26-6.51,18.39a9.48,9.48,0,0,1-.58,1.14c-2,.84-3.9-.26-5.71-.8-8.9-2.64-17.76-5.44-26.62-8.21-6.21-1.94-12.38-4-18.6-5.88-7.11-2.18-14.27-4.22-21.39-6.37s-14.2-4.4-21.31-6.57c-6.22-1.9-12.47-3.69-18.68-5.64-3.9-1.22-8-2-11.83-4a10,10,0,0,1,.21-2.3c2.46-7.15,5-14.29,7.5-21.43.26-.75.5-1.51.75-2.27,2.69-8.06,5.33-16.15,8.09-24.18s5.62-15.77,8.36-23.68c2.86-8.28,5.58-16.6,8.43-24.88,2.39-6.9,4.9-13.75,7.31-20.64.58-1.62,1-3.31,1.52-5q3.81-11.32,7.66-22.65,4.83-14.13,9.72-28.24,2.4-7,4.9-13.9A12.63,12.63,0,0,1,1603.19,459.54Z"/><path class="cls-2" d="M1810.65,769.29q-2.57-79.06-5.52-158.11c-.26-6.85,1.27-14.3-5-20.77-25.36-3.72-51.36-7.77-77.42-11.31-47.75-6.48-95.53-12.65-143.3-19-47.13-6.24-94.24-12.63-141.39-18.69-35.06-4.5-70.18-8.5-105.26-12.91-12.73-1.6-25.37-4-38.11-5.53-28.06-3.45-56.17-6.53-84.22-10.06a3.47,3.47,0,0,1-1.78-1l-38.07,1.33-6.87,1.87A3810.27,3810.27,0,0,0,572,731l-71,30c376.35,94.69,652.67,158,690.35,157.68,12.6-.12,24.87-1.13,24.87-1.13,25.19-5.09,50.43-9.89,75.64-14.84,34.05-6.7,68.15-13.2,102.13-20.24,31.45-6.51,62.74-13.8,94.16-20.41,15.71-3.31,31.62-5.63,47.35-8.83,32.74-6.67,65.39-13.77,98.13-20.41,20.77-4.22,41.66-7.79,62.44-11.9,32.78-6.49,65.51-13.21,98.26-19.81,5.68-1.15,11.46-2.07,15.72-7.35C1812.54,785.94,1810.91,777.56,1810.65,769.29Z"/><path d="M1413.83,818.69c1.79-.76,3.23-1.42,4.7-2,8.79-3.43,17.56-6.87,26.37-10.25,6.32-2.43,12.69-4.74,19-7.15,4.09-1.57,8.13-3.26,12.22-4.83,5.57-2.13,11.17-4.2,16.76-6.3,3.35-1.26,6.71-2.52,10-3.82q14.29-5.55,28.57-11.15c.5-.19,1-.38,1.51-.52,1.55-.43,2.31-.13,2.83,1.3.64,1.74,1.13,3.53,1.74,5.28.87,2.51,1.82,5,2.69,7.5,2.29,6.65,4.54,13.32,6.84,20,3.55,10.29,7.14,20.57,10.7,30.86,3.73,10.79,7.49,21.57,11.18,32.38,2.66,7.79,5.17,15.63,7.86,23.42,2.9,8.4,6,16.74,8.89,25.15,2.21,6.4,4.21,12.87,6.35,19.29.59,1.76,1.45,3.43,2.05,5.19q3.13,9.22,6.19,18.5a10.39,10.39,0,0,1,.25,1.26c-1.09,1.91-3.24,2.2-5,2.89-8.64,3.4-17.34,6.64-26,9.91-6.09,2.29-12.21,4.49-18.28,6.82-7,2.66-13.84,5.46-20.77,8.14s-13.9,5.28-20.84,8c-6.07,2.33-12.1,4.77-18.19,7.06-3.83,1.44-7.49,3.37-11.78,4.13a9.38,9.38,0,0,1-1.26-1.93c-2.46-7.16-4.86-14.34-7.28-21.51-.26-.75-.53-1.5-.8-2.25-2.84-8-5.75-16-8.52-24s-5.27-15.88-8-23.8c-2.84-8.28-5.82-16.52-8.67-24.8-2.37-6.9-4.61-13.85-6.94-20.76-.55-1.63-1.29-3.21-1.86-4.83q-4-11.28-7.9-22.57-4.9-14.12-9.74-28.24-2.38-7-4.69-14A12.51,12.51,0,0,1,1413.83,818.69Z"/><path d="M1558.83,782.69c1.79-.76,3.23-1.42,4.7-2,8.79-3.43,17.56-6.87,26.37-10.25,6.32-2.43,12.69-4.74,19-7.15,4.09-1.57,8.13-3.26,12.22-4.83,5.57-2.13,11.17-4.2,16.76-6.3,3.35-1.26,6.71-2.52,10-3.82q14.29-5.55,28.57-11.15c.5-.19,1-.38,1.51-.52,1.55-.43,2.31-.13,2.83,1.3.64,1.74,1.13,3.53,1.74,5.28.87,2.51,1.82,5,2.69,7.5,2.29,6.65,4.54,13.32,6.84,20,3.55,10.29,7.14,20.57,10.7,30.86,3.73,10.79,7.49,21.57,11.18,32.38,2.66,7.79,5.17,15.63,7.86,23.42,2.9,8.4,6,16.74,8.89,25.15,2.21,6.4,4.21,12.87,6.35,19.29.59,1.76,1.45,3.43,2.05,5.19q3.13,9.22,6.19,18.5a10.39,10.39,0,0,1,.25,1.26c-1.09,1.91-3.24,2.2-5,2.89-8.64,3.4-17.34,6.64-26,9.91-6.09,2.29-12.21,4.49-18.28,6.82-7,2.66-13.84,5.46-20.77,8.14s-13.9,5.28-20.84,8c-6.07,2.33-12.1,4.77-18.19,7.06-3.83,1.44-7.49,3.37-11.78,4.13a9.38,9.38,0,0,1-1.26-1.93c-2.46-7.16-4.86-14.34-7.28-21.51-.26-.75-.53-1.5-.8-2.25-2.84-8-5.75-16-8.52-24s-5.27-15.88-8-23.8c-2.84-8.28-5.82-16.52-8.67-24.8-2.37-6.9-4.61-13.85-6.94-20.76-.55-1.63-1.29-3.21-1.86-4.83q-4-11.28-7.9-22.57-4.9-14.12-9.74-28.24-2.38-7-4.69-14A12.51,12.51,0,0,1,1558.83,782.69Z"/><path d="M1701.83,761.69c1.79-.76,3.23-1.42,4.7-2,8.79-3.43,17.56-6.87,26.37-10.25,6.32-2.43,12.69-4.74,19-7.15,4.09-1.57,8.13-3.26,12.22-4.83,5.57-2.13,11.17-4.2,16.76-6.3,3.35-1.26,6.71-2.52,10-3.82q14.29-5.55,28.57-11.15c.5-.19,1-.38,1.51-.52,1.55-.43,2.31-.13,2.83,1.3.64,1.74,1.13,3.53,1.74,5.28.87,2.51,1.82,5,2.69,7.5,2.29,6.65,4.54,13.32,6.84,20,3.55,10.29,7.14,20.57,10.7,30.86,3.73,10.79,7.49,21.57,11.18,32.38,2.66,7.79,5.17,15.63,7.86,23.42,2.9,8.4,6,16.74,8.89,25.15,2.21,6.4,4.21,12.87,6.35,19.29.59,1.76,1.45,3.43,2.05,5.19q3.13,9.22,6.19,18.5a10.39,10.39,0,0,1,.25,1.26c-1.09,1.91-3.24,2.2-5,2.89-8.64,3.4-17.34,6.64-26,9.91-6.09,2.29-12.21,4.49-18.28,6.82-7,2.66-13.84,5.46-20.77,8.14s-13.9,5.28-20.84,8c-6.07,2.33-12.1,4.77-18.19,7.06-3.83,1.44-7.49,3.37-11.78,4.13a9.38,9.38,0,0,1-1.26-1.93c-2.46-7.16-4.86-14.34-7.28-21.51-.26-.75-.53-1.5-.8-2.25-2.84-8-5.75-16-8.52-24s-5.27-15.88-8-23.8c-2.84-8.28-5.82-16.52-8.67-24.8-2.37-6.9-4.61-13.85-6.94-20.76-.55-1.63-1.29-3.21-1.86-4.83q-4-11.28-7.9-22.57-4.9-14.12-9.74-28.24-2.38-7-4.69-14A12.51,12.51,0,0,1,1701.83,761.69Z"/><path d="M1251.31,844.42c1.8-.76,3.25-1.42,4.73-2,8.83-3.45,17.65-6.91,26.5-10.3,6.35-2.44,12.76-4.76,19.12-7.19,4.11-1.57,8.17-3.28,12.28-4.85,5.6-2.15,11.23-4.22,16.84-6.33,3.38-1.27,6.75-2.53,10.11-3.84q14.37-5.58,28.72-11.21a15.82,15.82,0,0,1,1.51-.52c1.56-.44,2.33-.13,2.85,1.3.64,1.75,1.14,3.55,1.75,5.31.87,2.52,1.82,5,2.69,7.54,2.31,6.69,4.58,13.39,6.88,20.08q5.37,15.51,10.76,31c3.75,10.84,7.52,21.68,11.23,32.54,2.68,7.83,5.2,15.72,7.9,23.54,2.92,8.45,6,16.83,9,25.28,2.21,6.43,4.22,12.94,6.38,19.39.59,1.77,1.45,3.45,2,5.22,2.11,6.19,4.16,12.39,6.23,18.6a12.75,12.75,0,0,1,.25,1.26c-1.1,1.92-3.26,2.21-5,2.9-8.69,3.42-17.44,6.68-26.18,10-6.11,2.3-12.27,4.51-18.37,6.85-7,2.68-13.9,5.49-20.88,8.19s-14,5.3-20.94,8c-6.1,2.35-12.16,4.8-18.28,7.1-3.85,1.45-7.53,3.39-11.84,4.15a9.94,9.94,0,0,1-1.27-1.94c-2.47-7.19-4.88-14.41-7.32-21.61-.25-.76-.53-1.52-.8-2.27-2.86-8.05-5.78-16.08-8.56-24.16s-5.3-16-8-23.92c-2.86-8.33-5.86-16.61-8.72-24.93-2.38-6.94-4.63-13.92-7-20.87-.55-1.64-1.29-3.22-1.86-4.86q-4-11.33-8-22.68-4.92-14.17-9.78-28.38-2.4-7-4.72-14A13.48,13.48,0,0,1,1251.31,844.42Z"/><path class="cls-3" d="M453.67,700.09c9.36-10.18,21-22.86,16.49-46.54-2.88-15.12-10.44-24-20.91-36.35-5.72-6.73-12.19-14.35-19.89-25-31.89-44.31-52.72-96.06-53.08-131.83-.2-19.89,5.8-27.37,14.89-38.69,9.38-11.69,21.05-26.24,28.2-57.92,9.31-41.24,2.43-76.68-11.26-147.32-12.83-66.17-19.26-99.39-39.78-112.69-14.48-9.39-37.75-13.34-146.77,49-40,22.9-68.24,41.69-86.3,57.46-16.16,14.11-21.5,23.45-25.25,31.1-12.28,25.08-14.68,49.37-18.67,89.61-5,50.39-3.83,89.66,3.06,208.22,4,68.88,6.27,101.1,7.63,120.35,1.42,20.19,1.76,25,2,42.49v.43c.22,19.2,1.18,70.88,5.09,135.9,4,65.79,8.06,96.49,23.24,116.3,10.07,13.13,20,14.88,43.85,19.09l2,.36c47.14,8.33,60.85,11.65,68.21,13.44,6.13,1.48,8,1.93,20.07,3.13,28.06,2.79,51.39,5.11,74.81,5.11a315.05,315.05,0,0,0,47.11-3.45c33.81-5,56.54-13.07,69.48-24.59,9.05-8.06,13.18-17.63,12.62-29.24-.77-16.13-7.66-30.24-14.32-43.88-7.22-14.78-14-28.74-13.27-44.43.44-8.9,2.9-12.66,6.31-17.86,4.4-6.71,9.87-15.07,9.26-33.18-.58-17.34-6.13-28.65-11-38.63-4.05-8.25-7.55-15.38-8.53-25.61C437.39,718.72,443.53,711.13,453.67,700.09Z"/><path class="cls-2" d="M526.15,494.32c-4.74-23-37.07-43-59.09-39.35-12.82,2.11-25.37,12.69-23.87,29.27,1.75,19.37,21.95,38.06,40.29,43C508,533.94,530.73,516.52,526.15,494.32Z"/><path class="cls-3" d="M1568,424q-5.51,124-11,248l-132.7,29.22L1286,434a359.79,359.79,0,0,1,282-10Z"/><path class="cls-2" d="M1534.55,293.66c-59.11-10.12-177-5-240.8,5-84.72,13.36-100,39.59-38.52,48.54,67.74,9.87,233.41-.56,289-20.08C1570.49,317.89,1584.54,302.22,1534.55,293.66Z"/><path class="cls-2" d="M1534.55,196.58C1452.67,184,1146.68,217,956.64,253.49c-161.92,31.1-322.68,80.7-250.42,93.73S1080,336.3,1274.49,302C1481.74,265.52,1614.94,208.91,1534.55,196.58Z"/><path class="cls-2" d="M1438.23,106.2c-84.34-12.64-497.74,43.38-770.54,95.4C400.23,252.61,116,328.75,195.74,342.2c78.45,13.24,509.05-34.26,809.06-92.06C1291.84,194.84,1519.88,118.43,1438.23,106.2Z"/><path class="cls-2" d="M927.75,101.18C848,88.59,547.27,118.57,359.48,154.74c-172.11,33.15-316.54,84.45-240.79,97.08,76.8,12.8,378.36-14.43,568.27-50.22C871.62,166.81,1005.94,113.52,927.75,101.18Z"/><path class="cls-2" d="M446.16,104.52c-50-6.27-178.3,8.9-250.42,23.44-69.49,14-137.58,37.64-96.32,45.19,42.68,7.81,202.42-1.59,289-20.09C465.57,136.56,494.75,110.63,446.16,104.52Z"/><path class="cls-2" d="M157.21,260.19C93.59,259,32.26,268.74,32,280.27c-.23,10.29,48.18,19.65,106,20.09,69,.52,124.92-11.92,115.58-23.44C246.89,268.73,207.39,261.15,157.21,260.19Z"/></svg>