<svg id="Layer_1" data-name="Layer 1" xmlns="http://www.w3.org/2000/svg" viewBox="0 0 1920 1080"><defs><style>.cls-1{fill:#eae6db;}.cls-1,.cls-3,.cls-4,.cls-5,.cls-6,.cls-7,.cls-9{stroke:#000;}.cls-1,.cls-6,.cls-7,.cls-9{stroke-miterlimit:10;}.cls-1,.cls-3,.cls-4,.cls-5,.cls-7{stroke-width:2px;}.cls-2{fill:#287fb7;}.cls-3,.cls-7{fill:#fbc25a;}.cls-3,.cls-4,.cls-5{stroke-linejoin:bevel;}.cls-4{fill:#009861;}.cls-5,.cls-8,.cls-9{fill:#020303;}.cls-6{fill:none;stroke-width:0.25px;}</style></defs><rect class="cls-1" x="-88" y="-62" width="2094" height="1174"/><rect class="cls-2" x="35" y="35.97" width="1844.11" height="1008"/><rect class="cls-3" x="36.5" y="35.53" width="1847" height="107.33"/><rect class="cls-4" x="36.5" y="937.13" width="1847" height="107.33"/><path class="cls-5" d="M36.5,1044.47V36.47L89.41,142.88V937.31Z"/><path class="cls-5" d="M1883.5,1044.5V35.5q-25,53.7-49.91,107.41V937.35Q1858.55,990.92,1883.5,1044.5Z"/><path class="cls-6" d="M1851,737.53l-.08,6.25"/><path class="cls-7" d="M1632.09,754.11c2-.16,4.4,4.71,6.22,8.39a56.47,56.47,0,0,1,4.49,13.89c4.36,18.17,20.91,29.74,27.68,32.83a46.1,46.1,0,0,0,8.42,2.82,46.59,46.59,0,0,0,8.77.92c4.35,0,5.31-.66,8,0a15.51,15.51,0,0,1,6,3.14c7,5.31,12.73,10.65,13.4,11.27,8.94,8.36,9.44,8.92,12.37,11.46l5.11,4.39c1.68,1.45,2.5,2.16,3.71,2.11.68,0,1.61-.31,3.54-2.24,3.28-3.28,3.23-5.13,6.08-8a10.07,10.07,0,0,1,4.45-3.08c2.65-.73,5,.41,7,1.36a45.81,45.81,0,0,1,5,2.62,2.68,2.68,0,0,0,.81.42c1.66.48,3.84-.94,4.65-2a4,4,0,0,1,1.22-1.1s.2-.1.41-.18a5.52,5.52,0,0,1,3.3.19,6.84,6.84,0,0,1,3.32,2.34,5.73,5.73,0,0,0,1.76,1.89,3.26,3.26,0,0,0,.93.41c1,.2,1.81-.73,3.65-2.23,3-2.39,4.32-2.68,5.13-2.73a5.74,5.74,0,0,1,.75,0c2.75.23,9.16,1.46,12.75,2.17l1.83.18,0,.11a17.07,17.07,0,0,0,11.22-.19c4.65-1.86,7-5.63,9.8-10.15,2.49-4.07,4.09-7.9,6.29-14.76,3.82-11.92,3.23-13.84,6.17-21.62,2.84-7.53,6.07-16.07,9.54-15.91,5.47.26,8.75,21.95,10.22,31.62,1.64,10.82,1.88,18.13,2.38,29.58.35,7.83,2,44.62-2.85,77.83-.52,3.57-1.58,10.23-4.79,11-4.45,1-10.14-9.57-11.75-12.26-2.29-3.83-3.55-8.07-5.9-16.42-2.7-9.58-2.23-12.92-5.64-19.54-2.58-5-5.13-10.59-11.14-13.21a19.49,19.49,0,0,0-13-.56l-.12,0-1.83.24c-3.56.84-9.93,2.29-12.66,2.61a4.85,4.85,0,0,1-.75,0c-.82,0-2.19-.26-5.22-2.55-1.89-1.43-2.68-2.33-3.73-2.09a2.86,2.86,0,0,0-.91.43,5.79,5.79,0,0,0-1.7,2,6.8,6.8,0,0,1-3.24,2.45,5.55,5.55,0,0,1-3.28.31,4.52,4.52,0,0,1-.42-.18,3.87,3.87,0,0,1-1.26-1c-.84-1-3.07-2.36-4.71-1.82a2.55,2.55,0,0,0-.8.46,46.73,46.73,0,0,1-4.9,2.78c-2,1-4.3,2.25-7,1.61a10,10,0,0,1-4.55-2.93c-2.94-2.74-3-4.58-6.35-7.74-2-1.87-2.94-2.11-3.62-2.12-1.21,0-2,.73-3.64,2.24l-4.94,4.56c-2.85,2.65-3.33,3.22-12,11.89-.64.64-6.19,6.18-13,11.73a15.72,15.72,0,0,1-5.91,3.35c-2.64.72-3.63.09-8,.25a50,50,0,0,0-8.74,1.22,60,60,0,0,0-10.94,3,38.59,38.59,0,0,0-12.3,7.51c-5.4,5-7.86,10.52-9.6,14.54-.59,1.35-1.77,5.18-4.14,12.86-1.49,4.79-2.56,9-5.69,13.81-1.93,3-2.9,4.45-4,4.41a1.32,1.32,0,0,1-.55-.16"/><path class="cls-8" d="M1625.69,909.05c2.55,26.81,5.21,34.4,7.35,35.52,7.78-9,13.92-56.1,13.43-97.21s-7.77-86.82-14.41-93.22l0,0c-2.26.18-5,6.8-6.62,38.37"/><path class="cls-6" d="M1851,536.78l-.08,6.25"/><path class="cls-7" d="M1632.09,553.36c2-.16,4.4,4.7,6.22,8.39a56.56,56.56,0,0,1,4.49,13.88c4.36,18.18,20.91,29.75,27.68,32.84a46.1,46.1,0,0,0,8.42,2.82,47.11,47.11,0,0,0,8.77.91c4.35,0,5.31-.66,8,0a15.51,15.51,0,0,1,6,3.14c7,5.31,12.73,10.64,13.4,11.27,8.94,8.35,9.44,8.91,12.37,11.46,2.51,2.15,4,3.45,5.11,4.39,1.68,1.45,2.5,2.16,3.71,2.11.68,0,1.61-.31,3.54-2.25,3.28-3.28,3.23-5.12,6.08-8a10.18,10.18,0,0,1,4.45-3.09c2.65-.72,5,.42,7,1.37a47.74,47.74,0,0,1,5,2.61,2.69,2.69,0,0,0,.81.43c1.66.48,3.84-.94,4.65-2a4,4,0,0,1,1.22-1.09,3.74,3.74,0,0,1,.41-.19,5.58,5.58,0,0,1,3.3.2,6.81,6.81,0,0,1,3.32,2.33,5.75,5.75,0,0,0,1.76,1.9,3,3,0,0,0,.93.4c1,.2,1.81-.73,3.65-2.22,3-2.39,4.32-2.68,5.13-2.73a5.74,5.74,0,0,1,.75,0c2.75.22,9.16,1.46,12.75,2.17l1.83.18,0,.11a17,17,0,0,0,11.22-.2c4.65-1.85,7-5.63,9.8-10.14,2.49-4.07,4.09-7.9,6.29-14.76,3.82-11.92,3.23-13.84,6.17-21.62,2.84-7.53,6.07-16.08,9.54-15.91,5.47.26,8.75,21.94,10.22,31.62,1.64,10.81,1.88,18.12,2.38,29.57.35,7.83,2,44.63-2.85,77.83-.52,3.57-1.58,10.24-4.79,11-4.45,1-10.14-9.58-11.75-12.27-2.29-3.82-3.55-8.07-5.9-16.42-2.7-9.58-2.23-12.91-5.64-19.54-2.58-5-5.13-10.58-11.14-13.21a19.47,19.47,0,0,0-13-.55l-.12,0-1.83.24c-3.56.83-9.93,2.29-12.66,2.61a5.11,5.11,0,0,1-.75,0c-.82,0-2.19-.26-5.22-2.55-1.89-1.42-2.68-2.33-3.73-2.09a3.09,3.09,0,0,0-.91.44,5.67,5.67,0,0,0-1.7,1.95,6.73,6.73,0,0,1-3.24,2.45,5.47,5.47,0,0,1-3.28.31,3.32,3.32,0,0,1-.42-.17,3.87,3.87,0,0,1-1.26-1c-.84-1-3.07-2.36-4.71-1.82a2.75,2.75,0,0,0-.8.45,44.92,44.92,0,0,1-4.9,2.79c-2,1-4.3,2.24-7,1.61a10.12,10.12,0,0,1-4.55-2.93c-2.94-2.74-3-4.58-6.35-7.75-2-1.86-2.94-2.11-3.62-2.11-1.21,0-2,.73-3.64,2.23l-4.94,4.56c-2.85,2.65-3.33,3.23-12,11.89-.64.65-6.19,6.18-13,11.73a15.45,15.45,0,0,1-5.91,3.35c-2.64.73-3.63.1-8,.25a49.31,49.31,0,0,0-8.74,1.23,58.47,58.47,0,0,0-10.94,3,38.71,38.71,0,0,0-12.3,7.5c-5.4,5-7.86,10.52-9.6,14.55-.59,1.34-1.77,5.18-4.14,12.85-1.49,4.8-2.56,9-5.69,13.82-1.93,3-2.9,4.45-4,4.41a1.32,1.32,0,0,1-.55-.16"/><path class="cls-8" d="M1625.69,708.29c2.55,26.81,5.21,34.41,7.35,35.53,7.78-9,13.92-56.11,13.43-97.21s-7.77-86.83-14.41-93.22l0,0c-2.26.18-5,6.8-6.62,38.36"/><path class="cls-6" d="M1851,336l-.08,6.25"/><path class="cls-7" d="M1632.09,352.6c2-.16,4.4,4.71,6.22,8.39a56.6,56.6,0,0,1,4.49,13.89c4.36,18.17,20.91,29.74,27.68,32.83a46.1,46.1,0,0,0,8.42,2.82,46.59,46.59,0,0,0,8.77.92c4.35,0,5.31-.66,8,0a15.78,15.78,0,0,1,6,3.14c7,5.31,12.73,10.65,13.4,11.27,8.94,8.36,9.44,8.92,12.37,11.47,2.51,2.14,4,3.45,5.11,4.38,1.68,1.45,2.5,2.17,3.71,2.11.68,0,1.61-.3,3.54-2.24,3.28-3.28,3.23-5.12,6.08-8a10.07,10.07,0,0,1,4.45-3.08c2.65-.73,5,.42,7,1.37a45.13,45.13,0,0,1,5,2.61,2.68,2.68,0,0,0,.81.42c1.66.49,3.84-.94,4.65-2a3.9,3.9,0,0,1,1.22-1.09,3.74,3.74,0,0,1,.41-.19,5.58,5.58,0,0,1,3.3.2,6.81,6.81,0,0,1,3.32,2.33,5.75,5.75,0,0,0,1.76,1.9,3,3,0,0,0,.93.4c1,.2,1.81-.73,3.65-2.22,3-2.4,4.32-2.68,5.13-2.73a4.37,4.37,0,0,1,.75,0c2.75.22,9.16,1.45,12.75,2.16l1.83.18,0,.12a17.15,17.15,0,0,0,11.22-.2c4.65-1.86,7-5.63,9.8-10.15,2.49-4.06,4.09-7.9,6.29-14.76,3.82-11.91,3.23-13.84,6.17-21.62,2.84-7.53,6.07-16.07,9.54-15.91,5.47.26,8.75,21.95,10.22,31.62,1.64,10.82,1.88,18.13,2.38,29.58.35,7.83,2,44.63-2.85,77.83-.52,3.57-1.58,10.24-4.79,11-4.45,1-10.14-9.58-11.75-12.27-2.29-3.83-3.55-8.07-5.9-16.42-2.7-9.58-2.23-12.92-5.64-19.54-2.58-5-5.13-10.58-11.14-13.21a19.49,19.49,0,0,0-13-.56l-.12,0-1.83.24c-3.56.84-9.93,2.3-12.66,2.61a4.85,4.85,0,0,1-.75,0c-.82,0-2.19-.26-5.22-2.55-1.89-1.43-2.68-2.33-3.73-2.09a3.09,3.09,0,0,0-.91.43,5.79,5.79,0,0,0-1.7,2,6.73,6.73,0,0,1-3.24,2.45,5.55,5.55,0,0,1-3.28.31,3.32,3.32,0,0,1-.42-.17,4.15,4.15,0,0,1-1.26-1c-.84-1-3.07-2.36-4.71-1.82a2.54,2.54,0,0,0-.8.45,47.45,47.45,0,0,1-4.9,2.79c-2,1-4.3,2.24-7,1.61a10.21,10.21,0,0,1-4.55-2.93c-2.94-2.74-3-4.59-6.35-7.75-2-1.87-2.94-2.11-3.62-2.12-1.21,0-2,.73-3.64,2.24l-4.94,4.56c-2.85,2.65-3.33,3.23-12,11.89-.64.65-6.19,6.18-13,11.73a15.72,15.72,0,0,1-5.91,3.35c-2.64.73-3.63.1-8,.25a50,50,0,0,0-8.74,1.22,59.3,59.3,0,0,0-10.94,3,38.33,38.33,0,0,0-12.3,7.5c-5.4,5-7.86,10.52-9.6,14.54-.59,1.35-1.77,5.18-4.14,12.86-1.49,4.8-2.56,9-5.69,13.81-1.93,3-2.9,4.45-4,4.41a1.17,1.17,0,0,1-.55-.15"/><path class="cls-8" d="M1625.69,507.54c2.55,26.81,5.21,34.4,7.35,35.53,7.78-9,13.92-56.11,13.43-97.22s-7.77-86.82-14.41-93.21l0,0c-2.26.18-5,6.8-6.62,38.37"/><path class="cls-6" d="M1851,135.27l-.08,6.25"/><path class="cls-7" d="M1632.09,151.85c2-.16,4.4,4.71,6.22,8.39a56.47,56.47,0,0,1,4.49,13.89c4.36,18.17,20.91,29.74,27.68,32.83a46.1,46.1,0,0,0,8.42,2.82,46.59,46.59,0,0,0,8.77.92c4.35,0,5.31-.67,8,0a15.51,15.51,0,0,1,6,3.14c7,5.31,12.73,10.64,13.4,11.27,8.94,8.35,9.44,8.92,12.37,11.46l5.11,4.39c1.68,1.45,2.5,2.16,3.71,2.11.68,0,1.61-.31,3.54-2.24,3.28-3.29,3.23-5.13,6.08-8a10.07,10.07,0,0,1,4.45-3.08c2.65-.73,5,.41,7,1.36a47.74,47.74,0,0,1,5,2.61,2.49,2.49,0,0,0,.81.43c1.66.48,3.84-.94,4.65-2a3.89,3.89,0,0,1,1.22-1.1s.2-.1.41-.18a5.52,5.52,0,0,1,3.3.19,6.84,6.84,0,0,1,3.32,2.34,5.73,5.73,0,0,0,1.76,1.89,3,3,0,0,0,.93.4c1,.21,1.81-.72,3.65-2.22,3-2.39,4.32-2.68,5.13-2.73a5.74,5.74,0,0,1,.75,0c2.75.23,9.16,1.46,12.75,2.17l1.83.18,0,.11a17.07,17.07,0,0,0,11.22-.19c4.65-1.86,7-5.64,9.8-10.15,2.49-4.07,4.09-7.9,6.29-14.76,3.82-11.92,3.23-13.84,6.17-21.62,2.84-7.53,6.07-16.08,9.54-15.91,5.47.26,8.75,22,10.22,31.62,1.64,10.81,1.88,18.13,2.38,29.57.35,7.83,2,44.63-2.85,77.84-.52,3.57-1.58,10.23-4.79,11-4.45,1.05-10.14-9.58-11.75-12.26-2.29-3.83-3.55-8.07-5.9-16.42-2.7-9.58-2.23-12.92-5.64-19.55-2.58-5-5.13-10.58-11.14-13.21a19.54,19.54,0,0,0-13-.55l-.12,0-1.83.24c-3.56.84-9.93,2.29-12.66,2.61a4.85,4.85,0,0,1-.75,0c-.82,0-2.19-.26-5.22-2.55-1.89-1.43-2.68-2.33-3.73-2.1a3.09,3.09,0,0,0-.91.44,5.79,5.79,0,0,0-1.7,2,6.76,6.76,0,0,1-3.24,2.44,5.47,5.47,0,0,1-3.28.31,3.32,3.32,0,0,1-.42-.17,3.87,3.87,0,0,1-1.26-1.05c-.84-1-3.07-2.36-4.71-1.82a2.55,2.55,0,0,0-.8.46,46.73,46.73,0,0,1-4.9,2.78c-2,1-4.3,2.24-7,1.61a10.12,10.12,0,0,1-4.55-2.93c-2.94-2.74-3-4.58-6.35-7.74-2-1.87-2.94-2.11-3.62-2.12-1.21,0-2,.73-3.64,2.24l-4.94,4.56c-2.85,2.65-3.33,3.22-12,11.88-.64.65-6.19,6.18-13,11.74a15.57,15.57,0,0,1-5.91,3.34c-2.64.73-3.63.1-8,.26a50,50,0,0,0-8.74,1.22,60,60,0,0,0-10.94,3,38.59,38.59,0,0,0-12.3,7.51c-5.4,5-7.86,10.52-9.6,14.54-.59,1.34-1.77,5.18-4.14,12.85-1.49,4.8-2.56,9-5.69,13.82-1.93,3-2.9,4.45-4,4.41a1.32,1.32,0,0,1-.55-.16"/><path class="cls-8" d="M1625.69,306.79c2.55,26.81,5.21,34.4,7.35,35.52,7.78-9,13.92-56.1,13.43-97.21s-7.77-86.82-14.41-93.22l0,0c-2.26.18-5,6.8-6.62,38.37"/><path class="cls-6" d="M1627.25,637.15l-.08,6.25"/><path class="cls-7" d="M1408.32,653.73c2-.16,4.4,4.71,6.22,8.4A56.43,56.43,0,0,1,1419,676c4.36,18.17,20.91,29.74,27.68,32.84a40.74,40.74,0,0,0,17.19,3.73c4.35,0,5.31-.66,8,0a15.78,15.78,0,0,1,6,3.14c7,5.31,12.73,10.65,13.4,11.27,8.94,8.36,9.44,8.92,12.37,11.47,2.51,2.14,4,3.45,5.11,4.38,1.68,1.45,2.5,2.17,3.71,2.11.68,0,1.61-.3,3.54-2.24,3.28-3.28,3.23-5.12,6.08-8a10,10,0,0,1,4.45-3.09c2.65-.73,5,.42,7,1.37a47.74,47.74,0,0,1,5,2.61,2.68,2.68,0,0,0,.81.42c1.66.49,3.84-.94,4.65-2a3.9,3.9,0,0,1,1.22-1.09,3.74,3.74,0,0,1,.41-.19,5.58,5.58,0,0,1,3.3.2,6.81,6.81,0,0,1,3.32,2.33,5.75,5.75,0,0,0,1.76,1.9,3,3,0,0,0,.93.4c1,.2,1.81-.73,3.65-2.22,3-2.4,4.32-2.68,5.13-2.73a4.37,4.37,0,0,1,.75,0c2.75.22,9.16,1.45,12.75,2.16l1.83.18,0,.12a17.15,17.15,0,0,0,11.22-.2c4.65-1.86,7-5.63,9.8-10.15,2.49-4.06,4.09-7.9,6.29-14.76,3.82-11.91,3.23-13.84,6.17-21.62,2.84-7.53,6.07-16.07,9.54-15.91,5.47.26,8.75,21.95,10.22,31.62,1.64,10.82,1.88,18.13,2.38,29.58.35,7.83,2,44.63-2.85,77.83-.52,3.57-1.58,10.24-4.79,11-4.45,1-10.14-9.58-11.75-12.27-2.29-3.83-3.55-8.07-5.9-16.42-2.7-9.58-2.23-12.92-5.64-19.54-2.58-5-5.13-10.58-11.14-13.21a19.49,19.49,0,0,0-12.95-.56l-.12,0-1.83.24c-3.56.84-9.93,2.3-12.66,2.61a4.85,4.85,0,0,1-.75,0c-.82,0-2.19-.26-5.22-2.55-1.89-1.43-2.68-2.33-3.73-2.09a3.09,3.09,0,0,0-.91.43,5.79,5.79,0,0,0-1.7,2,6.73,6.73,0,0,1-3.24,2.45,5.55,5.55,0,0,1-3.28.31,3.32,3.32,0,0,1-.42-.17,4.15,4.15,0,0,1-1.26-1c-.84-1-3.07-2.36-4.71-1.82a2.54,2.54,0,0,0-.8.45,47.45,47.45,0,0,1-4.9,2.79c-2,1-4.3,2.24-7,1.61a10.21,10.21,0,0,1-4.55-2.93c-2.94-2.74-3-4.59-6.35-7.75-2-1.87-2.94-2.11-3.62-2.12-1.21,0-2,.73-3.64,2.24l-4.94,4.56c-2.85,2.65-3.33,3.23-12,11.89-.64.65-6.19,6.18-13,11.73a15.72,15.72,0,0,1-5.91,3.35c-2.64.73-3.63.1-8,.25a50,50,0,0,0-8.74,1.22,59.3,59.3,0,0,0-10.94,3,38.33,38.33,0,0,0-12.3,7.5c-5.4,5-7.86,10.52-9.6,14.54-.59,1.35-1.77,5.19-4.14,12.86-1.49,4.8-2.56,9-5.69,13.81-1.93,3-2.9,4.45-4,4.41a1.17,1.17,0,0,1-.55-.15"/><path class="cls-8" d="M1401.92,808.67c2.55,26.81,5.21,34.4,7.35,35.53,7.78-9,13.92-56.11,13.43-97.22s-7.77-86.82-14.41-93.21l0,0c-2.26.18-5,6.8-6.62,38.37"/><path class="cls-6" d="M1627.25,436.4l-.08,6.25"/><path class="cls-7" d="M1408.32,453c2-.16,4.4,4.71,6.22,8.39a56.47,56.47,0,0,1,4.49,13.89c4.36,18.17,20.91,29.74,27.68,32.83a46.1,46.1,0,0,0,8.42,2.82,46.59,46.59,0,0,0,8.77.92c4.35,0,5.31-.67,8,0a15.51,15.51,0,0,1,6,3.14c7,5.31,12.73,10.65,13.4,11.27,8.94,8.36,9.44,8.92,12.37,11.46l5.11,4.39c1.68,1.45,2.5,2.16,3.71,2.11.68,0,1.61-.31,3.54-2.24,3.28-3.28,3.23-5.13,6.08-8a10.07,10.07,0,0,1,4.45-3.08c2.65-.73,5,.41,7,1.36a47.74,47.74,0,0,1,5,2.61,2.49,2.49,0,0,0,.81.43c1.66.48,3.84-.94,4.65-2a4,4,0,0,1,1.22-1.1s.2-.1.41-.18a5.52,5.52,0,0,1,3.3.19,6.84,6.84,0,0,1,3.32,2.34,5.73,5.73,0,0,0,1.76,1.89,3.26,3.26,0,0,0,.93.41c1,.2,1.81-.73,3.65-2.23,3-2.39,4.32-2.68,5.13-2.73a5.74,5.74,0,0,1,.75,0c2.75.23,9.16,1.46,12.75,2.17l1.83.18,0,.11a17.07,17.07,0,0,0,11.22-.19c4.65-1.86,7-5.64,9.8-10.15,2.49-4.07,4.09-7.9,6.29-14.76,3.82-11.92,3.23-13.84,6.17-21.62,2.84-7.53,6.07-16.07,9.54-15.91,5.47.26,8.75,21.95,10.22,31.62,1.64,10.82,1.88,18.13,2.38,29.58.35,7.83,2,44.62-2.85,77.83-.52,3.57-1.58,10.23-4.79,11-4.45,1-10.14-9.58-11.75-12.26-2.29-3.83-3.55-8.07-5.9-16.42-2.7-9.58-2.23-12.92-5.64-19.54-2.58-5-5.13-10.59-11.14-13.22a19.54,19.54,0,0,0-12.95-.55l-.12,0-1.83.24c-3.56.84-9.93,2.29-12.66,2.61a4.85,4.85,0,0,1-.75,0c-.82,0-2.19-.26-5.22-2.55-1.89-1.43-2.68-2.33-3.73-2.1a3.09,3.09,0,0,0-.91.44,5.79,5.79,0,0,0-1.7,2,6.7,6.7,0,0,1-3.24,2.44,5.52,5.52,0,0,1-3.28.32,4.52,4.52,0,0,1-.42-.18,3.87,3.87,0,0,1-1.26-1c-.84-1-3.07-2.36-4.71-1.82a2.55,2.55,0,0,0-.8.46,46.73,46.73,0,0,1-4.9,2.78c-2,1-4.3,2.24-7,1.61a10.12,10.12,0,0,1-4.55-2.93c-2.94-2.74-3-4.58-6.35-7.74-2-1.87-2.94-2.11-3.62-2.12-1.21,0-2,.73-3.64,2.24l-4.94,4.56c-2.85,2.65-3.33,3.22-12,11.89-.64.64-6.19,6.18-13,11.73a15.57,15.57,0,0,1-5.91,3.34c-2.64.73-3.63.1-8,.26a50,50,0,0,0-8.74,1.22,60,60,0,0,0-10.94,3,38.59,38.59,0,0,0-12.3,7.51c-5.4,5-7.86,10.52-9.6,14.54-.59,1.34-1.77,5.18-4.14,12.86-1.49,4.79-2.56,9-5.69,13.81-1.93,3-2.9,4.45-4,4.41a1.32,1.32,0,0,1-.55-.16"/><path class="cls-8" d="M1401.92,607.92c2.55,26.81,5.21,34.4,7.35,35.52,7.78-9,13.92-56.1,13.43-97.21s-7.77-86.82-14.41-93.22l0,0c-2.26.18-5,6.8-6.62,38.37"/><path class="cls-6" d="M1627.25,235.65l-.08,6.24"/><path class="cls-7" d="M1408.32,252.23c2-.16,4.4,4.7,6.22,8.39A56.56,56.56,0,0,1,1419,274.5c4.36,18.18,20.91,29.75,27.68,32.84a45.61,45.61,0,0,0,8.42,2.81,46.59,46.59,0,0,0,8.77.92c4.35,0,5.31-.66,8,0a15.51,15.51,0,0,1,6,3.14c7,5.31,12.73,10.64,13.4,11.27,8.94,8.35,9.44,8.91,12.37,11.46,2.51,2.14,4,3.45,5.11,4.38,1.68,1.46,2.5,2.17,3.71,2.11.68,0,1.61-.3,3.54-2.24,3.28-3.28,3.23-5.12,6.08-8a10.1,10.1,0,0,1,4.45-3.09c2.65-.72,5,.42,7,1.37a47.74,47.74,0,0,1,5,2.61,2.69,2.69,0,0,0,.81.43c1.66.48,3.84-.94,4.65-2a4,4,0,0,1,1.22-1.09,3.74,3.74,0,0,1,.41-.19,5.58,5.58,0,0,1,3.3.2,6.81,6.81,0,0,1,3.32,2.33,5.75,5.75,0,0,0,1.76,1.9,3,3,0,0,0,.93.4c1,.2,1.81-.73,3.65-2.22,3-2.39,4.32-2.68,5.13-2.73a5.74,5.74,0,0,1,.75,0c2.75.22,9.16,1.46,12.75,2.17l1.83.17,0,.12a17,17,0,0,0,11.22-.2c4.65-1.86,7-5.63,9.8-10.14,2.49-4.07,4.09-7.9,6.29-14.76,3.82-11.92,3.23-13.84,6.17-21.62,2.84-7.53,6.07-16.08,9.54-15.91,5.47.26,8.75,21.94,10.22,31.62,1.64,10.81,1.88,18.12,2.38,29.57.35,7.83,2,44.63-2.85,77.83-.52,3.57-1.58,10.24-4.79,11-4.45,1.05-10.14-9.58-11.75-12.27-2.29-3.82-3.55-8.07-5.9-16.42-2.7-9.58-2.23-12.91-5.64-19.54-2.58-5-5.13-10.58-11.14-13.21a19.47,19.47,0,0,0-12.95-.55l-.12,0-1.83.24c-3.56.83-9.93,2.29-12.66,2.61a5.11,5.11,0,0,1-.75,0c-.82,0-2.19-.26-5.22-2.55-1.89-1.42-2.68-2.33-3.73-2.09a3.09,3.09,0,0,0-.91.44,5.67,5.67,0,0,0-1.7,1.95,6.73,6.73,0,0,1-3.24,2.45,5.47,5.47,0,0,1-3.28.31,3.32,3.32,0,0,1-.42-.17,3.87,3.87,0,0,1-1.26-1c-.84-1-3.07-2.36-4.71-1.82a2.54,2.54,0,0,0-.8.45,44.92,44.92,0,0,1-4.9,2.79c-2,1-4.3,2.24-7,1.61a10.12,10.12,0,0,1-4.55-2.93c-2.94-2.74-3-4.58-6.35-7.75-2-1.87-2.94-2.11-3.62-2.11-1.21,0-2,.72-3.64,2.23l-4.94,4.56c-2.85,2.65-3.33,3.23-12,11.89-.64.65-6.19,6.18-13,11.73a15.45,15.45,0,0,1-5.91,3.35c-2.64.73-3.63.1-8,.25a49.31,49.31,0,0,0-8.74,1.23,58.47,58.47,0,0,0-10.94,3,38.71,38.71,0,0,0-12.3,7.5c-5.4,5-7.86,10.52-9.6,14.55-.59,1.34-1.77,5.18-4.14,12.85-1.49,4.8-2.56,9-5.69,13.82-1.93,3-2.9,4.45-4,4.41a1.32,1.32,0,0,1-.55-.16"/><path class="cls-8" d="M1401.92,407.16c2.55,26.81,5.21,34.41,7.35,35.53,7.78-9,13.92-56.11,13.43-97.21s-7.77-86.83-14.41-93.22l0,0c-2.26.18-5,6.79-6.62,38.36"/><path class="cls-6" d="M1404.12,533.58l-.08,6.25"/><path class="cls-7" d="M1185.19,550.16c2-.16,4.4,4.71,6.22,8.39a56.47,56.47,0,0,1,4.49,13.89c4.36,18.17,20.91,29.74,27.68,32.83a40.46,40.46,0,0,0,17.19,3.74c4.35,0,5.31-.66,8,0a15.51,15.51,0,0,1,6,3.14c7,5.31,12.73,10.65,13.4,11.27,8.93,8.36,9.44,8.92,12.37,11.46l5.11,4.39c1.68,1.45,2.5,2.16,3.71,2.11.68,0,1.61-.31,3.54-2.24,3.28-3.28,3.23-5.13,6.08-8a10.07,10.07,0,0,1,4.45-3.08c2.65-.73,5,.41,7,1.36a47.74,47.74,0,0,1,5,2.61,2.49,2.49,0,0,0,.81.43c1.66.48,3.84-.94,4.65-2a4,4,0,0,1,1.22-1.1s.2-.1.41-.18a5.49,5.49,0,0,1,3.29.19,6.82,6.82,0,0,1,3.33,2.34,5.73,5.73,0,0,0,1.76,1.89,3.14,3.14,0,0,0,.93.41c1.05.2,1.81-.73,3.65-2.23,3-2.39,4.32-2.68,5.13-2.73a5.74,5.74,0,0,1,.75,0c2.75.23,9.16,1.46,12.74,2.17l1.84.18,0,.11a17.07,17.07,0,0,0,11.22-.19c4.65-1.86,7-5.64,9.8-10.15,2.49-4.07,4.09-7.9,6.29-14.76,3.82-11.92,3.23-13.84,6.17-21.62,2.84-7.53,6.07-16.07,9.54-15.91,5.47.26,8.75,22,10.22,31.62,1.63,10.82,1.88,18.13,2.38,29.58.35,7.83,2,44.62-2.85,77.83-.52,3.57-1.58,10.23-4.79,11-4.45,1.05-10.14-9.57-11.75-12.26-2.29-3.83-3.55-8.07-5.9-16.42-2.7-9.58-2.23-12.92-5.64-19.54-2.58-5-5.13-10.59-11.14-13.22a19.54,19.54,0,0,0-13-.55l-.12,0-1.83.24c-3.56.84-9.93,2.29-12.66,2.61a4.85,4.85,0,0,1-.75,0c-.82,0-2.19-.26-5.22-2.55-1.89-1.43-2.68-2.33-3.73-2.1a3.09,3.09,0,0,0-.91.44,5.79,5.79,0,0,0-1.7,2,6.7,6.7,0,0,1-3.24,2.44,5.52,5.52,0,0,1-3.28.32,4.52,4.52,0,0,1-.42-.18,3.87,3.87,0,0,1-1.26-1.05c-.84-1-3.08-2.36-4.71-1.82a2.55,2.55,0,0,0-.8.46,46.73,46.73,0,0,1-4.9,2.78c-2,1-4.3,2.25-7,1.61a10.12,10.12,0,0,1-4.55-2.93c-2.94-2.74-3-4.58-6.35-7.74-2-1.87-2.94-2.11-3.62-2.12-1.21,0-2,.73-3.64,2.24l-4.94,4.56c-2.85,2.65-3.33,3.22-12,11.89-.64.64-6.19,6.18-13,11.73a15.57,15.57,0,0,1-5.91,3.34c-2.65.73-3.63.1-8,.26a50,50,0,0,0-8.74,1.22,60,60,0,0,0-10.94,3,38.59,38.59,0,0,0-12.3,7.51c-5.4,5-7.86,10.52-9.61,14.54-.58,1.34-1.76,5.18-4.14,12.86-1.48,4.79-2.55,9-5.68,13.81-1.93,3-2.9,4.45-4,4.41a1.32,1.32,0,0,1-.55-.16"/><path class="cls-8" d="M1178.78,705.1c2.56,26.81,5.22,34.4,7.36,35.52,7.78-9,13.92-56.1,13.43-97.21s-7.77-86.82-14.41-93.22l0,0c-2.26.18-5,6.8-6.62,38.37"/><path class="cls-6" d="M1404.12,332.83l-.08,6.25"/><path class="cls-7" d="M1185.19,349.41c2-.16,4.4,4.7,6.22,8.39a56.56,56.56,0,0,1,4.49,13.88c4.36,18.18,20.91,29.75,27.68,32.84a45.91,45.91,0,0,0,8.41,2.81,46.74,46.74,0,0,0,8.78.92c4.35,0,5.31-.66,8,0a15.51,15.51,0,0,1,6,3.14c7,5.31,12.73,10.64,13.4,11.27,8.93,8.35,9.44,8.91,12.37,11.46l5.11,4.38c1.68,1.46,2.5,2.17,3.71,2.11.68,0,1.61-.3,3.54-2.24,3.28-3.28,3.23-5.12,6.08-8a10.1,10.1,0,0,1,4.45-3.09c2.65-.72,5,.42,7,1.37a47.74,47.74,0,0,1,5,2.61,2.69,2.69,0,0,0,.81.43c1.66.48,3.84-.94,4.65-2a4,4,0,0,1,1.22-1.09,3.74,3.74,0,0,1,.41-.19,5.54,5.54,0,0,1,3.29.2,6.79,6.79,0,0,1,3.33,2.33,5.75,5.75,0,0,0,1.76,1.9,2.91,2.91,0,0,0,.93.4c1.05.2,1.81-.73,3.65-2.22,3-2.39,4.32-2.68,5.13-2.73a5.74,5.74,0,0,1,.75,0c2.75.22,9.16,1.46,12.74,2.17l1.84.17,0,.12a17,17,0,0,0,11.22-.2c4.65-1.86,7-5.63,9.8-10.14,2.49-4.07,4.09-7.9,6.29-14.76,3.82-11.92,3.23-13.84,6.17-21.62,2.84-7.53,6.07-16.08,9.54-15.91,5.47.26,8.75,21.94,10.22,31.62,1.63,10.81,1.88,18.12,2.38,29.57.35,7.83,2,44.63-2.85,77.83-.52,3.57-1.58,10.24-4.79,11-4.45,1.05-10.14-9.58-11.75-12.27-2.29-3.82-3.55-8.07-5.9-16.42-2.7-9.58-2.23-12.91-5.64-19.54-2.58-5-5.13-10.58-11.14-13.21a19.47,19.47,0,0,0-13-.55l-.12,0-1.83.24c-3.56.83-9.93,2.29-12.66,2.61a5.11,5.11,0,0,1-.75,0c-.82,0-2.19-.26-5.22-2.55-1.89-1.42-2.68-2.33-3.73-2.09a3.09,3.09,0,0,0-.91.44,5.67,5.67,0,0,0-1.7,1.95,6.73,6.73,0,0,1-3.24,2.45,5.47,5.47,0,0,1-3.28.31,3.32,3.32,0,0,1-.42-.17,3.87,3.87,0,0,1-1.26-1.05c-.84-1-3.08-2.36-4.71-1.82a2.54,2.54,0,0,0-.8.45,44.92,44.92,0,0,1-4.9,2.79c-2,1-4.3,2.24-7,1.61a10.12,10.12,0,0,1-4.55-2.93c-2.94-2.74-3-4.58-6.35-7.75-2-1.86-2.94-2.11-3.62-2.11-1.21,0-2,.72-3.64,2.23l-4.94,4.56c-2.85,2.65-3.33,3.23-12,11.89-.64.65-6.19,6.18-13,11.73a15.45,15.45,0,0,1-5.91,3.35c-2.65.73-3.63.1-8,.25a49.31,49.31,0,0,0-8.74,1.23,58.47,58.47,0,0,0-10.94,3,38.71,38.71,0,0,0-12.3,7.5c-5.4,5-7.86,10.52-9.61,14.55-.58,1.34-1.76,5.18-4.14,12.85-1.48,4.8-2.55,9-5.68,13.82-1.93,3-2.9,4.45-4,4.41a1.32,1.32,0,0,1-.55-.16"/><path class="cls-8" d="M1178.78,504.34c2.56,26.81,5.22,34.41,7.36,35.53,7.78-9,13.92-56.11,13.43-97.21s-7.77-86.83-14.41-93.22l0,0c-2.26.18-5,6.79-6.62,38.36"/><path class="cls-6" d="M1180.35,436.4l-.08,6.25"/><path class="cls-7" d="M961.42,453c2-.16,4.4,4.71,6.22,8.39a56.47,56.47,0,0,1,4.49,13.89c4.36,18.17,20.91,29.74,27.68,32.83a40.46,40.46,0,0,0,17.19,3.74c4.35,0,5.31-.67,8,0a15.51,15.51,0,0,1,6,3.14c7,5.31,12.73,10.65,13.4,11.27,8.93,8.36,9.44,8.92,12.37,11.46l5.11,4.39c1.68,1.45,2.5,2.16,3.71,2.11.68,0,1.61-.31,3.54-2.24,3.28-3.28,3.23-5.13,6.08-8a10.07,10.07,0,0,1,4.45-3.08c2.65-.73,5,.41,7,1.36a47.74,47.74,0,0,1,5,2.61,2.49,2.49,0,0,0,.81.43c1.66.48,3.84-.94,4.65-2a4,4,0,0,1,1.22-1.1s.2-.1.41-.18a5.49,5.49,0,0,1,3.29.19,6.82,6.82,0,0,1,3.33,2.34,5.73,5.73,0,0,0,1.76,1.89,3.14,3.14,0,0,0,.93.41c1.05.2,1.81-.73,3.65-2.23,3-2.39,4.32-2.68,5.13-2.73a5.74,5.74,0,0,1,.75,0c2.75.23,9.16,1.46,12.74,2.17l1.84.18,0,.11a17.07,17.07,0,0,0,11.22-.19c4.65-1.86,7-5.64,9.8-10.15,2.49-4.07,4.09-7.9,6.29-14.76,3.82-11.92,3.23-13.84,6.17-21.62,2.84-7.53,6.07-16.07,9.54-15.91,5.47.26,8.75,21.95,10.22,31.62,1.63,10.82,1.88,18.13,2.38,29.58.35,7.83,2,44.62-2.85,77.83-.52,3.57-1.58,10.23-4.79,11-4.45,1-10.14-9.58-11.75-12.26-2.29-3.83-3.55-8.07-5.9-16.42-2.7-9.58-2.23-12.92-5.64-19.54-2.58-5-5.13-10.59-11.14-13.22a19.54,19.54,0,0,0-13-.55l-.12,0-1.83.24c-3.56.84-9.93,2.29-12.66,2.61a4.85,4.85,0,0,1-.75,0c-.82,0-2.19-.26-5.22-2.55-1.89-1.43-2.68-2.33-3.73-2.1a3.09,3.09,0,0,0-.91.44,5.79,5.79,0,0,0-1.7,2,6.7,6.7,0,0,1-3.24,2.44,5.52,5.52,0,0,1-3.28.32,4.52,4.52,0,0,1-.42-.18,3.87,3.87,0,0,1-1.26-1c-.84-1-3.08-2.36-4.71-1.82a2.55,2.55,0,0,0-.8.46,46.73,46.73,0,0,1-4.9,2.78c-2,1-4.3,2.24-7,1.61a10.12,10.12,0,0,1-4.55-2.93c-2.94-2.74-3-4.58-6.35-7.74-2-1.87-2.94-2.11-3.62-2.12-1.21,0-2,.73-3.64,2.24l-4.94,4.56c-2.85,2.65-3.33,3.22-12,11.89-.64.64-6.19,6.18-13,11.73a15.57,15.57,0,0,1-5.91,3.34c-2.65.73-3.63.1-8,.26a50,50,0,0,0-8.74,1.22,60,60,0,0,0-10.94,3,38.59,38.59,0,0,0-12.3,7.51c-5.4,5-7.86,10.52-9.61,14.54-.58,1.34-1.76,5.18-4.14,12.86-1.48,4.79-2.55,9-5.68,13.81-1.93,3-2.9,4.45-4,4.41a1.32,1.32,0,0,1-.55-.16"/><path class="cls-9" d="M955,607.92c2.56,26.81,5.22,34.4,7.36,35.52,7.78-9,13.92-56.1,13.43-97.21S968,459.41,961.39,453l0,0c-2.26.18-5,6.8-6.62,38.37"/><path class="cls-6" d="M69,737.53l.08,6.25"/><path class="cls-7" d="M287.91,754.11c-2-.16-4.4,4.71-6.22,8.39a56.47,56.47,0,0,0-4.49,13.89c-4.36,18.17-20.91,29.74-27.68,32.83A46.1,46.1,0,0,1,241.1,812a46.59,46.59,0,0,1-8.77.92c-4.35,0-5.31-.66-8,0a15.51,15.51,0,0,0-6,3.14c-7,5.31-12.73,10.65-13.4,11.27-8.94,8.36-9.44,8.92-12.37,11.46l-5.11,4.39c-1.68,1.45-2.5,2.16-3.71,2.11-.68,0-1.61-.31-3.54-2.24-3.28-3.28-3.23-5.13-6.08-8a10.07,10.07,0,0,0-4.45-3.08c-2.65-.73-5,.41-7,1.36a45.81,45.81,0,0,0-5,2.62,2.68,2.68,0,0,1-.81.42c-1.66.48-3.84-.94-4.65-2a4,4,0,0,0-1.22-1.1s-.2-.1-.41-.18a5.52,5.52,0,0,0-3.3.19,6.84,6.84,0,0,0-3.32,2.34,5.73,5.73,0,0,1-1.76,1.89,3.26,3.26,0,0,1-.93.41c-1.05.2-1.81-.73-3.65-2.23-3-2.39-4.32-2.68-5.13-2.73a5.74,5.74,0,0,0-.75,0c-2.75.23-9.16,1.46-12.75,2.17l-1.83.18,0,.11A17.07,17.07,0,0,1,106,835.3c-4.65-1.86-7-5.63-9.8-10.15-2.49-4.07-4.09-7.9-6.29-14.76-3.82-11.92-3.23-13.84-6.17-21.62-2.84-7.53-6.07-16.07-9.54-15.91-5.47.26-8.75,21.95-10.22,31.62-1.64,10.82-1.88,18.13-2.38,29.58-.35,7.83-2,44.62,2.85,77.83.52,3.57,1.58,10.23,4.79,11,4.45,1,10.14-9.57,11.75-12.26,2.29-3.83,3.55-8.07,5.9-16.42,2.7-9.58,2.23-12.92,5.64-19.54,2.58-5,5.13-10.59,11.14-13.21a19.49,19.49,0,0,1,12.95-.56l.12,0,1.83.24c3.56.84,9.93,2.29,12.66,2.61a4.85,4.85,0,0,0,.75,0c.82,0,2.19-.26,5.22-2.55,1.89-1.43,2.68-2.33,3.73-2.09a2.86,2.86,0,0,1,.91.43,5.79,5.79,0,0,1,1.7,2,6.8,6.8,0,0,0,3.24,2.45,5.55,5.55,0,0,0,3.28.31,4.52,4.52,0,0,0,.42-.18,3.87,3.87,0,0,0,1.26-1c.84-1,3.07-2.36,4.71-1.82a2.55,2.55,0,0,1,.8.46,46.73,46.73,0,0,0,4.9,2.78c2,1,4.3,2.25,7,1.61a10,10,0,0,0,4.55-2.93c2.94-2.74,3-4.58,6.35-7.74,2-1.87,2.94-2.11,3.62-2.12,1.21,0,2,.73,3.64,2.24l4.94,4.56c2.85,2.65,3.33,3.22,12,11.89.64.64,6.19,6.18,13,11.73a15.72,15.72,0,0,0,5.91,3.35c2.64.72,3.63.09,8,.25a50,50,0,0,1,8.74,1.22,60,60,0,0,1,10.94,3,38.59,38.59,0,0,1,12.3,7.51c5.4,5,7.86,10.52,9.6,14.54.59,1.35,1.77,5.18,4.14,12.86,1.49,4.79,2.56,9,5.69,13.81,1.93,3,2.9,4.45,4,4.41a1.32,1.32,0,0,0,.55-.16"/><path class="cls-8" d="M294.31,909.05c-2.55,26.81-5.21,34.4-7.35,35.52-7.78-9-13.92-56.1-13.43-97.21s7.77-86.82,14.41-93.22l0,0c2.26.18,5,6.8,6.62,38.37"/><path class="cls-6" d="M69,536.78l.08,6.25"/><path class="cls-7" d="M287.91,553.36c-2-.16-4.4,4.7-6.22,8.39a56.56,56.56,0,0,0-4.49,13.88c-4.36,18.18-20.91,29.75-27.68,32.84a46.1,46.1,0,0,1-8.42,2.82,47.11,47.11,0,0,1-8.77.91c-4.35,0-5.31-.66-8,0a15.51,15.51,0,0,0-6,3.14c-7,5.31-12.73,10.64-13.4,11.27-8.94,8.35-9.44,8.91-12.37,11.46-2.51,2.15-4,3.45-5.11,4.39-1.68,1.45-2.5,2.16-3.71,2.11-.68,0-1.61-.31-3.54-2.25-3.28-3.28-3.23-5.12-6.08-8a10.18,10.18,0,0,0-4.45-3.09c-2.65-.72-5,.42-7,1.37a47.74,47.74,0,0,0-5,2.61,2.69,2.69,0,0,1-.81.43c-1.66.48-3.84-.94-4.65-2a4,4,0,0,0-1.22-1.09,3.74,3.74,0,0,0-.41-.19,5.58,5.58,0,0,0-3.3.2,6.81,6.81,0,0,0-3.32,2.33,5.75,5.75,0,0,1-1.76,1.9,3,3,0,0,1-.93.4c-1.05.2-1.81-.73-3.65-2.22-3-2.39-4.32-2.68-5.13-2.73a5.74,5.74,0,0,0-.75,0c-2.75.22-9.16,1.46-12.75,2.17l-1.83.18,0,.11a17,17,0,0,1-11.22-.2c-4.65-1.85-7-5.63-9.8-10.14-2.49-4.07-4.09-7.9-6.29-14.76C86,597.72,86.63,595.8,83.69,588c-2.84-7.53-6.07-16.08-9.54-15.91-5.47.26-8.75,21.94-10.22,31.62-1.64,10.81-1.88,18.12-2.38,29.57-.35,7.83-2,44.63,2.85,77.83.52,3.57,1.58,10.24,4.79,11,4.45,1,10.14-9.58,11.75-12.27,2.29-3.82,3.55-8.07,5.9-16.42,2.7-9.58,2.23-12.91,5.64-19.54,2.58-5,5.13-10.58,11.14-13.21a19.47,19.47,0,0,1,12.95-.55l.12,0,1.83.24c3.56.83,9.93,2.29,12.66,2.61a5.11,5.11,0,0,0,.75,0c.82,0,2.19-.26,5.22-2.55,1.89-1.42,2.68-2.33,3.73-2.09a3.09,3.09,0,0,1,.91.44,5.67,5.67,0,0,1,1.7,1.95,6.73,6.73,0,0,0,3.24,2.45,5.47,5.47,0,0,0,3.28.31,3.32,3.32,0,0,0,.42-.17,3.87,3.87,0,0,0,1.26-1c.84-1,3.07-2.36,4.71-1.82a2.75,2.75,0,0,1,.8.45,44.92,44.92,0,0,0,4.9,2.79c2,1,4.3,2.24,7,1.61a10.12,10.12,0,0,0,4.55-2.93c2.94-2.74,3-4.58,6.35-7.75,2-1.86,2.94-2.11,3.62-2.11,1.21,0,2,.73,3.64,2.23l4.94,4.56c2.85,2.65,3.33,3.23,12,11.89.64.65,6.19,6.18,13,11.73a15.45,15.45,0,0,0,5.91,3.35c2.64.73,3.63.1,8,.25a49.31,49.31,0,0,1,8.74,1.23,58.47,58.47,0,0,1,10.94,3,38.71,38.71,0,0,1,12.3,7.5c5.4,5,7.86,10.52,9.6,14.55.59,1.34,1.77,5.18,4.14,12.85,1.49,4.8,2.56,9,5.69,13.82,1.93,3,2.9,4.45,4,4.41a1.32,1.32,0,0,0,.55-.16"/><path class="cls-8" d="M294.31,708.29c-2.55,26.81-5.21,34.41-7.35,35.53-7.78-9-13.92-56.11-13.43-97.21s7.77-86.83,14.41-93.22l0,0c2.26.18,5,6.8,6.62,38.36"/><path class="cls-6" d="M69,336l.08,6.25"/><path class="cls-7" d="M287.91,352.6c-2-.16-4.4,4.71-6.22,8.39a56.6,56.6,0,0,0-4.49,13.89c-4.36,18.17-20.91,29.74-27.68,32.83a46.1,46.1,0,0,1-8.42,2.82,46.59,46.59,0,0,1-8.77.92c-4.35,0-5.31-.66-8,0a15.78,15.78,0,0,0-6,3.14c-7,5.31-12.73,10.65-13.4,11.27-8.94,8.36-9.44,8.92-12.37,11.47-2.51,2.14-4,3.45-5.11,4.38-1.68,1.45-2.5,2.17-3.71,2.11-.68,0-1.61-.3-3.54-2.24-3.28-3.28-3.23-5.12-6.08-8a10.07,10.07,0,0,0-4.45-3.08c-2.65-.73-5,.42-7,1.37a45.13,45.13,0,0,0-5,2.61,2.68,2.68,0,0,1-.81.42c-1.66.49-3.84-.94-4.65-2a3.9,3.9,0,0,0-1.22-1.09,3.74,3.74,0,0,0-.41-.19,5.58,5.58,0,0,0-3.3.2,6.81,6.81,0,0,0-3.32,2.33,5.75,5.75,0,0,1-1.76,1.9,3,3,0,0,1-.93.4c-1.05.2-1.81-.73-3.65-2.22-3-2.4-4.32-2.68-5.13-2.73a4.37,4.37,0,0,0-.75,0c-2.75.22-9.16,1.45-12.75,2.16l-1.83.18,0,.12a17.15,17.15,0,0,1-11.22-.2c-4.65-1.86-7-5.63-9.8-10.15-2.49-4.06-4.09-7.9-6.29-14.76C86,397,86.63,395,83.69,387.26c-2.84-7.53-6.07-16.07-9.54-15.91-5.47.26-8.75,21.95-10.22,31.62-1.64,10.82-1.88,18.13-2.38,29.58-.35,7.83-2,44.63,2.85,77.83.52,3.57,1.58,10.24,4.79,11,4.45,1,10.14-9.58,11.75-12.27,2.29-3.83,3.55-8.07,5.9-16.42,2.7-9.58,2.23-12.92,5.64-19.54,2.58-5,5.13-10.58,11.14-13.21a19.49,19.49,0,0,1,12.95-.56l.12,0,1.83.24c3.56.84,9.93,2.3,12.66,2.61a4.85,4.85,0,0,0,.75,0c.82,0,2.19-.26,5.22-2.55,1.89-1.43,2.68-2.33,3.73-2.09a3.09,3.09,0,0,1,.91.43,5.79,5.79,0,0,1,1.7,2,6.73,6.73,0,0,0,3.24,2.45,5.55,5.55,0,0,0,3.28.31,3.32,3.32,0,0,0,.42-.17,4.15,4.15,0,0,0,1.26-1c.84-1,3.07-2.36,4.71-1.82a2.54,2.54,0,0,1,.8.45,47.45,47.45,0,0,0,4.9,2.79c2,1,4.3,2.24,7,1.61a10.21,10.21,0,0,0,4.55-2.93c2.94-2.74,3-4.59,6.35-7.75,2-1.87,2.94-2.11,3.62-2.12,1.21,0,2,.73,3.64,2.24l4.94,4.56c2.85,2.65,3.33,3.23,12,11.89.64.65,6.19,6.18,13,11.73a15.72,15.72,0,0,0,5.91,3.35c2.64.73,3.63.1,8,.25a50,50,0,0,1,8.74,1.22,59.3,59.3,0,0,1,10.94,3,38.33,38.33,0,0,1,12.3,7.5c5.4,5,7.86,10.52,9.6,14.54.59,1.35,1.77,5.18,4.14,12.86,1.49,4.8,2.56,9,5.69,13.81,1.93,3,2.9,4.45,4,4.41a1.17,1.17,0,0,0,.55-.15"/><path class="cls-8" d="M294.31,507.54c-2.55,26.81-5.21,34.4-7.35,35.53-7.78-9-13.92-56.11-13.43-97.22s7.77-86.82,14.41-93.21l0,0c2.26.18,5,6.8,6.62,38.37"/><path class="cls-6" d="M69,135.27l.08,6.25"/><path class="cls-7" d="M287.91,151.85c-2-.16-4.4,4.71-6.22,8.39a56.47,56.47,0,0,0-4.49,13.89c-4.36,18.17-20.91,29.74-27.68,32.83a46.1,46.1,0,0,1-8.42,2.82,46.59,46.59,0,0,1-8.77.92c-4.35,0-5.31-.67-8,0a15.51,15.51,0,0,0-6,3.14c-7,5.31-12.73,10.64-13.4,11.27-8.94,8.35-9.44,8.92-12.37,11.46l-5.11,4.39c-1.68,1.45-2.5,2.16-3.71,2.11-.68,0-1.61-.31-3.54-2.24-3.28-3.29-3.23-5.13-6.08-8a10.07,10.07,0,0,0-4.45-3.08c-2.65-.73-5,.41-7,1.36a47.74,47.74,0,0,0-5,2.61,2.49,2.49,0,0,1-.81.43c-1.66.48-3.84-.94-4.65-2a3.89,3.89,0,0,0-1.22-1.1s-.2-.1-.41-.18a5.52,5.52,0,0,0-3.3.19,6.84,6.84,0,0,0-3.32,2.34,5.73,5.73,0,0,1-1.76,1.89,3,3,0,0,1-.93.4c-1.05.21-1.81-.72-3.65-2.22-3-2.39-4.32-2.68-5.13-2.73a5.74,5.74,0,0,0-.75,0c-2.75.23-9.16,1.46-12.75,2.17l-1.83.18,0,.11A17.07,17.07,0,0,1,106,233c-4.65-1.86-7-5.64-9.8-10.15-2.49-4.07-4.09-7.9-6.29-14.76-3.82-11.92-3.23-13.84-6.17-21.62-2.84-7.53-6.07-16.08-9.54-15.91-5.47.26-8.75,22-10.22,31.62-1.64,10.81-1.88,18.13-2.38,29.57-.35,7.83-2,44.63,2.85,77.84.52,3.57,1.58,10.23,4.79,11,4.45,1.05,10.14-9.58,11.75-12.26,2.29-3.83,3.55-8.07,5.9-16.42,2.7-9.58,2.23-12.92,5.64-19.55,2.58-5,5.13-10.58,11.14-13.21a19.54,19.54,0,0,1,12.95-.55l.12,0,1.83.24c3.56.84,9.93,2.29,12.66,2.61a4.85,4.85,0,0,0,.75,0c.82,0,2.19-.26,5.22-2.55,1.89-1.43,2.68-2.33,3.73-2.1a3.09,3.09,0,0,1,.91.44,5.79,5.79,0,0,1,1.7,2,6.76,6.76,0,0,0,3.24,2.44,5.47,5.47,0,0,0,3.28.31,3.32,3.32,0,0,0,.42-.17,3.87,3.87,0,0,0,1.26-1.05c.84-1,3.07-2.36,4.71-1.82a2.55,2.55,0,0,1,.8.46,46.73,46.73,0,0,0,4.9,2.78c2,1,4.3,2.24,7,1.61a10.12,10.12,0,0,0,4.55-2.93c2.94-2.74,3-4.58,6.35-7.74,2-1.87,2.94-2.11,3.62-2.12,1.21,0,2,.73,3.64,2.24l4.94,4.56c2.85,2.65,3.33,3.22,12,11.88.64.65,6.19,6.18,13,11.74a15.57,15.57,0,0,0,5.91,3.34c2.64.73,3.63.1,8,.26a50,50,0,0,1,8.74,1.22,60,60,0,0,1,10.94,3,38.59,38.59,0,0,1,12.3,7.51c5.4,5,7.86,10.52,9.6,14.54.59,1.34,1.77,5.18,4.14,12.85,1.49,4.8,2.56,9,5.69,13.82,1.93,3,2.9,4.45,4,4.41a1.32,1.32,0,0,0,.55-.16"/><path class="cls-8" d="M294.31,306.79c-2.55,26.81-5.21,34.4-7.35,35.52-7.78-9-13.92-56.1-13.43-97.21s7.77-86.82,14.41-93.22l0,0c2.26.18,5,6.8,6.62,38.37"/><path class="cls-6" d="M292.75,637.15l.08,6.25"/><path class="cls-7" d="M511.68,653.73c-2-.16-4.4,4.71-6.22,8.4A56.43,56.43,0,0,0,501,676c-4.36,18.17-20.91,29.74-27.68,32.84a40.74,40.74,0,0,1-17.19,3.73c-4.35,0-5.31-.66-8,0a15.78,15.78,0,0,0-6,3.14c-7,5.31-12.73,10.65-13.4,11.27-8.94,8.36-9.44,8.92-12.37,11.47-2.51,2.14-4,3.45-5.11,4.38-1.68,1.45-2.5,2.17-3.71,2.11-.68,0-1.61-.3-3.54-2.24-3.28-3.28-3.23-5.12-6.08-8a10,10,0,0,0-4.45-3.09c-2.65-.73-5,.42-7,1.37a47.74,47.74,0,0,0-5,2.61,2.68,2.68,0,0,1-.81.42c-1.66.49-3.84-.94-4.65-2a3.9,3.9,0,0,0-1.22-1.09,3.74,3.74,0,0,0-.41-.19,5.58,5.58,0,0,0-3.3.2,6.81,6.81,0,0,0-3.32,2.33,5.75,5.75,0,0,1-1.76,1.9,3,3,0,0,1-.93.4c-1,.2-1.81-.73-3.65-2.22-3-2.4-4.32-2.68-5.13-2.73a4.37,4.37,0,0,0-.75,0c-2.75.22-9.16,1.45-12.75,2.16l-1.83.18,0,.12a17.15,17.15,0,0,1-11.22-.2c-4.65-1.86-7-5.63-9.8-10.15-2.49-4.06-4.09-7.9-6.29-14.76-3.82-11.91-3.23-13.84-6.17-21.62-2.84-7.53-6.07-16.07-9.54-15.91-5.47.26-8.75,21.95-10.22,31.62-1.64,10.82-1.88,18.13-2.38,29.58-.35,7.83-2,44.63,2.85,77.83.52,3.57,1.58,10.24,4.79,11,4.45,1,10.14-9.58,11.75-12.27,2.29-3.83,3.55-8.07,5.9-16.42,2.7-9.58,2.23-12.92,5.64-19.54,2.58-5,5.13-10.58,11.14-13.21a19.49,19.49,0,0,1,12.95-.56l.12,0,1.83.24c3.56.84,9.93,2.3,12.66,2.61a4.85,4.85,0,0,0,.75,0c.82,0,2.19-.26,5.22-2.55,1.89-1.43,2.68-2.33,3.73-2.09a3.09,3.09,0,0,1,.91.43,5.79,5.79,0,0,1,1.7,2,6.73,6.73,0,0,0,3.24,2.45,5.55,5.55,0,0,0,3.28.31,3.32,3.32,0,0,0,.42-.17,4.15,4.15,0,0,0,1.26-1c.84-1,3.07-2.36,4.71-1.82a2.54,2.54,0,0,1,.8.45,47.45,47.45,0,0,0,4.9,2.79c1.95,1,4.3,2.24,7,1.61a10.21,10.21,0,0,0,4.55-2.93c2.94-2.74,3-4.59,6.35-7.75,2-1.87,2.94-2.11,3.62-2.12,1.21,0,2,.73,3.64,2.24l4.94,4.56c2.85,2.65,3.33,3.23,12,11.89.64.65,6.19,6.18,13,11.73a15.72,15.72,0,0,0,5.91,3.35c2.64.73,3.63.1,8,.25a50,50,0,0,1,8.74,1.22,59.3,59.3,0,0,1,10.94,3,38.33,38.33,0,0,1,12.3,7.5c5.4,5,7.86,10.52,9.6,14.54.59,1.35,1.77,5.19,4.14,12.86,1.49,4.8,2.56,9,5.69,13.81,1.93,3,2.9,4.45,4,4.41a1.17,1.17,0,0,0,.55-.15"/><path class="cls-8" d="M518.08,808.67c-2.55,26.81-5.21,34.4-7.35,35.53-7.78-9-13.92-56.11-13.43-97.22s7.77-86.82,14.41-93.21l0,0c2.26.18,5,6.8,6.62,38.37"/><path class="cls-6" d="M292.75,436.4l.08,6.25"/><path class="cls-7" d="M511.68,453c-2-.16-4.4,4.71-6.22,8.39A56.47,56.47,0,0,0,501,475.26c-4.36,18.17-20.91,29.74-27.68,32.83a46.1,46.1,0,0,1-8.42,2.82,46.59,46.59,0,0,1-8.77.92c-4.35,0-5.31-.67-8,0a15.51,15.51,0,0,0-6,3.14c-7,5.31-12.73,10.65-13.4,11.27-8.94,8.36-9.44,8.92-12.37,11.46l-5.11,4.39c-1.68,1.45-2.5,2.16-3.71,2.11-.68,0-1.61-.31-3.54-2.24-3.28-3.28-3.23-5.13-6.08-8a10.07,10.07,0,0,0-4.45-3.08c-2.65-.73-5,.41-7,1.36a47.74,47.74,0,0,0-5,2.61,2.49,2.49,0,0,1-.81.43c-1.66.48-3.84-.94-4.65-2a4,4,0,0,0-1.22-1.1s-.2-.1-.41-.18a5.52,5.52,0,0,0-3.3.19,6.84,6.84,0,0,0-3.32,2.34,5.73,5.73,0,0,1-1.76,1.89,3.26,3.26,0,0,1-.93.41c-1,.2-1.81-.73-3.65-2.23-3-2.39-4.32-2.68-5.13-2.73a5.74,5.74,0,0,0-.75,0c-2.75.23-9.16,1.46-12.75,2.17l-1.83.18,0,.11a17.07,17.07,0,0,1-11.22-.19c-4.65-1.86-7-5.64-9.8-10.15-2.49-4.07-4.09-7.9-6.29-14.76-3.82-11.92-3.23-13.84-6.17-21.62-2.84-7.53-6.07-16.07-9.54-15.91-5.47.26-8.75,21.95-10.22,31.62-1.64,10.82-1.88,18.13-2.38,29.58-.35,7.83-2,44.62,2.85,77.83.52,3.57,1.58,10.23,4.79,11,4.45,1,10.14-9.58,11.75-12.26,2.29-3.83,3.55-8.07,5.9-16.42,2.7-9.58,2.23-12.92,5.64-19.54,2.58-5,5.13-10.59,11.14-13.22a19.54,19.54,0,0,1,12.95-.55l.12,0,1.83.24c3.56.84,9.93,2.29,12.66,2.61a4.85,4.85,0,0,0,.75,0c.82,0,2.19-.26,5.22-2.55,1.89-1.43,2.68-2.33,3.73-2.1a3.09,3.09,0,0,1,.91.44,5.79,5.79,0,0,1,1.7,2,6.7,6.7,0,0,0,3.24,2.44,5.52,5.52,0,0,0,3.28.32,4.52,4.52,0,0,0,.42-.18,3.87,3.87,0,0,0,1.26-1c.84-1,3.07-2.36,4.71-1.82a2.55,2.55,0,0,1,.8.46,46.73,46.73,0,0,0,4.9,2.78c1.95,1,4.3,2.24,7,1.61a10.12,10.12,0,0,0,4.55-2.93c2.94-2.74,3-4.58,6.35-7.74,2-1.87,2.94-2.11,3.62-2.12,1.21,0,2,.73,3.64,2.24L416,559c2.85,2.65,3.33,3.22,12,11.89.64.64,6.19,6.18,13,11.73a15.57,15.57,0,0,0,5.91,3.34c2.64.73,3.63.1,8,.26a50,50,0,0,1,8.74,1.22,60,60,0,0,1,10.94,3,38.59,38.59,0,0,1,12.3,7.51c5.4,5,7.86,10.52,9.6,14.54.59,1.34,1.77,5.18,4.14,12.86,1.49,4.79,2.56,9,5.69,13.81,1.93,3,2.9,4.45,4,4.41a1.32,1.32,0,0,0,.55-.16"/><path class="cls-8" d="M518.08,607.92c-2.55,26.81-5.21,34.4-7.35,35.52-7.78-9-13.92-56.1-13.43-97.21s7.77-86.82,14.41-93.22l0,0c2.26.18,5,6.8,6.62,38.37"/><path class="cls-6" d="M292.75,235.65l.08,6.24"/><path class="cls-7" d="M511.68,252.23c-2-.16-4.4,4.7-6.22,8.39A56.56,56.56,0,0,0,501,274.5c-4.36,18.18-20.91,29.75-27.68,32.84a45.61,45.61,0,0,1-8.42,2.81,46.59,46.59,0,0,1-8.77.92c-4.35,0-5.31-.66-8,0a15.51,15.51,0,0,0-6,3.14c-7,5.31-12.73,10.64-13.4,11.27-8.94,8.35-9.44,8.91-12.37,11.46-2.51,2.14-4,3.45-5.11,4.38-1.68,1.46-2.5,2.17-3.71,2.11-.68,0-1.61-.3-3.54-2.24-3.28-3.28-3.23-5.12-6.08-8a10.1,10.1,0,0,0-4.45-3.09c-2.65-.72-5,.42-7,1.37a47.74,47.74,0,0,0-5,2.61,2.69,2.69,0,0,1-.81.43c-1.66.48-3.84-.94-4.65-2a4,4,0,0,0-1.22-1.09,3.74,3.74,0,0,0-.41-.19,5.58,5.58,0,0,0-3.3.2,6.81,6.81,0,0,0-3.32,2.33,5.75,5.75,0,0,1-1.76,1.9,3,3,0,0,1-.93.4c-1,.2-1.81-.73-3.65-2.22-3-2.39-4.32-2.68-5.13-2.73a5.74,5.74,0,0,0-.75,0c-2.75.22-9.16,1.46-12.75,2.17l-1.83.17,0,.12a17,17,0,0,1-11.22-.2c-4.65-1.86-7-5.63-9.8-10.14-2.49-4.07-4.09-7.9-6.29-14.76-3.82-11.92-3.23-13.84-6.17-21.62-2.84-7.53-6.07-16.08-9.54-15.91-5.47.26-8.75,21.94-10.22,31.62-1.64,10.81-1.88,18.12-2.38,29.57-.35,7.83-2,44.63,2.85,77.83.52,3.57,1.58,10.24,4.79,11,4.45,1.05,10.14-9.58,11.75-12.27,2.29-3.82,3.55-8.07,5.9-16.42,2.7-9.58,2.23-12.91,5.64-19.54,2.58-5,5.13-10.58,11.14-13.21a19.47,19.47,0,0,1,12.95-.55l.12,0,1.83.24c3.56.83,9.93,2.29,12.66,2.61a5.11,5.11,0,0,0,.75,0c.82,0,2.19-.26,5.22-2.55,1.89-1.42,2.68-2.33,3.73-2.09a3.09,3.09,0,0,1,.91.44,5.67,5.67,0,0,1,1.7,1.95,6.73,6.73,0,0,0,3.24,2.45,5.47,5.47,0,0,0,3.28.31,3.32,3.32,0,0,0,.42-.17,3.87,3.87,0,0,0,1.26-1c.84-1,3.07-2.36,4.71-1.82a2.54,2.54,0,0,1,.8.45,44.92,44.92,0,0,0,4.9,2.79c1.95,1,4.3,2.24,7,1.61a10.12,10.12,0,0,0,4.55-2.93c2.94-2.74,3-4.58,6.35-7.75,2-1.87,2.94-2.11,3.62-2.11,1.21,0,2,.72,3.64,2.23l4.94,4.56c2.85,2.65,3.33,3.23,12,11.89.64.65,6.19,6.18,13,11.73a15.45,15.45,0,0,0,5.91,3.35c2.64.73,3.63.1,8,.25a49.31,49.31,0,0,1,8.74,1.23,58.47,58.47,0,0,1,10.94,3,38.71,38.71,0,0,1,12.3,7.5c5.4,5,7.86,10.52,9.6,14.55.59,1.34,1.77,5.18,4.14,12.85,1.49,4.8,2.56,9,5.69,13.82,1.93,3,2.9,4.45,4,4.41a1.32,1.32,0,0,0,.55-.16"/><path class="cls-8" d="M518.08,407.16c-2.55,26.81-5.21,34.41-7.35,35.53-7.78-9-13.92-56.11-13.43-97.21s7.77-86.83,14.41-93.22l0,0c2.26.18,5,6.79,6.62,38.36"/><path class="cls-6" d="M515.88,533.58l.08,6.25"/><path class="cls-7" d="M734.81,550.16c-2-.16-4.4,4.71-6.22,8.39a56.47,56.47,0,0,0-4.49,13.89c-4.36,18.17-20.91,29.74-27.68,32.83A40.46,40.46,0,0,1,679.23,609c-4.35,0-5.31-.66-8,0a15.51,15.51,0,0,0-6,3.14c-7,5.31-12.73,10.65-13.4,11.27-8.93,8.36-9.44,8.92-12.37,11.46l-5.11,4.39c-1.68,1.45-2.5,2.16-3.71,2.11-.68,0-1.61-.31-3.54-2.24-3.28-3.28-3.23-5.13-6.08-8a10.07,10.07,0,0,0-4.45-3.08c-2.65-.73-5,.41-7,1.36a47.74,47.74,0,0,0-5,2.61,2.49,2.49,0,0,1-.81.43c-1.66.48-3.84-.94-4.65-2a4,4,0,0,0-1.22-1.1s-.2-.1-.41-.18a5.49,5.49,0,0,0-3.29.19,6.82,6.82,0,0,0-3.33,2.34,5.73,5.73,0,0,1-1.76,1.89,3.14,3.14,0,0,1-.93.41c-1,.2-1.81-.73-3.65-2.23-3-2.39-4.32-2.68-5.13-2.73a5.74,5.74,0,0,0-.75,0c-2.75.23-9.16,1.46-12.74,2.17l-1.84.18,0,.11a17.07,17.07,0,0,1-11.22-.19c-4.65-1.86-7-5.64-9.8-10.15-2.49-4.07-4.09-7.9-6.29-14.76-3.82-11.92-3.23-13.84-6.17-21.62-2.84-7.53-6.07-16.07-9.54-15.91-5.47.26-8.75,22-10.22,31.62-1.63,10.82-1.88,18.13-2.38,29.58-.35,7.83-2,44.62,2.85,77.83.52,3.57,1.58,10.23,4.79,11,4.45,1.05,10.14-9.57,11.75-12.26,2.29-3.83,3.55-8.07,5.9-16.42,2.7-9.58,2.23-12.92,5.64-19.54,2.58-5,5.13-10.59,11.14-13.22a19.54,19.54,0,0,1,13-.55l.12,0,1.83.24c3.56.84,9.93,2.29,12.66,2.61a4.85,4.85,0,0,0,.75,0c.82,0,2.19-.26,5.22-2.55,1.89-1.43,2.68-2.33,3.73-2.1a3.09,3.09,0,0,1,.91.44,5.79,5.79,0,0,1,1.7,2,6.7,6.7,0,0,0,3.24,2.44,5.52,5.52,0,0,0,3.28.32,4.52,4.52,0,0,0,.42-.18,3.87,3.87,0,0,0,1.26-1.05c.84-1,3.08-2.36,4.71-1.82a2.55,2.55,0,0,1,.8.46,46.73,46.73,0,0,0,4.9,2.78c2,1,4.3,2.25,7,1.61a10.12,10.12,0,0,0,4.55-2.93c2.94-2.74,3-4.58,6.35-7.74,2-1.87,2.94-2.11,3.62-2.12,1.21,0,2,.73,3.64,2.24l4.94,4.56c2.85,2.65,3.33,3.22,12,11.89.64.64,6.19,6.18,13,11.73a15.57,15.57,0,0,0,5.91,3.34c2.65.73,3.63.1,8,.26a50,50,0,0,1,8.74,1.22,60,60,0,0,1,10.94,3,38.59,38.59,0,0,1,12.3,7.51c5.4,5,7.86,10.52,9.61,14.54.58,1.34,1.76,5.18,4.14,12.86,1.48,4.79,2.55,9,5.68,13.81,1.93,3,2.9,4.45,4,4.41a1.32,1.32,0,0,0,.55-.16"/><path class="cls-8" d="M741.22,705.1c-2.56,26.81-5.22,34.4-7.36,35.52-7.78-9-13.92-56.1-13.43-97.21s7.77-86.82,14.41-93.22l0,0c2.26.18,5,6.8,6.62,38.37"/><path class="cls-6" d="M515.88,332.83l.08,6.25"/><path class="cls-7" d="M734.81,349.41c-2-.16-4.4,4.7-6.22,8.39a56.56,56.56,0,0,0-4.49,13.88c-4.36,18.18-20.91,29.75-27.68,32.84a45.91,45.91,0,0,1-8.41,2.81,46.74,46.74,0,0,1-8.78.92c-4.35,0-5.31-.66-8,0a15.51,15.51,0,0,0-6,3.14c-7,5.31-12.73,10.64-13.4,11.27-8.93,8.35-9.44,8.91-12.37,11.46l-5.11,4.38c-1.68,1.46-2.5,2.17-3.71,2.11-.68,0-1.61-.3-3.54-2.24-3.28-3.28-3.23-5.12-6.08-8a10.1,10.1,0,0,0-4.45-3.09c-2.65-.72-5,.42-7,1.37a47.74,47.74,0,0,0-5,2.61,2.69,2.69,0,0,1-.81.43c-1.66.48-3.84-.94-4.65-2a4,4,0,0,0-1.22-1.09,3.74,3.74,0,0,0-.41-.19,5.54,5.54,0,0,0-3.29.2,6.79,6.79,0,0,0-3.33,2.33,5.75,5.75,0,0,1-1.76,1.9,2.91,2.91,0,0,1-.93.4c-1,.2-1.81-.73-3.65-2.22-3-2.39-4.32-2.68-5.13-2.73a5.74,5.74,0,0,0-.75,0c-2.75.22-9.16,1.46-12.74,2.17l-1.84.17,0,.12a17,17,0,0,1-11.22-.2c-4.65-1.86-7-5.63-9.8-10.14-2.49-4.07-4.09-7.9-6.29-14.76-3.82-11.92-3.23-13.84-6.17-21.62-2.84-7.53-6.07-16.08-9.54-15.91-5.47.26-8.75,21.94-10.22,31.62-1.63,10.81-1.88,18.12-2.38,29.57-.35,7.83-2,44.63,2.85,77.83.52,3.57,1.58,10.24,4.79,11,4.45,1.05,10.14-9.58,11.75-12.27,2.29-3.82,3.55-8.07,5.9-16.42,2.7-9.58,2.23-12.91,5.64-19.54,2.58-5,5.13-10.58,11.14-13.21a19.47,19.47,0,0,1,13-.55l.12,0,1.83.24c3.56.83,9.93,2.29,12.66,2.61a5.11,5.11,0,0,0,.75,0c.82,0,2.19-.26,5.22-2.55,1.89-1.42,2.68-2.33,3.73-2.09a3.09,3.09,0,0,1,.91.44,5.67,5.67,0,0,1,1.7,1.95,6.73,6.73,0,0,0,3.24,2.45,5.47,5.47,0,0,0,3.28.31,3.32,3.32,0,0,0,.42-.17,3.87,3.87,0,0,0,1.26-1.05c.84-1,3.08-2.36,4.71-1.82a2.54,2.54,0,0,1,.8.45,44.92,44.92,0,0,0,4.9,2.79c2,1,4.3,2.24,7,1.61a10.12,10.12,0,0,0,4.55-2.93c2.94-2.74,3-4.58,6.35-7.75,2-1.86,2.94-2.11,3.62-2.11,1.21,0,2,.72,3.64,2.23l4.94,4.56c2.85,2.65,3.33,3.23,12,11.89.64.65,6.19,6.18,13,11.73A15.45,15.45,0,0,0,670,482.4c2.65.73,3.63.1,8,.25a49.31,49.31,0,0,1,8.74,1.23,58.47,58.47,0,0,1,10.94,3,38.71,38.71,0,0,1,12.3,7.5c5.4,5,7.86,10.52,9.61,14.55.58,1.34,1.76,5.18,4.14,12.85,1.48,4.8,2.55,9,5.68,13.82,1.93,3,2.9,4.45,4,4.41a1.32,1.32,0,0,0,.55-.16"/><path class="cls-8" d="M741.22,504.34c-2.56,26.81-5.22,34.41-7.36,35.53-7.78-9-13.92-56.11-13.43-97.21s7.77-86.83,14.41-93.22l0,0c2.26.18,5,6.79,6.62,38.36"/><path class="cls-6" d="M739.65,436.4l.08,6.25"/><path class="cls-7" d="M958.58,453c-2-.16-4.4,4.71-6.22,8.39a56.47,56.47,0,0,0-4.49,13.89C943.51,493.43,927,505,920.19,508.09A40.46,40.46,0,0,1,903,511.83c-4.35,0-5.31-.67-8,0a15.51,15.51,0,0,0-6,3.14c-7,5.31-12.73,10.65-13.4,11.27-8.93,8.36-9.44,8.92-12.37,11.46l-5.11,4.39c-1.68,1.45-2.5,2.16-3.71,2.11-.68,0-1.61-.31-3.54-2.24-3.28-3.28-3.23-5.13-6.08-8a10.07,10.07,0,0,0-4.45-3.08c-2.65-.73-5,.41-7,1.36a47.74,47.74,0,0,0-5,2.61,2.49,2.49,0,0,1-.81.43c-1.66.48-3.84-.94-4.65-2a4,4,0,0,0-1.22-1.1s-.2-.1-.41-.18a5.49,5.49,0,0,0-3.29.19,6.82,6.82,0,0,0-3.33,2.34,5.73,5.73,0,0,1-1.76,1.89,3.14,3.14,0,0,1-.93.41c-1,.2-1.81-.73-3.65-2.23-3-2.39-4.32-2.68-5.13-2.73a5.74,5.74,0,0,0-.75,0c-2.75.23-9.16,1.46-12.74,2.17l-1.84.18,0,.11a17.07,17.07,0,0,1-11.22-.19c-4.65-1.86-7-5.64-9.8-10.15-2.49-4.07-4.09-7.9-6.29-14.76-3.82-11.92-3.23-13.84-6.17-21.62-2.84-7.53-6.07-16.07-9.54-15.91-5.47.26-8.75,21.95-10.22,31.62-1.63,10.82-1.88,18.13-2.38,29.58-.35,7.83-2,44.62,2.85,77.83.52,3.57,1.58,10.23,4.79,11,4.45,1,10.14-9.58,11.75-12.26,2.29-3.83,3.55-8.07,5.9-16.42,2.7-9.58,2.23-12.92,5.64-19.54,2.58-5,5.13-10.59,11.14-13.22a19.54,19.54,0,0,1,13-.55l.12,0,1.83.24c3.56.84,9.93,2.29,12.66,2.61a4.85,4.85,0,0,0,.75,0c.82,0,2.19-.26,5.22-2.55,1.89-1.43,2.68-2.33,3.73-2.1a3.09,3.09,0,0,1,.91.44,5.79,5.79,0,0,1,1.7,2,6.7,6.7,0,0,0,3.24,2.44,5.52,5.52,0,0,0,3.28.32,4.52,4.52,0,0,0,.42-.18,3.87,3.87,0,0,0,1.26-1c.84-1,3.08-2.36,4.71-1.82a2.55,2.55,0,0,1,.8.46,46.73,46.73,0,0,0,4.9,2.78c2,1,4.3,2.24,7,1.61a10.12,10.12,0,0,0,4.55-2.93c2.94-2.74,3-4.58,6.35-7.74,2-1.87,2.94-2.11,3.62-2.12,1.21,0,2,.73,3.64,2.24l4.94,4.56c2.85,2.65,3.33,3.22,12,11.89.64.64,6.19,6.18,13,11.73a15.57,15.57,0,0,0,5.91,3.34c2.65.73,3.63.1,8,.26a50,50,0,0,1,8.74,1.22,60,60,0,0,1,10.94,3,38.59,38.59,0,0,1,12.3,7.51c5.4,5,7.86,10.52,9.61,14.54.58,1.34,1.76,5.18,4.14,12.86,1.48,4.79,2.55,9,5.68,13.81,1.93,3,2.9,4.45,4,4.41a1.32,1.32,0,0,0,.55-.16"/><path class="cls-9" d="M965,607.92c-2.56,26.81-5.22,34.4-7.36,35.52-7.78-9-13.92-56.1-13.43-97.21S952,459.41,958.61,453l0,0c2.26.18,5,6.8,6.62,38.37"/><circle class="cls-1" cx="960" cy="548.21" r="14.7"/></svg>