<svg id="Layer_1" data-name="Layer 1" xmlns="http://www.w3.org/2000/svg" viewBox="0 0 425 379"><path d="M291,369h-24.7c-1.42-1.58-1.11-3.51-1.27-5.37a10.36,10.36,0,0,0-.64-2,4.73,4.73,0,0,1-.23-1c-.09-1.16-.1-2.32-.22-3.47a8.18,8.18,0,0,0-.48-1.39,9.1,9.1,0,0,1-.39-1.6c-.21-1.71,0-3.41-.81-5.11-.53-1.09-.18-2.59-.31-3.9a6,6,0,0,0-.53-1.34,4.19,4.19,0,0,1-.32-1.12c-.07-.91-.05-1.84-.1-2.75,0-.73.15-1.51-.68-2-.22-.15-.17-.74-.22-1.13-.22-1.49.1-3-.76-4.47-.56-1-.16-2.51-.31-3.78a10.33,10.33,0,0,0-.59-1.81,4.77,4.77,0,0,1-.25-1c-.09-1.11-.1-2.24-.23-3.35a11.46,11.46,0,0,0-.53-1.63,9.79,9.79,0,0,1-.36-1.49c-.22-1.74.06-3.49-.82-5.22-.51-1-.16-2.43-.29-3.66a7.8,7.8,0,0,0-.57-1.57,4.57,4.57,0,0,1-.3-1.14c-.06-1,0-2-.12-3a8.26,8.26,0,0,0-.63-1.64,4,4,0,0,1-.22-1c-.07-1.2.22-2.53-.22-3.57-.81-1.9-.28-4.05-1-5.75-1.1-2.59-.57-5.2-1-7.77a5.36,5.36,0,0,0-.1-.7,20.13,20.13,0,0,1-.75-2.56c-.32-2.12,0-4.25-.65-6.42-.6-1.91-.31-4.1-.46-6.17a4.2,4.2,0,0,0-.48-1.07,3.39,3.39,0,0,1-.32-1,34.57,34.57,0,0,1-.1-4.43,12.84,12.84,0,0,0-1-5.11c-.08-.22-.58-.3-.74-.37-1.44,2.21-1.15,4.55-1.34,6.83-.1,1.23-.6,2.43-.74,3.67-.19,1.78-.17,3.58-.3,5.37-.09,1.14.28,2.4-.76,3.35-.15.13-.08.53-.08.81,0,1.52,0,3-.14,4.56-.06.86.26,1.86-.72,2.51-.18.11-.13.59-.14.91,0,1.64,0,3.28-.12,4.92,0,.78.27,1.7-.75,2.21-.16.08-.11.59-.15.91-.15,1.51.06,3-.78,4.5-.48.84-.12,2.12-.27,3.18a16,16,0,0,1-.67,2.21,4.14,4.14,0,0,0-.21.91c-.1,1.16.12,2.43-.3,3.44-.83,2-.43,4.11-1.11,5.94A18.43,18.43,0,0,0,238,318c-.08.73.14,1.55-.75,2-.14.08-.14.51-.16.78,0,1,0,1.92-.11,2.87a6.34,6.34,0,0,1-.58,1.42,3.1,3.1,0,0,0-.26.87c-.08,1.16.24,2.49-.23,3.44-1,1.92-.32,4.08-1.08,5.87s-.65,3.55-.88,5.33a6.93,6.93,0,0,1-.56,1.37,3.92,3.92,0,0,0-.31,1c-.07,1,0,2.08-.17,3.11a19.89,19.89,0,0,1-.65,2c-.13.49-.12,1-.2,1.52-.19,1.24.17,2.48-.8,3.72-.56.71-.14,2.16-.25,3.27-.09.89.38,2-.82,2.53-.1,0-.06.38-.09.57-.21,1.61.18,3.25-.82,4.82-.5.79-.22,2.11-.2,3.19s-.31,1.36-1.3,1.36h-23c-.64,0-1.6-1.44-1.67-2.52s0-1.92-.1-2.87c-.14-1.12-.49-2.21-.65-3.32s-.18-2.38-.3-3.56.27-2.31-.76-3.24c-.22-.2-.15-.76-.17-1.16,0-1.24,0-2.48-.11-3.72a10.89,10.89,0,0,0-.62-1.91,6.17,6.17,0,0,1-.25-1.28c-.06-1.08,0-2.16-.12-3.23a6.11,6.11,0,0,0-.53-1.44,4,4,0,0,1-.22-.67c0-.31,0-.64-.05-1a20.55,20.55,0,0,0-1-7.13,5.08,5.08,0,0,1-.11-1.31c-.17-1.5.21-3.07-.75-4.49-.33-.51-.2-1.32-.28-2-.22-1.69,0-3.37-.64-5.11-.58-1.48-.27-3.31-.44-5a6.37,6.37,0,0,0-.56-1.41,3.21,3.21,0,0,1-.26-1c-.07-1.2,0-2.41-.14-3.6-.07-.89.33-1.92-.71-2.59-.18-.11-.14-.6-.16-.92,0-1.19,0-2.4-.15-3.59-.21-1.68-.61-3.33-.87-5-.1-.66,0-1.37-.09-2-.24-1.36-.61-2.69-.87-4a15.44,15.44,0,0,1-.11-1.67c-.12-1.36.07-2.73-.71-4a6.3,6.3,0,0,1-.32-2.58,15.43,15.43,0,0,0-.64-4.52c-.54-1.42-.25-3.15-.42-4.74a8.68,8.68,0,0,0-.6-1.68,4.16,4.16,0,0,1-.25-1.14c-.06-1.24,0-2.48-.11-3.72,0-.8.2-1.65-.67-2.27-.23-.16-.19-.74-.21-1.14-.05-1.11,0-2.24-.13-3.35-.1-.83-.51-1.61-.64-2.44s-.19-2-.27-3a12.17,12.17,0,0,0-.69-4.25c-.59-1.35-.26-3.07-.44-4.62-.09-.79-.46-1.55-.6-2.35a26.37,26.37,0,0,1-.34-2.95,14.66,14.66,0,0,0-.7-4.41c-.5-1.27-.18-2.84-.34-4.27a14.84,14.84,0,0,0-.66-2.16,5.16,5.16,0,0,1-.22-1.16c-.05-1.2,0-2.4-.09-3.6,0-.81.13-1.64-.66-2.3-.26-.2-.22-.82-.24-1.25-.06-1.24.23-2.6-.18-3.7-.94-2.53-.68-5.15-1-7.73a7.2,7.2,0,0,0-.63-1.55,6,6,0,0,1,1.32-.31c7.32,0,14.64,0,22,0a6.48,6.48,0,0,1,.66.13c.3,3.22.58,6.51.92,9.8.09.84.38,1.66.54,2.49a17.29,17.29,0,0,1,.29,2.13c.07,1.56,0,3.12.14,4.68a11.93,11.93,0,0,0,.65,2.17,4.14,4.14,0,0,1,.19,1c.05,1.64.06,3.28.12,4.92.05,1.07-.23,2.19.7,3.13.29.28.17,1,.19,1.51,0,1.68,0,3.36.15,5a14.15,14.15,0,0,0,.55,2.27,6.62,6.62,0,0,1,.23,1.16c0,1.32,0,2.65.13,4,.17,1.51.63,3,.79,4.49.19,2,.16,3.92.32,5.87a26.06,26.06,0,0,0,.59,2.73,13.91,13.91,0,0,1,.29,2c.07,1.56,0,3.12.14,4.67.09,1,.56,1.89.65,2.84.18,1.83.2,3.67.28,5.51,0,1.05-.17,2.14.74,3,.18.17.13.61.13.92.05,1.8.07,3.6.13,5.4,0,.88-.21,1.83.67,2.53.21.16.17.68.18,1,0,1.52,0,3,.15,4.55.22,2.31.67,4.6.86,6.91.16,2,.06,4.08.11,6.12,0,.85-.2,1.74.6,2.45.22.19.14.75.15,1.15q.16,6.76.32,13.54a6.17,6.17,0,0,0,.09.76h1.89a11.3,11.3,0,0,1,.1-1.57,9.72,9.72,0,0,1,.51-1.21,3.94,3.94,0,0,0,.27-1.1c.07-2.88.09-5.76.19-8.63a5.31,5.31,0,0,1,.49-1.36,4.89,4.89,0,0,0,.29-1.23c.07-2.16,0-4.32.16-6.47.08-1.2.52-2.36.67-3.56s.1-2.4.26-3.58a14.56,14.56,0,0,1,.68-2.19,7.26,7.26,0,0,0,.22-1c.21-1.54.05-3.08.84-4.6.5-1,.2-2.35.37-3.53a15.58,15.58,0,0,1,.64-1.93,10.8,10.8,0,0,0,.21-1.16c.25-1.41-.39-3,.86-4.26.36-.37.14-1.31.17-2,0-.92-.27-2.09.18-2.7,1.14-1.58.35-3.45,1-4.93.83-1.79.28-3.75.93-5.38.75-1.92.38-4,1.13-5.73s.27-3.85.95-5.5c.76-1.84.22-3.89,1-5.46,1-1.86.51-3.69.84-5.51a6.2,6.2,0,0,1,.55-1.21,3,3,0,0,0,.3-.85c.17-1.55-.1-3.12.84-4.61.42-.68.08-1.81.22-2.71.12-.73.51-1.42.68-2.15s.19-1.49.31-2.24c.19-1.29-.08-2.58.83-3.85.55-.77.16-2.17.3-3.28a17.44,17.44,0,0,1,.54-1.69c.16-.7.21-1.42.33-2.12.23-1.3-.44-2.78.89-3.88.24-.21,0-.93.1-1.4.22-1.26-.35-2.63.8-3.81.43-.44.2-1.53.28-2.41h19.87a9,9,0,0,0,.15,1.23c.19.75.45,1.48.63,2.23a14.59,14.59,0,0,1,.31,1.87c.17,1.33-.08,2.66.72,4,.51.85.16,2.19.31,3.3a7.46,7.46,0,0,0,.61,1.48,4.16,4.16,0,0,1,.27,1c.05.92,0,1.84.09,2.76s-.22,1.74.7,2.37c.23.16.18.75.22,1.14.2,1.66-.12,3.33.8,5,.51.9.15,2.28.27,3.43a6.57,6.57,0,0,0,.52,1.32,4.64,4.64,0,0,1,.31,1.13c.1,1.11.1,2.24.24,3.35.07.54.4,1.05.53,1.6a12.41,12.41,0,0,1,.39,2.09,12.53,12.53,0,0,0,.73,4.5c.45,1,.22,2.27.33,3.42.06.67-.21,1.47.73,1.84.13.05.13.5.15.78,0,.91,0,1.84.11,2.75a8.73,8.73,0,0,0,.61,1.63,4.66,4.66,0,0,1,.26,1.15c.06,1-.23,2.23.18,3.09,1,2.19.38,4.62,1.14,6.72.61,1.67.32,3.44.92,4.93.87,2.15.37,4.47,1.1,6.45.68,1.82.55,3.57.83,5.34a5.52,5.52,0,0,0,.47,1.1,2.94,2.94,0,0,1,.36.94c.07.92,0,1.84.1,2.76s-.15,1.66.72,2.38c.39.31.19,1.35.26,2.06.1,1.15-.2,2.36.72,3.39.3.34.17,1.08.18,1.64.05,2.56.06,5.12.12,7.67a4.94,4.94,0,0,0,.56,2.58c.5.88.3,2.17.33,3.28.08,2.8.11,5.6.18,8.4a5.34,5.34,0,0,0,.21,1.65c.42,1.22,1.38,1.36,2.66,1v-1.2c.05-5.11.09-10.23.18-15.35a4.8,4.8,0,0,1,.46-1.24,4.45,4.45,0,0,0,.32-1.2c.07-2.48,0-5,.16-7.44.07-1.23.53-2.44.69-3.68s.12-2.23.18-3.34c.09-1.71-.13-3.53.35-5.12,1.05-3.39.07-7,1-10.23s0-6.91,1-10.11-.07-6.64.94-9.68c1.15-3.45-.05-7,1-10.23.89-2.72.16-5.42.88-8,1-3.52.26-7.18,1.12-10.6s.12-7.06,1.07-10.37.38-6.86.9-10.25a15.58,15.58,0,0,1,1-2.77c.19,0,.58-.05,1-.05h20.76c1.9,0,2.1.35,1.26,2a2.41,2.41,0,0,0-.11.94c-.09,1.55.18,3.24-.34,4.64-.89,2.42-.22,5-1,7.3s-.21,4.78-1,6.94c-.82,2.35-.14,4.87-1,7-.95,2.43-.15,4.95-1,7.14s-.24,4.63-1,6.68c-.91,2.51-.32,5.08-1,7.48-.73,2.58-.39,5.34-1.16,7.77s-.12,4.82-.93,6.95c-.91,2.38-.11,4.92-1,7.06-1,2.41-.12,5-1,7.11s-.22,4.51-.94,6.53c-.87,2.46-.37,5-1,7.37-.69,2.67-.41,5.49-1.2,8s-.1,4.89-.92,7.06c-.91,2.37-.11,4.91-1,7-1,2.34-.1,4.8-.94,6.88-.93,2.29-.25,4.68-1,6.78-.81,2.31-.22,4.76-1,6.87-1,2.86-.24,5.89-1.21,8.54-.84,2.31-.1,4.7-.91,6.78-.92,2.4-.25,4.91-1,7.15A17.54,17.54,0,0,0,291,369Z"/><path d="M407.91,369H389.15c-1.85,0-2-.17-2.19-2a3.51,3.51,0,0,0-.57-1.1,3.22,3.22,0,0,1-.29-.59,7,7,0,0,0-.86-2.6c-.75-1.13-.88-2.66-1.3-4a2.86,2.86,0,0,0-.43-.73c-.11-.15-.33-.25-.37-.41-.4-1.46-.75-2.93-1.18-4.39a5.32,5.32,0,0,0-.67-1.1c-.09-.15-.24-.31-.25-.47a4,4,0,0,0-.78-2.15c-.74-1.1-.83-2.63-1.24-4a12.79,12.79,0,0,0-.71-1.5,4,4,0,0,1-.21-.41c-.29-.74-.61-1.47-.86-2.23-.44-1.41-.82-2.84-1.28-4.24a7.74,7.74,0,0,0-.61-1.13,5.21,5.21,0,0,1-.31-.83c-.2-.77.26-1.8-.89-2.22-.11,0,0-.46-.13-.68-.21-.5-.46-1-.7-1.49,0-.07-.1-.13-.12-.2-.41-1.44-.8-2.89-1.24-4.32a7.29,7.29,0,0,0-.63-1.16c-.11-.19-.3-.38-.31-.58a5.11,5.11,0,0,0-.7-2,30.21,30.21,0,0,1-1.35-4.39,5.3,5.3,0,0,0-.69-1.16c0-.09-.16-.16-.19-.26-.35-1.05-.7-2.09-1-3.15-.42-1.39-.52-3-1.31-4.14-.63-.89-.43-2-1-2.58-.88-.93-.28-2.51-1.61-3.1a.15.15,0,0,1,0-.11c.43-1.63-1.14-2.71-1.19-4.24,0-.46-.43-.91-.66-1.36,0-.06-.13-.1-.15-.17-.38-1.19-.72-2.4-1.13-3.59a12.17,12.17,0,0,0-.73-1.44c0-.07-.1-.13-.12-.2-.4-1.44-.76-2.88-1.2-4.3a7.23,7.23,0,0,0-.72-1.3c0-.06-.17-.12-.16-.15.39-1.38-1.07-2.16-1.09-3.42,0-.6.12-1.3-.72-1.61-.17-.07-.18-.65-.22-1-.09-.73.08-1.56-.84-1.91a.13.13,0,0,1-.07-.09,19.47,19.47,0,0,0-1.24-3.78c-.75-1.34-.43-3.1-1.75-4.18-.12-.09-.09-.37-.11-.56-.08-.63.13-1.38-.73-1.69a.35.35,0,0,1-.14-.31c.29-1.47-1-2.42-1.2-3.76,0-.2-.3-.37-.46-.55-.14.2-.42.42-.4.59.08.56.31,1.09.4,1.65a31.79,31.79,0,0,1,.46,3.51c.1,2,0,4,.15,6,.1,1.55.48,3.08.59,4.62.17,2.23.24,4.47.28,6.7.06,3.08,0,6.16.07,9.24,0,.71-.2,1.51.65,2,.19.12.16.67.17,1q0,34.26.08,68.52c0,.31,0,.62-.06,1H329V207.14H349c.36,1.2.42,2.73,1.2,3.63s.42,2.4,1,2.76c1.47,1,.15,2.94,1.67,3.71.14.08.1.52.15.79.13.77-.19,1.73.88,2.12.09,0,.07.3.13.44q.38,1,.78,2a.37.37,0,0,0,0,.11c.41,1.38.79,2.77,1.24,4.13a7.21,7.21,0,0,0,.73,1.29c0,.07.14.14.13.18-.43,1.63,1.11,2.7,1.18,4.2a4.14,4.14,0,0,0,.63,1.42c0,.07.14.1.16.16.39,1.23.74,2.46,1.16,3.68a9.66,9.66,0,0,0,.69,1.36,2.28,2.28,0,0,1,.17.3c.39,1.48.75,3,1.18,4.43a5,5,0,0,0,.66,1.09c.08.13.23.24.24.36a4.52,4.52,0,0,0,.8,2.29c.74,1.09.81,2.63,1.22,4,.16.53.49,1,.7,1.52a6.33,6.33,0,0,1,.32,1.13c.14.7-.08,1.56.87,1.89a.16.16,0,0,1,.07.09c.35,1.05.74,2.09,1,3.16.19.7-.16,1.61.88,2,.12.05.09.52.14.79.14.75-.3,1.72.83,2.1.11,0,.1.43.15.66a4,4,0,0,0,.82,2.35c.72.79.86,2.14,1.18,3.27.18.65-.09,1.47.8,1.81.06,0,.09.13.11.2.39,1.43.75,2.87,1.17,4.29.13.44.52.79.67,1.22a10,10,0,0,1,.32,1.46c.1.58-.19,1.35.74,1.53a.26.26,0,0,1,.16.15c.35,1.2.66,2.41,1.05,3.59a10.07,10.07,0,0,0,.72,1.43,1.06,1.06,0,0,1,.12.2,33.35,33.35,0,0,0,1.32,4.5c.52,1.16.58,2.55,1.61,3.47.06.05.14.13.13.19-.35,1.57.9,2.68,1.19,4.09a27.74,27.74,0,0,0,1.7,4.42,32.88,32.88,0,0,1,1.22,3.26c.2.73,0,1.56.78,2.11.21.13.15.67.23,1,.13.63-.24,1.45.81,1.74.19.06.11,1,.22,1.47a10.89,10.89,0,0,0,.45,1.2,3.83,3.83,0,0,0,.53-1.27c0-1.6,0-3.2-.06-4.8,0-.2,0-.5-.06-.58-1.31-.94-.75-2.33-.81-3.52-.13-2.83-.06-5.68-.13-8.51,0-.47-.39-.92-.53-1.4a4.13,4.13,0,0,1-.24-1.25q-.14-28.5-.22-57c0-9.12,0-18.24,0-27.36,0-.32,0-.63.06-1h21.9Z"/><path d="M171,287.44q0,13.92,0,27.84c0,2.48,0,5-.1,7.44a4.6,4.6,0,0,1-.48,1.23,4,4,0,0,0-.29,1.1c-.08,2-.07,4-.18,6a12.37,12.37,0,0,1-.51,1.79,24.53,24.53,0,0,0-.36,2.43c-.09,1,.12,2-.82,2.75-.16.13-.11.53-.16.8-.15.9.12,1.93-.83,2.57,0,0,0,.15-.07.23-.41,1.56-.72,3.16-1.26,4.68a22,22,0,0,1-1.57,3c0,.07-.12.11-.15.18a28.27,28.27,0,0,1-1.19,3,28.26,28.26,0,0,1-1.74,2.52c-.45.66-.82,1.37-1.3,2a23.43,23.43,0,0,1-1.67,1.92c-.4.43-.83.84-1.27,1.23-.76.66-1.55,1.29-2.31,1.95-.58.51-1.12,1.08-1.73,1.56-.33.27-.79.37-1.15.61a15.28,15.28,0,0,1-3.09,1.79,20,20,0,0,0-2.86,1.5c-.1.06-.17.19-.27.22-1.5.42-3,.86-4.53,1.22-.89.2-1.91-.17-2.61.78-.15.2-.68.16-1,.16-4.64,0-9.28.05-13.92,0a6.06,6.06,0,0,1-1.49-.53,12.39,12.39,0,0,0-1.46-.35c-1.3-.23-2.63.14-3.88-.93-.89-.76-2.52-.56-3.56-1.21s-2.34-.7-3.2-1.78c-.5-.63-1.57-.77-2.34-1.21a7.68,7.68,0,0,1-1.51-1.16c-.88-.85-1.72-1.73-2.55-2.63s-1.7-2-2.64-2.93a6.84,6.84,0,0,1-2-3c-.25-.86-1.2-1.48-1.67-2.3A28.68,28.68,0,0,0,96,349.23c-.95-1.3-.61-3.1-1.81-4.28-.18-.18-.11-.61-.15-.92-.09-.76.16-1.65-.82-2a.29.29,0,0,1-.11-.2c-.36-1.85-.7-3.7-1.09-5.54-.18-.87-.48-1.7-.69-2.56a6.26,6.26,0,0,1-.17-1.3c-.06-1.72-.06-3.44-.16-5.15a6.12,6.12,0,0,0-.49-1.5,2.79,2.79,0,0,1-.23-.78c-.07-1.51-.15-3-.15-4.55q0-32,0-64.07c0-2.08.09-4.16.14-6.23a.85.85,0,0,1,0-.36c1.43-2.08.45-4.47.87-6.67.14-.7.51-1.35.65-2a15.47,15.47,0,0,0,.24-2.36,2.84,2.84,0,0,1,.75-2.11c.41-.41.17-1.44.27-2.19.07-.53-.23-1.27.68-1.42.08,0,.16-.17.19-.27A37.23,37.23,0,0,1,95,228.46,8.05,8.05,0,0,1,96.81,225a.63.63,0,0,0,.19-.41c0-1.27.9-2,1.72-2.83a.47.47,0,0,0,.16-.3c0-1.29,1.45-1.77,1.74-2.7.46-1.52,1.76-2.22,2.59-3.33a15,15,0,0,1,3-2.42c.62-.48,1.23-1,1.86-1.42.26-.2.57-.33.84-.51,1-.69,2.27-.91,3.1-1.88a.52.52,0,0,1,.3-.16,6.46,6.46,0,0,0,2.14-.8,24.45,24.45,0,0,1,5-1.23,16.68,16.68,0,0,1,3.31-.82c5.27-.1,10.55-.07,15.83-.09,1.55,1,3.47.54,5,1.15,1,.4,2.51.35,2.92.91.94,1.3,2.65.24,3.5,1.64.42.69,1.68.85,2.53,1.3a3.57,3.57,0,0,1,1.28.92c.87,1.22,2.53,1.4,3.33,2.81.55,1,1.79,1.51,2.59,2.36a15.61,15.61,0,0,1,1.27,2.1c.4.61.86,1.18,1.32,1.76.09.11.34.12.39.23.46,1,.88,2.05,1.33,3.06a4.1,4.1,0,0,0,.46.71c.11.14.38.22.4.36a6,6,0,0,0,.84,2.08A21.38,21.38,0,0,1,167,232a10.58,10.58,0,0,0,.55,1,6,6,0,0,1,.39,1.31c.16,1.06-.11,2.23.89,3.05.09.08.09.31.1.46.05,3.65,1.54,7.14,1.14,10.84a2.64,2.64,0,0,0,.67,2.64c.21.18.13.76.13,1.16v34.91Zm-54.91,1.48q0,21,0,42c0,.64-.19,1.56.15,1.86,1,.93.61,2.07.72,3.12s.07,2.23.11,3.35c0,.27,0,.69.17.76.92.43.61,1.28.79,2,.33,1.29.72,2.56,1.1,3.84,0,.06.12.09.17.15.6.73,1.18,1.48,1.82,2.19a6.77,6.77,0,0,0,1.69,1.65c1.18.63,2.27,1.64,3.8,1.35a.37.37,0,0,1,.31.13c.31,1,1.14.66,1.8.7a12.22,12.22,0,0,1,2.27,0c2.07.51,3.66-1.24,5.63-1.08.09,0,.19-.11.28-.18.42-.28.82-.58,1.25-.84.2-.12.57-.1.64-.25.57-1.25,2.4-1.63,2.3-3.34,0-.08.12-.26.18-.25.92,0,.64-.73.77-1.21a9,9,0,0,1,.24-.89c.22-.59.51-1.15.69-1.75s0-1.23.34-1.6a4.54,4.54,0,0,0,.72-2.91c.06-1,.07-1.91.19-2.86a40.79,40.79,0,0,0,.76-5.22c.05-23.72.1-47.44,0-71.16,0-4.77.76-9.59-.66-14.35-.74-2.47.28-5.24-1.18-7.71-.49-.83-.3-2-.86-3a39.92,39.92,0,0,1-2-3.81c-.74-1.86-2.54-2.2-3.69-3.39-.61-.64-2.09-.67-3.13-.94-3-.77-6,.07-8.94.9a4.15,4.15,0,0,0-1.48,1.05c-.55.51-.94,1.2-1.53,1.65a8,8,0,0,0-2.38,3.53c-.55,1.29-1.58,2.6-1.17,4.21,0,.09,0,.3-.11.32-1,.38-.72,1.3-.76,2-.09,1.59-.11,3.19-.16,4.79,0,.28.05.7-.1.81-1.09.8-.71,1.94-.71,3Q116,268.22,116.05,288.92Z"/><path d="M141.09,16c.37,2.44.43,4.86,1.16,7.06.59,1.75.2,3.65.88,5.16.91,2,.34,4.24,1.16,6.05s.29,3.49.92,5c.73,1.77.21,3.8,1,5.24,1.07,2,.15,4.1,1,5.77s.29,3.74,1,5.27.51,3.23.82,4.83c.24,1.28.71,2.53.93,3.82s-.09,2.55.86,3.6a.57.57,0,0,1,.13.33c.37,2.77.74,5.53,1.1,8.3.08.63-.16,1.37.69,1.74.14.07.17.5.18.77.05.92,0,1.85.12,2.75a7.66,7.66,0,0,0,.6,1.51,3.57,3.57,0,0,1,.26.9c.06.6,0,1.2.09,1.8.34,2.56.31,5.27,1.2,7.62.64,1.68.29,3.44,1,4.87,1,2,.41,4.21,1.09,6.1.6,1.67.21,3.54.92,4.91,1,2,.21,4.09,1,5.77s.27,3.68,1,5.2c.87,1.85.29,3.83,1,5.51.76,1.87.42,3.88,1.1,5.6s.32,3.48.95,4.93c.86,2,.21,4.14,1,5.85s.15,3.79,1,5.24c1,1.84.29,3.78,1,5.43s.31,3.74,1,5.35c.73,1.81.36,3.76,1.08,5.35.79,1.75.64,3.46.89,5.19.1.62.57,1.19.66,1.82.17,1.1.15,2.23.29,3.33a12,12,0,0,0,.53,1.31c.21.82.35,1.66.55,2.62H145.8c-.26-2.25-.52-4.57-.82-6.87a6.41,6.41,0,0,0-.51-1.36,4.12,4.12,0,0,1-.31-1c-.09-1-.1-1.92-.17-2.88a7.68,7.68,0,0,0-.71-3.55,6.8,6.8,0,0,1-.32-2.57,10.65,10.65,0,0,0-.58-3.43c-.51-1.22-.33-2.75-.39-4.14-.14-3-.33-3.15-3.21-3.15H112.06c0,1.07-.06,2.06-.16,3-.08.74.27,1.65-.76,2.08-.12.06-.09.52-.1.79,0,1.12,0,2.24-.08,3.36,0,.72.19,1.51-.69,2-.2.11-.19.66-.2,1-.06,1.19,0,2.4-.13,3.59a14.12,14.12,0,0,1-.57,2.14,5.52,5.52,0,0,0-.25,1.14c-.07,1.16,0,2.33-.16,3.47a16.79,16.79,0,0,1-.69,2.44,4.85,4.85,0,0,0-.15.94c-.07,1-.11,1.9-.17,2.94H82.89c.31-1.75-.44-3.58.9-5.16.28-.32.1-1,.17-1.52.15-1.27,0-2.59.8-3.77.33-.45.2-1.23.28-1.86.15-1.31-.14-2.62.76-3.89.47-.66.16-1.87.24-2.82.07-.72-.19-1.55.73-2,.14-.07.15-.51.16-.77,0-1.16,0-2.33.15-3.48a6.41,6.41,0,0,1,.61-1.54,2.88,2.88,0,0,0,.25-.75c.17-1.59-.08-3.19.83-4.74.47-.8.11-2,.25-3.07a16.42,16.42,0,0,1,.6-1.7c.17-.65.24-1.32.35-2,.22-1.41-.31-3,.93-4.18.15-.15.06-.54.09-.82.17-1.5,0-3,.72-4.49.5-1,.2-2.44.38-3.66a9.13,9.13,0,0,1,.69-1.74,3,3,0,0,0,.17-.79c0-1,0-2,.12-3a5.35,5.35,0,0,1,.57-1.28,2.61,2.61,0,0,0,.27-.86c.07-1,0-2.08.17-3.11a16,16,0,0,1,.64-2,8.48,8.48,0,0,0,.22-1.5c.1-1.25-.09-2.51.79-3.66.37-.49.19-1.39.27-2.11.12-1.11-.08-2.25.75-3.27.34-.42.2-1.23.28-1.86.17-1.3-.11-2.59.75-3.88.54-.8.15-2.19.3-3.29a8.79,8.79,0,0,1,.62-1.66,3.25,3.25,0,0,0,.24-.9c.06-1,0-2,.13-3A11.58,11.58,0,0,1,99.75,86a5.88,5.88,0,0,0,.21-1c.19-1.45-.16-2.94.81-4.35.46-.68.16-1.87.22-2.83s-.1-2.06.8-2.89c.24-.22.15-.83.19-1.27.13-1.35-.11-2.74.82-4,.37-.49.17-1.39.24-2.11a6.78,6.78,0,0,1,.64-3c.48-.84.23-2.1.35-3.17.1-.85-.26-1.85.8-2.46.22-.12.11-.82.14-1.26.07-1.11-.25-2.48.29-3.28a5.51,5.51,0,0,0,.73-2.5c.33-2,.67-3.93,1-5.9a7.31,7.31,0,0,1,.75-3.16c.54-.87.19-2.26.38-3.4a21.18,21.18,0,0,1,.76-2.38,4.89,4.89,0,0,0,.16-.93c.16-1.51-.07-3,.76-4.51.48-.85.15-2.12.31-3.18a7.15,7.15,0,0,1,.63-1.5,3.22,3.22,0,0,0,.23-.9c0-1,0-2,.1-3,0-.73-.09-1.46.71-2,.3-.21.19-1,.22-1.59.2-4-.08-3.3,3.45-3.32,8,0,16.08,0,24.12,0ZM114.78,130.91h23.3c0-.79,0-1.5,0-2.2-.07-1.44.25-3.08-.35-4.27-.85-1.7-.62-3.39-.77-5.09-.07-.76,0-1.52-.17-2.26-.2-1.11-.56-2.19-.76-3.3-.28-1.49.48-3.19-.88-4.48-.09-.09-.05-.31-.07-.47-.35-2.24.17-4.49-.81-6.79-.91-2.15-.19-4.72-1-7.14s-.16-5.36-1.07-8.07c-.76-2.25-.27-4.81-1.07-7.24-.71-2.18-.11-4.64-1-7-.75-2,0-4.32-.94-6.55s-.16-4.76-1-7.22,0-5.31-1.2-7.83c-.15-.33-.33-.64-.49-1l-.42.15c-.05,1-.08,2-.16,3s-.13,2.23-.31,3.33c-.15.91-.56,1.78-.68,2.69-.14,1.11-.07,2.24-.12,3.36a5.85,5.85,0,0,1-.2,1.17,14.87,14.87,0,0,0-.62,2.21c-.13,1.19-.08,2.39-.14,3.59,0,.39,0,1-.24,1.13-.77.5-.61,1.22-.64,1.91,0,1.28-.06,2.56-.1,3.83,0,.36.07.86-.13,1-1.17,1.1-.65,2.52-.8,3.8-.12,1-.13,2.06-.29,3.08s-.49,2.21-.64,3.32-.15,2.47-.32,3.68-.55,2.2-.71,3.31-.14,2.47-.31,3.69c-.19,1.4-.56,2.76-.76,4.15-.16,1.06-.12,2.15-.28,3.22s-.54,2-.65,3c-.15,1.34-.12,2.71-.18,4.07,0,.31,0,.8-.19.89-.84.45-.63,1.19-.65,1.87,0,1.4-.08,2.8-.13,4.2,0,.31,0,.8-.17.9-.93.51-.64,1.36-.7,2.11-.11,1.56-.15,3.12-.36,4.66A35.58,35.58,0,0,1,114.78,130.91Z"/><path d="M184.05,16.09c.33,0,.57-.05.8-.05q16.86,0,33.72.05c.92,0,1.92-.2,2.64.73.13.17.6.11.92.12,1.12,0,2.25,0,3.36.13a4.88,4.88,0,0,1,1.42.61c.1.05.2.21.27.2,1.78-.38,3.2.79,4.75,1.25,1.38.42,3,.47,4.13,1.7.15.17.53.09.76.21.4.21.76.5,1.14.74a1,1,0,0,0,.49.24c1.23.07,1.86,1,2.67,1.74.64.57,1.51.86,2.2,1.38s1.09,1.1,1.67,1.62,1.1.87,1.64,1.31a6,6,0,0,1,1.14,1.05c.49.7.83,1.49,1.28,2.2s.83,1.16,1.25,1.73c.22.31.42.63.64.94s.47.68.71,1c0,0,.17.06.2.11.4.88.76,1.77,1.19,2.63.57,1.16.68,2.56,1.72,3.49a.67.67,0,0,1,.14.32,10.78,10.78,0,0,0,.86,3c.81,1.69.82,3.75,1.22,5.64.22,1.07.69,2.1.81,3.18.19,1.86.24,3.75.25,5.62,0,4.51,1.2,9,.71,13.49-.16,1.38-.53,2.75-.64,4.13s0,2.88-.06,4.32c0,1.28,0,2.56-.14,3.83s.21,2.5-.78,3.61c-.33.37-.09,1.23-.17,1.87-.14,1.09.17,2.2-.7,3.25-.44.53-.16,1.62-.31,2.44a5,5,0,0,1-.62,1.25c-.05.1-.22.19-.21.26.39,1.67-1.06,2.88-1.14,4.44a4.13,4.13,0,0,1-.65,1.36c-.05.1-.13.19-.17.29-.44,1.29-.78,2.62-1.33,3.86a28.72,28.72,0,0,1-1.59,2.57c-.47.8-.83,1.67-1.29,2.47a8.77,8.77,0,0,1-1,1.29c-.94,1.12-1.91,2.21-2.86,3.32l-2.28,2.62a.65.65,0,0,1-.4.21c-1.18.15-1.71,1.19-2.55,1.81a26.76,26.76,0,0,1-2.32,1.38l-2.68,1.75s0,.07-.08.08c-1.16.37-2.33.72-3.47,1.12a11.88,11.88,0,0,0-1.48.72,1.27,1.27,0,0,1-.31.15L224.17,128a22.42,22.42,0,0,1-3.38.73c-3.47.18-6.94.22-10.41.31-.47,0-.94,0-1.58,0v47.25c0,1.69-.05,1.75-1.75,1.75h-23Zm24.75,18V109c0,.32,0,.64,0,1-.06.76.22,1.09,1,1,1.08-.06,2.16,0,3.24,0a3.9,3.9,0,0,0,1-.23c.5-.17,1-.56,1.48-.54a10,10,0,0,0,5.33-1.39,22.2,22.2,0,0,0,4.36-2.74c1.15-1.06,1.74-2.43,2.76-3.52a4.27,4.27,0,0,0,.94-1.28c.46-1.2.79-2.44,1.19-3.66,0-.14.18-.24.25-.38A5.3,5.3,0,0,0,231,96c.14-.82-.15-2,.31-2.43.88-.86.62-1.79.71-2.72s.13-2.15.28-3.21a24.34,24.34,0,0,0,.61-3.2c.07-8.56.07-17.12.07-25.68,0-1.47.3-3.1-.2-4.4a14.7,14.7,0,0,1-.75-4.88c-.08-1.5-1.49-2.65-1.11-4.26,0,0-.21-.1-.27-.19a5.29,5.29,0,0,1-.56-.91c-.12-.28-.05-.67-.21-.91-.59-.85-1.22-1.68-1.87-2.49-.29-.34-.78-.54-1-.92a4.51,4.51,0,0,0-2.2-2c-.63-.27-1.2-.66-1.81-1a19.34,19.34,0,0,0-3.55-1.72c-1.58-.45-3.23-.18-4.91-.85S210.84,34.12,208.8,34.12Z"/><path d="M326.9,84v18.91c-.69,0-1.39.12-2.09.12-7.84,0-15.67,0-23.51,0-1.23,0-1.56.36-1.55,1.56q0,26.52,0,53c0,1.18.38,1.46,1.51,1.45,10.84,0,21.68,0,32.52,0h2.07v18.88H275V16.11h59.9V35h-1.4c-10.76,0-21.52,0-32.28,0-1.15,0-1.48.3-1.47,1.46q0,23,0,46.08c0,1.25.4,1.51,1.57,1.51,7.84,0,15.68,0,23.52,0Z"/><path d="M30,35.05H4.05V16H78.77a2.87,2.87,0,0,1,1.18.07c.37.2.89.63.89,1,.06,5.64,0,11.27,0,16.91,0,.32-.46.76-.81.92a3.47,3.47,0,0,1-1.3.09c-7.55,0-15.11,0-22.67,0-1,0-1.41.27-1.31,1.28,0,.43,0,.88,0,1.32q0,69,0,138c0,2.35.57,2.51-2.56,2.51-6.92,0-13.84,0-20.75,0H30Z"/><path d="M29.92,226.08H4v-19c.45,0,.87-.06,1.3-.06H78.77c2.09,0,2.11,0,2.11,2v15.12c0,1.82,0,1.85-1.9,1.85-7.36,0-14.72,0-22.08,0-2.16,0-2.14-.5-2.14,2.09V367.45c0,1.34-.25,1.58-1.65,1.59H41.72c-3.48,0-7-.05-10.44,0-1.16,0-1.41-.38-1.38-1.43.06-2.56,0-5.12,0-7.68V226.08Z"/></svg>