<?xml version="1.0" standalone="no"?>
<!DOCTYPE svg PUBLIC "-//W3C//DTD SVG 20010904//EN"
 "http://www.w3.org/TR/2001/REC-SVG-20010904/DTD/svg10.dtd">
<svg version="1.0" xmlns="http://www.w3.org/2000/svg"
 width="96.000000pt" height="96.000000pt" viewBox="0 0 96.000000 96.000000"
 preserveAspectRatio="xMidYMid meet">

<g transform="translate(0.000000,96.000000) scale(0.100000,-0.100000)"
fill="#000000" stroke="none">
<path d="M10 480 l0 -470 100 0 101 0 -7 63 c-4 34 -13 67 -20 72 -13 10 -15
25 -14 130 0 48 -2 51 -37 70 -22 11 -39 29 -41 40 -1 11 25 65 58 120 l61
100 -6 62 c-5 47 -1 85 19 168 14 59 26 108 26 111 0 2 -54 4 -120 4 l-120 0
0 -470z"/>
<path d="M281 918 c-27 -84 -42 -175 -39 -246 l2 -77 -61 -102 c-59 -98 -65
-123 -28 -123 6 0 22 -11 34 -24 18 -19 21 -30 16 -60 -5 -23 -3 -42 5 -51 7
-8 9 -26 5 -43 -4 -20 -1 -33 10 -42 11 -9 15 -31 15 -76 l0 -64 355 0 355 0
0 470 0 470 -329 0 -329 0 -11 -32z m502 -284 c41 -22 67 -71 67 -127 0 -63
-18 -95 -102 -186 -39 -42 -79 -86 -90 -98 -23 -26 -83 -31 -112 -10 -23 17
-28 82 -6 82 9 0 17 -12 20 -30 7 -43 51 -47 83 -9 12 15 48 55 80 88 77 79
101 126 93 181 -9 58 -42 87 -105 93 -44 4 -53 1 -76 -22 -26 -26 -45 -27 -45
-1 0 15 45 50 75 58 28 7 84 -2 118 -19z m-6 -60 c22 -22 25 -31 19 -71 -8
-59 -42 -119 -88 -156 -28 -23 -48 -30 -92 -32 -31 -2 -58 1 -62 6 -17 29 25
119 56 119 15 0 12 -29 -5 -46 -50 -50 33 -63 89 -14 62 55 89 157 47 180 -11
5 -22 10 -24 10 -2 0 -2 -30 0 -67 4 -57 1 -74 -17 -102 -15 -24 -24 -31 -32
-23 -8 8 -6 21 7 48 16 34 17 105 2 121 -12 11 -27 -10 -27 -38 0 -19 -5 -29
-15 -29 -22 0 -20 72 3 92 41 37 103 38 139 2z"/>
</g>
</svg>
