<svg id="Layer_1" data-name="Layer 1" xmlns="http://www.w3.org/2000/svg" viewBox="0 0 2472.1 2437.55"><defs><style>.cls-1{fill:#1d1d1b;}</style></defs><path class="cls-1" d="M423.59,754.86,267,782.28V666.6L727.12,586V701.71L571.08,729v852.89l-147.49,25.82Z" transform="translate(-266.98 -311.13)"/><path class="cls-1" d="M933.84,549.83l169.7-29.71,180,937.06-149.2,26.12-26.77-168.84-177.68,31.11-25.62,178-149.78,26.22Zm156.61,657.05-68.34-470.62-6.27,1.1L946.94,1232Z" transform="translate(-266.98 -311.13)"/><path class="cls-1" d="M1377.46,472.16,1525,446.34q27.88-4.89,61.22-8.17a326.72,326.72,0,0,1,66.62.24,212.07,212.07,0,0,1,64.36,17.37q31,13.85,54.95,42.83T1810.55,575q14.52,47.37,14.52,118.81v34q0,77.7-13.38,135.32t-35.59,99.23q-22.21,41.61-51.54,69.42t-60.93,45a320.58,320.58,0,0,1-63.79,26.47,573.58,573.58,0,0,1-60.65,14.31L1525,1120V1414.9l-147.5,25.83ZM1532.36,1011q39.86-7,67.2-23.39a123.84,123.84,0,0,0,43.56-43.92q16.23-27.51,23.35-67.6t7.12-94.53V694.21q0-43.1-6.26-73.48t-22.5-47.94q-16.23-17.58-43.56-22.71t-68.91,2.14l-7.4,1.29v458.77Z" transform="translate(-266.98 -311.13)"/><path class="cls-1" d="M1936.69,374.25l360.48-63.12V426.81l-213,37.29V753.88l164.58-28.82V840.75l-164.58,28.81V1201.3L2302.86,1163V1278.7l-366.17,64.11Z" transform="translate(-266.98 -311.13)"/><path class="cls-1" d="M423.59,1895.8,267,1923.22V1807.53L727.12,1727v115.68l-156,27.32v852.88l-147.49,25.83Z" transform="translate(-266.98 -311.13)"/><path class="cls-1" d="M1042,2648.9a384.5,384.5,0,0,1-50.68,5.19,179.43,179.43,0,0,1-54.1-6.12,162.61,162.61,0,0,1-51.54-24.72q-24.78-17.49-43.85-49.88t-30.47-82.85Q800,2440.07,800,2367.47V2024.4q0-73.15,11.67-127.09t31-92.76q19.35-38.82,44.14-64.15t51.82-41.12a250.51,250.51,0,0,1,53.82-23.88,427.53,427.53,0,0,1,49.54-12.08,422.79,422.79,0,0,1,48.12-5.31,193.63,193.63,0,0,1,53,4.34q26.49,5.87,51.54,22.16t44.42,48.37q19.35,32.05,31,82.46t11.67,124.7v343.08q0,72-12,126t-31.32,93.38q-19.37,39.4-44.7,65.67t-51.83,43.1a233.87,233.87,0,0,1-52.67,25.38A348.26,348.26,0,0,1,1042,2648.9Zm0-110.58q21.63-3.8,37.87-14t26.76-30.21q10.55-20,15.95-50.71t5.41-76.08V1926.7q0-46.48-5.41-76.74t-15.95-47.4q-10.53-17.14-26.76-22.25T1042,1779q-22.21,3.88-38.72,14.72T976,1825.45q-10.82,20.9-16.23,53t-5.41,78.63v440.62q0,45.38,5.41,74.19T976,2517q10.82,16.28,27.34,20.74T1042,2538.32Z" transform="translate(-266.98 -311.13)"/><path class="cls-1" d="M1359.24,1616.29l141.23-24.73L1566,2165.32l7.4,135.37,14.24-2.5,13.67-156.07,104.78-586.56,117.88-20.64,100.23,550.67,11.39,151.68,14.81-2.59,6.83-137.87,59.8-595.69,141.8-24.83-136.11,992.4-149.77,26.22-80.3-451.5-25.06-198.06-11.39,2-24.48,206.74-84.29,480.32-148.06,25.92Z" transform="translate(-266.98 -311.13)"/><path class="cls-1" d="M2263.57,1458,2383.16,1437l235.76,606.89,3.42-.6q-1.71-22.38-4.56-49.67t-5.12-62.33q-2.28-35-4-79.55T2607,1751.11V1397.82l132.12-23.13v968.57l-120.73,21.13-234.62-590.07-4.56.8q1.71,25.22,4.56,54.49t5.12,69.14q2.28,39.87,4,93.15t1.71,127v284.67l-131,22.93Z" transform="translate(-266.98 -311.13)"/></svg>