<svg data-name="Layer 1" xmlns="http://www.w3.org/2000/svg" viewBox="0 0 2472.12 2437.58"><path d="M156.61 443.73 0 471.15V355.47l460.12-80.6v115.71l-156 27.29v852.89l-147.49 25.82zM666.86 238.7l169.7-29.7 180 937.06-149.2 26.12-26.77-168.84-177.68 31.11-25.62 178-149.78 26.22zm156.61 657.05-68.34-470.62-6.27 1.1L680 920.87zM1110.48 161 1258 135.21q27.88-4.89 61.22-8.17a326.71 326.71 0 0 1 66.62.24 212 212 0 0 1 64.36 17.37q31 13.85 55 42.83t38.4 76.39q14.52 47.37 14.52 118.81v34q0 77.7-13.38 135.32t-35.59 99.23q-22.21 41.61-51.54 69.42t-60.93 45a321 321 0 0 1-63.79 26.47 573 573 0 0 1-60.65 14.31l-14.24 2.44v294.9l-147.5 25.83zm154.9 538.84q39.86-7 67.2-23.39a123.84 123.84 0 0 0 43.56-43.92q16.23-27.51 23.35-67.6t7.12-94.53v-87.32q0-43.09-6.26-73.48t-22.5-47.94q-16.23-17.58-43.56-22.71t-68.91 2.14l-7.4 1.29v458.77zm404.33-636.72L2030.19 0v115.68l-213 37.29v289.78l164.58-28.82v115.69l-164.58 28.81v331.74l218.69-38.3v115.7l-366.17 64.11zM156.61 1584.67 0 1612.09V1496.4l460.12-80.53v115.68l-156 27.32v852.88l-147.49 25.83zM775 2337.77a384.62 384.62 0 0 1-50.68 5.19 179.56 179.56 0 0 1-54.1-6.12 162.63 162.63 0 0 1-51.54-24.72q-24.78-17.49-43.85-49.88t-30.47-82.85q-11.36-50.44-11.36-123v-343.12q0-73.15 11.67-127.09t31-92.76q19.35-38.82 44.14-64.15t51.82-41.12a250.52 250.52 0 0 1 53.82-23.88 427.83 427.83 0 0 1 49.55-12.08 422.45 422.45 0 0 1 48.12-5.31 193.43 193.43 0 0 1 53 4.34q26.49 5.87 51.54 22.16t44.42 48.37q19.35 32.05 31 82.46t11.67 124.7V1972q0 72-12 126t-31.32 93.38q-19.37 39.4-44.7 65.67t-51.83 43.1a233.78 233.78 0 0 1-52.67 25.38 347.62 347.62 0 0 1-47.23 12.24zm0-110.58q21.63-3.8 37.87-14t26.78-30.19q10.54-20 16-50.71t5.41-76.08v-440.64q0-46.48-5.41-76.74t-16-47.4q-10.53-17.15-26.76-22.25t-37.89-1.31q-22.21 3.89-38.72 14.72T709 1514.32q-10.82 20.9-16.23 53t-5.39 78.68v440.62q0 45.38 5.41 74.19t16.21 45.06q10.82 16.27 27.34 20.74t38.66.58zm317.26-922.03 141.23-24.73 65.51 573.76 7.4 135.37 14.24-2.5 13.69-156.06 104.78-586.56 117.89-20.65 100.23 550.67 11.39 151.68 14.81-2.59 6.83-137.87 59.8-595.69 141.8-24.83-136.11 992.4-149.75 26.22-80.3-451.5-25.06-198.06-11.39 2-24.51 206.78-84.29 480.32-148.06 25.92zm904.33-158.29 119.59-21 235.76 606.89 3.42-.6q-1.71-22.38-4.56-49.67t-5.12-62.33q-2.28-35-4-79.55T2340 1440v-353.31l132.12-23.13v968.57l-120.73 21.13-234.62-590.07-4.56.8q1.71 25.21 4.56 54.49t5.12 69.14q2.28 39.87 4 93.15t1.71 127v284.67l-131 22.93z" transform="translate(-.02)" style="fill:#020304"/></svg>